%TF.GenerationSoftware,KiCad,Pcbnew,5.1.6-c6e7f7d~87~ubuntu18.04.1*%
%TF.CreationDate,2021-05-18T20:14:27+01:00*%
%TF.ProjectId,CheeseDistribution,43686565-7365-4446-9973-747269627574,rev?*%
%TF.SameCoordinates,Original*%
%TF.FileFunction,Legend,Top*%
%TF.FilePolarity,Positive*%
%FSLAX46Y46*%
G04 Gerber Fmt 4.6, Leading zero omitted, Abs format (unit mm)*
G04 Created by KiCad (PCBNEW 5.1.6-c6e7f7d~87~ubuntu18.04.1) date 2021-05-18 20:14:27*
%MOMM*%
%LPD*%
G01*
G04 APERTURE LIST*
%ADD10C,0.150000*%
%ADD11C,0.120000*%
G04 APERTURE END LIST*
D10*
X183109523Y-101400000D02*
X183185714Y-101438095D01*
X183300000Y-101438095D01*
X183414285Y-101400000D01*
X183490476Y-101323809D01*
X183528571Y-101247619D01*
X183566666Y-101095238D01*
X183566666Y-100980952D01*
X183528571Y-100828571D01*
X183490476Y-100752380D01*
X183414285Y-100676190D01*
X183300000Y-100638095D01*
X183223809Y-100638095D01*
X183109523Y-100676190D01*
X183071428Y-100714285D01*
X183071428Y-100980952D01*
X183223809Y-100980952D01*
X182728571Y-100638095D02*
X182728571Y-101438095D01*
X182271428Y-100638095D01*
X182271428Y-101438095D01*
X181890476Y-100638095D02*
X181890476Y-101438095D01*
X181700000Y-101438095D01*
X181585714Y-101400000D01*
X181509523Y-101323809D01*
X181471428Y-101247619D01*
X181433333Y-101095238D01*
X181433333Y-100980952D01*
X181471428Y-100828571D01*
X181509523Y-100752380D01*
X181585714Y-100676190D01*
X181700000Y-100638095D01*
X181890476Y-100638095D01*
X185652380Y-101438095D02*
X186033333Y-101438095D01*
X186071428Y-101057142D01*
X186033333Y-101095238D01*
X185957142Y-101133333D01*
X185766666Y-101133333D01*
X185690476Y-101095238D01*
X185652380Y-101057142D01*
X185614285Y-100980952D01*
X185614285Y-100790476D01*
X185652380Y-100714285D01*
X185690476Y-100676190D01*
X185766666Y-100638095D01*
X185957142Y-100638095D01*
X186033333Y-100676190D01*
X186071428Y-100714285D01*
X185385714Y-101438095D02*
X185119047Y-100638095D01*
X184852380Y-101438095D01*
X189661904Y-100638095D02*
X189661904Y-101438095D01*
X189471428Y-101438095D01*
X189357142Y-101400000D01*
X189280952Y-101323809D01*
X189242857Y-101247619D01*
X189204761Y-101095238D01*
X189204761Y-100980952D01*
X189242857Y-100828571D01*
X189280952Y-100752380D01*
X189357142Y-100676190D01*
X189471428Y-100638095D01*
X189661904Y-100638095D01*
X188519047Y-100638095D02*
X188519047Y-101057142D01*
X188557142Y-101133333D01*
X188633333Y-101171428D01*
X188785714Y-101171428D01*
X188861904Y-101133333D01*
X188519047Y-100676190D02*
X188595238Y-100638095D01*
X188785714Y-100638095D01*
X188861904Y-100676190D01*
X188900000Y-100752380D01*
X188900000Y-100828571D01*
X188861904Y-100904761D01*
X188785714Y-100942857D01*
X188595238Y-100942857D01*
X188519047Y-100980952D01*
X188252380Y-101171428D02*
X187947619Y-101171428D01*
X188138095Y-101438095D02*
X188138095Y-100752380D01*
X188100000Y-100676190D01*
X188023809Y-100638095D01*
X187947619Y-100638095D01*
X187338095Y-100638095D02*
X187338095Y-101057142D01*
X187376190Y-101133333D01*
X187452380Y-101171428D01*
X187604761Y-101171428D01*
X187680952Y-101133333D01*
X187338095Y-100676190D02*
X187414285Y-100638095D01*
X187604761Y-100638095D01*
X187680952Y-100676190D01*
X187719047Y-100752380D01*
X187719047Y-100828571D01*
X187680952Y-100904761D01*
X187604761Y-100942857D01*
X187414285Y-100942857D01*
X187338095Y-100980952D01*
X190600000Y-113109523D02*
X190561904Y-113185714D01*
X190561904Y-113300000D01*
X190600000Y-113414285D01*
X190676190Y-113490476D01*
X190752380Y-113528571D01*
X190904761Y-113566666D01*
X191019047Y-113566666D01*
X191171428Y-113528571D01*
X191247619Y-113490476D01*
X191323809Y-113414285D01*
X191361904Y-113300000D01*
X191361904Y-113223809D01*
X191323809Y-113109523D01*
X191285714Y-113071428D01*
X191019047Y-113071428D01*
X191019047Y-113223809D01*
X191361904Y-112728571D02*
X190561904Y-112728571D01*
X191361904Y-112271428D01*
X190561904Y-112271428D01*
X191361904Y-111890476D02*
X190561904Y-111890476D01*
X190561904Y-111700000D01*
X190600000Y-111585714D01*
X190676190Y-111509523D01*
X190752380Y-111471428D01*
X190904761Y-111433333D01*
X191019047Y-111433333D01*
X191171428Y-111471428D01*
X191247619Y-111509523D01*
X191323809Y-111585714D01*
X191361904Y-111700000D01*
X191361904Y-111890476D01*
X190561904Y-115652380D02*
X190561904Y-116033333D01*
X190942857Y-116071428D01*
X190904761Y-116033333D01*
X190866666Y-115957142D01*
X190866666Y-115766666D01*
X190904761Y-115690476D01*
X190942857Y-115652380D01*
X191019047Y-115614285D01*
X191209523Y-115614285D01*
X191285714Y-115652380D01*
X191323809Y-115690476D01*
X191361904Y-115766666D01*
X191361904Y-115957142D01*
X191323809Y-116033333D01*
X191285714Y-116071428D01*
X190561904Y-115385714D02*
X191361904Y-115119047D01*
X190561904Y-114852380D01*
X191361904Y-119661904D02*
X190561904Y-119661904D01*
X190561904Y-119471428D01*
X190600000Y-119357142D01*
X190676190Y-119280952D01*
X190752380Y-119242857D01*
X190904761Y-119204761D01*
X191019047Y-119204761D01*
X191171428Y-119242857D01*
X191247619Y-119280952D01*
X191323809Y-119357142D01*
X191361904Y-119471428D01*
X191361904Y-119661904D01*
X191361904Y-118519047D02*
X190942857Y-118519047D01*
X190866666Y-118557142D01*
X190828571Y-118633333D01*
X190828571Y-118785714D01*
X190866666Y-118861904D01*
X191323809Y-118519047D02*
X191361904Y-118595238D01*
X191361904Y-118785714D01*
X191323809Y-118861904D01*
X191247619Y-118900000D01*
X191171428Y-118900000D01*
X191095238Y-118861904D01*
X191057142Y-118785714D01*
X191057142Y-118595238D01*
X191019047Y-118519047D01*
X190828571Y-118252380D02*
X190828571Y-117947619D01*
X190561904Y-118138095D02*
X191247619Y-118138095D01*
X191323809Y-118100000D01*
X191361904Y-118023809D01*
X191361904Y-117947619D01*
X191361904Y-117338095D02*
X190942857Y-117338095D01*
X190866666Y-117376190D01*
X190828571Y-117452380D01*
X190828571Y-117604761D01*
X190866666Y-117680952D01*
X191323809Y-117338095D02*
X191361904Y-117414285D01*
X191361904Y-117604761D01*
X191323809Y-117680952D01*
X191247619Y-117719047D01*
X191171428Y-117719047D01*
X191095238Y-117680952D01*
X191057142Y-117604761D01*
X191057142Y-117414285D01*
X191019047Y-117338095D01*
X163400000Y-117890476D02*
X163438095Y-117814285D01*
X163438095Y-117700000D01*
X163400000Y-117585714D01*
X163323809Y-117509523D01*
X163247619Y-117471428D01*
X163095238Y-117433333D01*
X162980952Y-117433333D01*
X162828571Y-117471428D01*
X162752380Y-117509523D01*
X162676190Y-117585714D01*
X162638095Y-117700000D01*
X162638095Y-117776190D01*
X162676190Y-117890476D01*
X162714285Y-117928571D01*
X162980952Y-117928571D01*
X162980952Y-117776190D01*
X162638095Y-118271428D02*
X163438095Y-118271428D01*
X162638095Y-118728571D01*
X163438095Y-118728571D01*
X162638095Y-119109523D02*
X163438095Y-119109523D01*
X163438095Y-119300000D01*
X163400000Y-119414285D01*
X163323809Y-119490476D01*
X163247619Y-119528571D01*
X163095238Y-119566666D01*
X162980952Y-119566666D01*
X162828571Y-119528571D01*
X162752380Y-119490476D01*
X162676190Y-119414285D01*
X162638095Y-119300000D01*
X162638095Y-119109523D01*
X163438095Y-115347619D02*
X163438095Y-114966666D01*
X163057142Y-114928571D01*
X163095238Y-114966666D01*
X163133333Y-115042857D01*
X163133333Y-115233333D01*
X163095238Y-115309523D01*
X163057142Y-115347619D01*
X162980952Y-115385714D01*
X162790476Y-115385714D01*
X162714285Y-115347619D01*
X162676190Y-115309523D01*
X162638095Y-115233333D01*
X162638095Y-115042857D01*
X162676190Y-114966666D01*
X162714285Y-114928571D01*
X163438095Y-115614285D02*
X162638095Y-115880952D01*
X163438095Y-116147619D01*
X162638095Y-111338095D02*
X163438095Y-111338095D01*
X163438095Y-111528571D01*
X163400000Y-111642857D01*
X163323809Y-111719047D01*
X163247619Y-111757142D01*
X163095238Y-111795238D01*
X162980952Y-111795238D01*
X162828571Y-111757142D01*
X162752380Y-111719047D01*
X162676190Y-111642857D01*
X162638095Y-111528571D01*
X162638095Y-111338095D01*
X162638095Y-112480952D02*
X163057142Y-112480952D01*
X163133333Y-112442857D01*
X163171428Y-112366666D01*
X163171428Y-112214285D01*
X163133333Y-112138095D01*
X162676190Y-112480952D02*
X162638095Y-112404761D01*
X162638095Y-112214285D01*
X162676190Y-112138095D01*
X162752380Y-112100000D01*
X162828571Y-112100000D01*
X162904761Y-112138095D01*
X162942857Y-112214285D01*
X162942857Y-112404761D01*
X162980952Y-112480952D01*
X163171428Y-112747619D02*
X163171428Y-113052380D01*
X163438095Y-112861904D02*
X162752380Y-112861904D01*
X162676190Y-112900000D01*
X162638095Y-112976190D01*
X162638095Y-113052380D01*
X162638095Y-113661904D02*
X163057142Y-113661904D01*
X163133333Y-113623809D01*
X163171428Y-113547619D01*
X163171428Y-113395238D01*
X163133333Y-113319047D01*
X162676190Y-113661904D02*
X162638095Y-113585714D01*
X162638095Y-113395238D01*
X162676190Y-113319047D01*
X162752380Y-113280952D01*
X162828571Y-113280952D01*
X162904761Y-113319047D01*
X162942857Y-113395238D01*
X162942857Y-113585714D01*
X162980952Y-113661904D01*
X187890476Y-128600000D02*
X187814285Y-128561904D01*
X187700000Y-128561904D01*
X187585714Y-128600000D01*
X187509523Y-128676190D01*
X187471428Y-128752380D01*
X187433333Y-128904761D01*
X187433333Y-129019047D01*
X187471428Y-129171428D01*
X187509523Y-129247619D01*
X187585714Y-129323809D01*
X187700000Y-129361904D01*
X187776190Y-129361904D01*
X187890476Y-129323809D01*
X187928571Y-129285714D01*
X187928571Y-129019047D01*
X187776190Y-129019047D01*
X188271428Y-129361904D02*
X188271428Y-128561904D01*
X188728571Y-129361904D01*
X188728571Y-128561904D01*
X189109523Y-129361904D02*
X189109523Y-128561904D01*
X189300000Y-128561904D01*
X189414285Y-128600000D01*
X189490476Y-128676190D01*
X189528571Y-128752380D01*
X189566666Y-128904761D01*
X189566666Y-129019047D01*
X189528571Y-129171428D01*
X189490476Y-129247619D01*
X189414285Y-129323809D01*
X189300000Y-129361904D01*
X189109523Y-129361904D01*
X185347619Y-128561904D02*
X184966666Y-128561904D01*
X184928571Y-128942857D01*
X184966666Y-128904761D01*
X185042857Y-128866666D01*
X185233333Y-128866666D01*
X185309523Y-128904761D01*
X185347619Y-128942857D01*
X185385714Y-129019047D01*
X185385714Y-129209523D01*
X185347619Y-129285714D01*
X185309523Y-129323809D01*
X185233333Y-129361904D01*
X185042857Y-129361904D01*
X184966666Y-129323809D01*
X184928571Y-129285714D01*
X185614285Y-128561904D02*
X185880952Y-129361904D01*
X186147619Y-128561904D01*
X181338095Y-129361904D02*
X181338095Y-128561904D01*
X181528571Y-128561904D01*
X181642857Y-128600000D01*
X181719047Y-128676190D01*
X181757142Y-128752380D01*
X181795238Y-128904761D01*
X181795238Y-129019047D01*
X181757142Y-129171428D01*
X181719047Y-129247619D01*
X181642857Y-129323809D01*
X181528571Y-129361904D01*
X181338095Y-129361904D01*
X182480952Y-129361904D02*
X182480952Y-128942857D01*
X182442857Y-128866666D01*
X182366666Y-128828571D01*
X182214285Y-128828571D01*
X182138095Y-128866666D01*
X182480952Y-129323809D02*
X182404761Y-129361904D01*
X182214285Y-129361904D01*
X182138095Y-129323809D01*
X182100000Y-129247619D01*
X182100000Y-129171428D01*
X182138095Y-129095238D01*
X182214285Y-129057142D01*
X182404761Y-129057142D01*
X182480952Y-129019047D01*
X182747619Y-128828571D02*
X183052380Y-128828571D01*
X182861904Y-128561904D02*
X182861904Y-129247619D01*
X182900000Y-129323809D01*
X182976190Y-129361904D01*
X183052380Y-129361904D01*
X183661904Y-129361904D02*
X183661904Y-128942857D01*
X183623809Y-128866666D01*
X183547619Y-128828571D01*
X183395238Y-128828571D01*
X183319047Y-128866666D01*
X183661904Y-129323809D02*
X183585714Y-129361904D01*
X183395238Y-129361904D01*
X183319047Y-129323809D01*
X183280952Y-129247619D01*
X183280952Y-129171428D01*
X183319047Y-129095238D01*
X183395238Y-129057142D01*
X183585714Y-129057142D01*
X183661904Y-129019047D01*
D11*
%TO.C,J1*%
X176430000Y-126000000D02*
X175430000Y-126500000D01*
X176430000Y-127000000D02*
X176430000Y-126000000D01*
X175430000Y-126500000D02*
X176430000Y-127000000D01*
X173730000Y-113020000D02*
X175040000Y-113020000D01*
X173730000Y-113020000D02*
X173730000Y-113020000D01*
X173730000Y-99730000D02*
X173730000Y-113020000D01*
X167230000Y-99730000D02*
X173730000Y-99730000D01*
X167230000Y-130410000D02*
X167230000Y-99730000D01*
X173730000Y-130410000D02*
X167230000Y-130410000D01*
X173730000Y-117120000D02*
X173730000Y-130410000D01*
X175040000Y-117120000D02*
X173730000Y-117120000D01*
X175040000Y-98430000D02*
X175040000Y-131710000D01*
X165920000Y-98430000D02*
X175040000Y-98430000D01*
X165920000Y-131710000D02*
X165920000Y-98430000D01*
X175040000Y-131710000D02*
X165920000Y-131710000D01*
%TO.C,J6*%
X179750000Y-121850000D02*
X181000000Y-121850000D01*
X179750000Y-120600000D02*
X179750000Y-121850000D01*
X185250000Y-109700000D02*
X185250000Y-115250000D01*
X182300000Y-109700000D02*
X185250000Y-109700000D01*
X182300000Y-108950000D02*
X182300000Y-109700000D01*
X185250000Y-120800000D02*
X185250000Y-115250000D01*
X182300000Y-120800000D02*
X185250000Y-120800000D01*
X182300000Y-121550000D02*
X182300000Y-120800000D01*
X180050000Y-108950000D02*
X180050000Y-110750000D01*
X180800000Y-108950000D02*
X180050000Y-108950000D01*
X180800000Y-110750000D02*
X180800000Y-108950000D01*
X180050000Y-110750000D02*
X180800000Y-110750000D01*
X180050000Y-119750000D02*
X180050000Y-121550000D01*
X180800000Y-119750000D02*
X180050000Y-119750000D01*
X180800000Y-121550000D02*
X180800000Y-119750000D01*
X180050000Y-121550000D02*
X180800000Y-121550000D01*
X180050000Y-112250000D02*
X180050000Y-118250000D01*
X180800000Y-112250000D02*
X180050000Y-112250000D01*
X180800000Y-118250000D02*
X180800000Y-112250000D01*
X180050000Y-118250000D02*
X180800000Y-118250000D01*
X180040000Y-108940000D02*
X180040000Y-121560000D01*
X186010000Y-108940000D02*
X180040000Y-108940000D01*
X186010000Y-121560000D02*
X186010000Y-108940000D01*
X180040000Y-121560000D02*
X186010000Y-121560000D01*
%TO.C,J5*%
X191730000Y-111730000D02*
X193000000Y-111730000D01*
X191730000Y-113000000D02*
X191730000Y-111730000D01*
X194042929Y-118460000D02*
X194440000Y-118460000D01*
X194042929Y-117700000D02*
X194440000Y-117700000D01*
X203100000Y-118460000D02*
X197100000Y-118460000D01*
X203100000Y-117700000D02*
X203100000Y-118460000D01*
X197100000Y-117700000D02*
X203100000Y-117700000D01*
X194440000Y-116810000D02*
X197100000Y-116810000D01*
X194042929Y-115920000D02*
X194440000Y-115920000D01*
X194042929Y-115160000D02*
X194440000Y-115160000D01*
X203100000Y-115920000D02*
X197100000Y-115920000D01*
X203100000Y-115160000D02*
X203100000Y-115920000D01*
X197100000Y-115160000D02*
X203100000Y-115160000D01*
X194440000Y-114270000D02*
X197100000Y-114270000D01*
X194110000Y-113380000D02*
X194440000Y-113380000D01*
X194110000Y-112620000D02*
X194440000Y-112620000D01*
X197100000Y-113280000D02*
X203100000Y-113280000D01*
X197100000Y-113160000D02*
X203100000Y-113160000D01*
X197100000Y-113040000D02*
X203100000Y-113040000D01*
X197100000Y-112920000D02*
X203100000Y-112920000D01*
X197100000Y-112800000D02*
X203100000Y-112800000D01*
X197100000Y-112680000D02*
X203100000Y-112680000D01*
X203100000Y-113380000D02*
X197100000Y-113380000D01*
X203100000Y-112620000D02*
X203100000Y-113380000D01*
X197100000Y-112620000D02*
X203100000Y-112620000D01*
X197100000Y-111670000D02*
X194440000Y-111670000D01*
X197100000Y-119410000D02*
X197100000Y-111670000D01*
X194440000Y-119410000D02*
X197100000Y-119410000D01*
X194440000Y-111670000D02*
X194440000Y-119410000D01*
%TO.C,J4*%
X189270000Y-129730000D02*
X189270000Y-131000000D01*
X188000000Y-129730000D02*
X189270000Y-129730000D01*
X182540000Y-132042929D02*
X182540000Y-132440000D01*
X183300000Y-132042929D02*
X183300000Y-132440000D01*
X182540000Y-141100000D02*
X182540000Y-135100000D01*
X183300000Y-141100000D02*
X182540000Y-141100000D01*
X183300000Y-135100000D02*
X183300000Y-141100000D01*
X184190000Y-132440000D02*
X184190000Y-135100000D01*
X185080000Y-132042929D02*
X185080000Y-132440000D01*
X185840000Y-132042929D02*
X185840000Y-132440000D01*
X185080000Y-141100000D02*
X185080000Y-135100000D01*
X185840000Y-141100000D02*
X185080000Y-141100000D01*
X185840000Y-135100000D02*
X185840000Y-141100000D01*
X186730000Y-132440000D02*
X186730000Y-135100000D01*
X187620000Y-132110000D02*
X187620000Y-132440000D01*
X188380000Y-132110000D02*
X188380000Y-132440000D01*
X187720000Y-135100000D02*
X187720000Y-141100000D01*
X187840000Y-135100000D02*
X187840000Y-141100000D01*
X187960000Y-135100000D02*
X187960000Y-141100000D01*
X188080000Y-135100000D02*
X188080000Y-141100000D01*
X188200000Y-135100000D02*
X188200000Y-141100000D01*
X188320000Y-135100000D02*
X188320000Y-141100000D01*
X187620000Y-141100000D02*
X187620000Y-135100000D01*
X188380000Y-141100000D02*
X187620000Y-141100000D01*
X188380000Y-135100000D02*
X188380000Y-141100000D01*
X189330000Y-135100000D02*
X189330000Y-132440000D01*
X181590000Y-135100000D02*
X189330000Y-135100000D01*
X181590000Y-132440000D02*
X181590000Y-135100000D01*
X189330000Y-132440000D02*
X181590000Y-132440000D01*
%TO.C,J3*%
X162270000Y-119270000D02*
X161000000Y-119270000D01*
X162270000Y-118000000D02*
X162270000Y-119270000D01*
X159957071Y-112540000D02*
X159560000Y-112540000D01*
X159957071Y-113300000D02*
X159560000Y-113300000D01*
X150900000Y-112540000D02*
X156900000Y-112540000D01*
X150900000Y-113300000D02*
X150900000Y-112540000D01*
X156900000Y-113300000D02*
X150900000Y-113300000D01*
X159560000Y-114190000D02*
X156900000Y-114190000D01*
X159957071Y-115080000D02*
X159560000Y-115080000D01*
X159957071Y-115840000D02*
X159560000Y-115840000D01*
X150900000Y-115080000D02*
X156900000Y-115080000D01*
X150900000Y-115840000D02*
X150900000Y-115080000D01*
X156900000Y-115840000D02*
X150900000Y-115840000D01*
X159560000Y-116730000D02*
X156900000Y-116730000D01*
X159890000Y-117620000D02*
X159560000Y-117620000D01*
X159890000Y-118380000D02*
X159560000Y-118380000D01*
X156900000Y-117720000D02*
X150900000Y-117720000D01*
X156900000Y-117840000D02*
X150900000Y-117840000D01*
X156900000Y-117960000D02*
X150900000Y-117960000D01*
X156900000Y-118080000D02*
X150900000Y-118080000D01*
X156900000Y-118200000D02*
X150900000Y-118200000D01*
X156900000Y-118320000D02*
X150900000Y-118320000D01*
X150900000Y-117620000D02*
X156900000Y-117620000D01*
X150900000Y-118380000D02*
X150900000Y-117620000D01*
X156900000Y-118380000D02*
X150900000Y-118380000D01*
X156900000Y-119330000D02*
X159560000Y-119330000D01*
X156900000Y-111590000D02*
X156900000Y-119330000D01*
X159560000Y-111590000D02*
X156900000Y-111590000D01*
X159560000Y-119330000D02*
X159560000Y-111590000D01*
%TO.C,J2*%
X181730000Y-100270000D02*
X181730000Y-99000000D01*
X183000000Y-100270000D02*
X181730000Y-100270000D01*
X188460000Y-97957071D02*
X188460000Y-97560000D01*
X187700000Y-97957071D02*
X187700000Y-97560000D01*
X188460000Y-88900000D02*
X188460000Y-94900000D01*
X187700000Y-88900000D02*
X188460000Y-88900000D01*
X187700000Y-94900000D02*
X187700000Y-88900000D01*
X186810000Y-97560000D02*
X186810000Y-94900000D01*
X185920000Y-97957071D02*
X185920000Y-97560000D01*
X185160000Y-97957071D02*
X185160000Y-97560000D01*
X185920000Y-88900000D02*
X185920000Y-94900000D01*
X185160000Y-88900000D02*
X185920000Y-88900000D01*
X185160000Y-94900000D02*
X185160000Y-88900000D01*
X184270000Y-97560000D02*
X184270000Y-94900000D01*
X183380000Y-97890000D02*
X183380000Y-97560000D01*
X182620000Y-97890000D02*
X182620000Y-97560000D01*
X183280000Y-94900000D02*
X183280000Y-88900000D01*
X183160000Y-94900000D02*
X183160000Y-88900000D01*
X183040000Y-94900000D02*
X183040000Y-88900000D01*
X182920000Y-94900000D02*
X182920000Y-88900000D01*
X182800000Y-94900000D02*
X182800000Y-88900000D01*
X182680000Y-94900000D02*
X182680000Y-88900000D01*
X183380000Y-88900000D02*
X183380000Y-94900000D01*
X182620000Y-88900000D02*
X183380000Y-88900000D01*
X182620000Y-94900000D02*
X182620000Y-88900000D01*
X181670000Y-94900000D02*
X181670000Y-97560000D01*
X189410000Y-94900000D02*
X181670000Y-94900000D01*
X189410000Y-97560000D02*
X189410000Y-94900000D01*
X181670000Y-97560000D02*
X189410000Y-97560000D01*
%TO.C,REF\u002A\u002A*%
D10*
X159166666Y-94752380D02*
X158833333Y-94276190D01*
X158595238Y-94752380D02*
X158595238Y-93752380D01*
X158976190Y-93752380D01*
X159071428Y-93800000D01*
X159119047Y-93847619D01*
X159166666Y-93942857D01*
X159166666Y-94085714D01*
X159119047Y-94180952D01*
X159071428Y-94228571D01*
X158976190Y-94276190D01*
X158595238Y-94276190D01*
X159595238Y-94228571D02*
X159928571Y-94228571D01*
X160071428Y-94752380D02*
X159595238Y-94752380D01*
X159595238Y-93752380D01*
X160071428Y-93752380D01*
X160833333Y-94228571D02*
X160500000Y-94228571D01*
X160500000Y-94752380D02*
X160500000Y-93752380D01*
X160976190Y-93752380D01*
X161500000Y-93752380D02*
X161500000Y-93990476D01*
X161261904Y-93895238D02*
X161500000Y-93990476D01*
X161738095Y-93895238D01*
X161357142Y-94180952D02*
X161500000Y-93990476D01*
X161642857Y-94180952D01*
X162261904Y-93752380D02*
X162261904Y-93990476D01*
X162023809Y-93895238D02*
X162261904Y-93990476D01*
X162500000Y-93895238D01*
X162119047Y-94180952D02*
X162261904Y-93990476D01*
X162404761Y-94180952D01*
X159166666Y-127752380D02*
X158833333Y-127276190D01*
X158595238Y-127752380D02*
X158595238Y-126752380D01*
X158976190Y-126752380D01*
X159071428Y-126800000D01*
X159119047Y-126847619D01*
X159166666Y-126942857D01*
X159166666Y-127085714D01*
X159119047Y-127180952D01*
X159071428Y-127228571D01*
X158976190Y-127276190D01*
X158595238Y-127276190D01*
X159595238Y-127228571D02*
X159928571Y-127228571D01*
X160071428Y-127752380D02*
X159595238Y-127752380D01*
X159595238Y-126752380D01*
X160071428Y-126752380D01*
X160833333Y-127228571D02*
X160500000Y-127228571D01*
X160500000Y-127752380D02*
X160500000Y-126752380D01*
X160976190Y-126752380D01*
X161500000Y-126752380D02*
X161500000Y-126990476D01*
X161261904Y-126895238D02*
X161500000Y-126990476D01*
X161738095Y-126895238D01*
X161357142Y-127180952D02*
X161500000Y-126990476D01*
X161642857Y-127180952D01*
X162261904Y-126752380D02*
X162261904Y-126990476D01*
X162023809Y-126895238D02*
X162261904Y-126990476D01*
X162500000Y-126895238D01*
X162119047Y-127180952D02*
X162261904Y-126990476D01*
X162404761Y-127180952D01*
X192166666Y-127752380D02*
X191833333Y-127276190D01*
X191595238Y-127752380D02*
X191595238Y-126752380D01*
X191976190Y-126752380D01*
X192071428Y-126800000D01*
X192119047Y-126847619D01*
X192166666Y-126942857D01*
X192166666Y-127085714D01*
X192119047Y-127180952D01*
X192071428Y-127228571D01*
X191976190Y-127276190D01*
X191595238Y-127276190D01*
X192595238Y-127228571D02*
X192928571Y-127228571D01*
X193071428Y-127752380D02*
X192595238Y-127752380D01*
X192595238Y-126752380D01*
X193071428Y-126752380D01*
X193833333Y-127228571D02*
X193500000Y-127228571D01*
X193500000Y-127752380D02*
X193500000Y-126752380D01*
X193976190Y-126752380D01*
X194500000Y-126752380D02*
X194500000Y-126990476D01*
X194261904Y-126895238D02*
X194500000Y-126990476D01*
X194738095Y-126895238D01*
X194357142Y-127180952D02*
X194500000Y-126990476D01*
X194642857Y-127180952D01*
X195261904Y-126752380D02*
X195261904Y-126990476D01*
X195023809Y-126895238D02*
X195261904Y-126990476D01*
X195500000Y-126895238D01*
X195119047Y-127180952D02*
X195261904Y-126990476D01*
X195404761Y-127180952D01*
X192166666Y-94752380D02*
X191833333Y-94276190D01*
X191595238Y-94752380D02*
X191595238Y-93752380D01*
X191976190Y-93752380D01*
X192071428Y-93800000D01*
X192119047Y-93847619D01*
X192166666Y-93942857D01*
X192166666Y-94085714D01*
X192119047Y-94180952D01*
X192071428Y-94228571D01*
X191976190Y-94276190D01*
X191595238Y-94276190D01*
X192595238Y-94228571D02*
X192928571Y-94228571D01*
X193071428Y-94752380D02*
X192595238Y-94752380D01*
X192595238Y-93752380D01*
X193071428Y-93752380D01*
X193833333Y-94228571D02*
X193500000Y-94228571D01*
X193500000Y-94752380D02*
X193500000Y-93752380D01*
X193976190Y-93752380D01*
X194500000Y-93752380D02*
X194500000Y-93990476D01*
X194261904Y-93895238D02*
X194500000Y-93990476D01*
X194738095Y-93895238D01*
X194357142Y-94180952D02*
X194500000Y-93990476D01*
X194642857Y-94180952D01*
X195261904Y-93752380D02*
X195261904Y-93990476D01*
X195023809Y-93895238D02*
X195261904Y-93990476D01*
X195500000Y-93895238D01*
X195119047Y-94180952D02*
X195261904Y-93990476D01*
X195404761Y-94180952D01*
%TO.C,J1*%
X170146666Y-132052380D02*
X170146666Y-132766666D01*
X170099047Y-132909523D01*
X170003809Y-133004761D01*
X169860952Y-133052380D01*
X169765714Y-133052380D01*
X171146666Y-133052380D02*
X170575238Y-133052380D01*
X170860952Y-133052380D02*
X170860952Y-132052380D01*
X170765714Y-132195238D01*
X170670476Y-132290476D01*
X170575238Y-132338095D01*
%TO.C,J6*%
X178402380Y-115583333D02*
X179116666Y-115583333D01*
X179259523Y-115630952D01*
X179354761Y-115726190D01*
X179402380Y-115869047D01*
X179402380Y-115964285D01*
X178402380Y-114678571D02*
X178402380Y-114869047D01*
X178450000Y-114964285D01*
X178497619Y-115011904D01*
X178640476Y-115107142D01*
X178830952Y-115154761D01*
X179211904Y-115154761D01*
X179307142Y-115107142D01*
X179354761Y-115059523D01*
X179402380Y-114964285D01*
X179402380Y-114773809D01*
X179354761Y-114678571D01*
X179307142Y-114630952D01*
X179211904Y-114583333D01*
X178973809Y-114583333D01*
X178878571Y-114630952D01*
X178830952Y-114678571D01*
X178783333Y-114773809D01*
X178783333Y-114964285D01*
X178830952Y-115059523D01*
X178878571Y-115107142D01*
X178973809Y-115154761D01*
%TO.C,J5*%
X197051666Y-110182380D02*
X197051666Y-110896666D01*
X197004047Y-111039523D01*
X196908809Y-111134761D01*
X196765952Y-111182380D01*
X196670714Y-111182380D01*
X198004047Y-110182380D02*
X197527857Y-110182380D01*
X197480238Y-110658571D01*
X197527857Y-110610952D01*
X197623095Y-110563333D01*
X197861190Y-110563333D01*
X197956428Y-110610952D01*
X198004047Y-110658571D01*
X198051666Y-110753809D01*
X198051666Y-110991904D01*
X198004047Y-111087142D01*
X197956428Y-111134761D01*
X197861190Y-111182380D01*
X197623095Y-111182380D01*
X197527857Y-111134761D01*
X197480238Y-111087142D01*
%TO.C,J4*%
X185166666Y-133452380D02*
X185166666Y-134166666D01*
X185119047Y-134309523D01*
X185023809Y-134404761D01*
X184880952Y-134452380D01*
X184785714Y-134452380D01*
X186071428Y-133785714D02*
X186071428Y-134452380D01*
X185833333Y-133404761D02*
X185595238Y-134119047D01*
X186214285Y-134119047D01*
%TO.C,J3*%
X158166666Y-114952380D02*
X158166666Y-115666666D01*
X158119047Y-115809523D01*
X158023809Y-115904761D01*
X157880952Y-115952380D01*
X157785714Y-115952380D01*
X158547619Y-114952380D02*
X159166666Y-114952380D01*
X158833333Y-115333333D01*
X158976190Y-115333333D01*
X159071428Y-115380952D01*
X159119047Y-115428571D01*
X159166666Y-115523809D01*
X159166666Y-115761904D01*
X159119047Y-115857142D01*
X159071428Y-115904761D01*
X158976190Y-115952380D01*
X158690476Y-115952380D01*
X158595238Y-115904761D01*
X158547619Y-115857142D01*
%TO.C,J2*%
X185166666Y-95952380D02*
X185166666Y-96666666D01*
X185119047Y-96809523D01*
X185023809Y-96904761D01*
X184880952Y-96952380D01*
X184785714Y-96952380D01*
X185595238Y-96047619D02*
X185642857Y-96000000D01*
X185738095Y-95952380D01*
X185976190Y-95952380D01*
X186071428Y-96000000D01*
X186119047Y-96047619D01*
X186166666Y-96142857D01*
X186166666Y-96238095D01*
X186119047Y-96380952D01*
X185547619Y-96952380D01*
X186166666Y-96952380D01*
%TD*%
M02*
