%TF.GenerationSoftware,KiCad,Pcbnew,5.1.6-c6e7f7d~87~ubuntu18.04.1*%
%TF.CreationDate,2021-05-18T20:14:27+01:00*%
%TF.ProjectId,CheeseDistribution,43686565-7365-4446-9973-747269627574,rev?*%
%TF.SameCoordinates,Original*%
%TF.FileFunction,Legend,Bot*%
%TF.FilePolarity,Positive*%
%FSLAX46Y46*%
G04 Gerber Fmt 4.6, Leading zero omitted, Abs format (unit mm)*
G04 Created by KiCad (PCBNEW 5.1.6-c6e7f7d~87~ubuntu18.04.1) date 2021-05-18 20:14:27*
%MOMM*%
%LPD*%
G01*
G04 APERTURE LIST*
%ADD10C,0.010000*%
G04 APERTURE END LIST*
D10*
%TO.C,REF\u002A\u002A*%
G36*
X188981114Y-127584505D02*
G01*
X188906461Y-127621727D01*
X188840569Y-127690261D01*
X188822423Y-127715648D01*
X188802655Y-127748866D01*
X188789828Y-127784945D01*
X188782490Y-127833098D01*
X188779187Y-127902536D01*
X188778462Y-127994206D01*
X188781737Y-128119830D01*
X188793123Y-128214154D01*
X188814959Y-128284523D01*
X188849581Y-128338286D01*
X188899330Y-128382788D01*
X188902986Y-128385423D01*
X188952015Y-128412377D01*
X189011055Y-128425712D01*
X189086141Y-128429000D01*
X189208205Y-128429000D01*
X189208256Y-128547497D01*
X189209392Y-128613492D01*
X189216314Y-128652202D01*
X189234402Y-128675419D01*
X189269038Y-128694933D01*
X189277355Y-128698920D01*
X189316280Y-128717603D01*
X189346417Y-128729403D01*
X189368826Y-128730422D01*
X189384567Y-128716761D01*
X189394698Y-128684522D01*
X189400277Y-128629804D01*
X189402365Y-128548711D01*
X189402019Y-128437344D01*
X189400300Y-128291802D01*
X189399763Y-128248269D01*
X189397828Y-128098205D01*
X189396096Y-128000042D01*
X189208308Y-128000042D01*
X189207252Y-128083364D01*
X189202562Y-128137880D01*
X189191949Y-128173837D01*
X189173128Y-128201482D01*
X189160350Y-128214965D01*
X189108110Y-128254417D01*
X189061858Y-128257628D01*
X189014133Y-128225049D01*
X189012923Y-128223846D01*
X188993506Y-128198668D01*
X188981693Y-128164447D01*
X188975735Y-128111748D01*
X188973880Y-128031131D01*
X188973846Y-128013271D01*
X188978330Y-127902175D01*
X188992926Y-127825161D01*
X189019350Y-127778147D01*
X189059317Y-127757050D01*
X189082416Y-127754923D01*
X189137238Y-127764900D01*
X189174842Y-127797752D01*
X189197477Y-127857857D01*
X189207394Y-127949598D01*
X189208308Y-128000042D01*
X189396096Y-128000042D01*
X189395778Y-127982060D01*
X189393127Y-127894679D01*
X189389394Y-127830905D01*
X189384093Y-127785582D01*
X189376742Y-127753555D01*
X189366857Y-127729668D01*
X189353954Y-127708764D01*
X189348421Y-127700898D01*
X189275031Y-127626595D01*
X189182240Y-127584467D01*
X189074904Y-127572722D01*
X188981114Y-127584505D01*
G37*
X188981114Y-127584505D02*
X188906461Y-127621727D01*
X188840569Y-127690261D01*
X188822423Y-127715648D01*
X188802655Y-127748866D01*
X188789828Y-127784945D01*
X188782490Y-127833098D01*
X188779187Y-127902536D01*
X188778462Y-127994206D01*
X188781737Y-128119830D01*
X188793123Y-128214154D01*
X188814959Y-128284523D01*
X188849581Y-128338286D01*
X188899330Y-128382788D01*
X188902986Y-128385423D01*
X188952015Y-128412377D01*
X189011055Y-128425712D01*
X189086141Y-128429000D01*
X189208205Y-128429000D01*
X189208256Y-128547497D01*
X189209392Y-128613492D01*
X189216314Y-128652202D01*
X189234402Y-128675419D01*
X189269038Y-128694933D01*
X189277355Y-128698920D01*
X189316280Y-128717603D01*
X189346417Y-128729403D01*
X189368826Y-128730422D01*
X189384567Y-128716761D01*
X189394698Y-128684522D01*
X189400277Y-128629804D01*
X189402365Y-128548711D01*
X189402019Y-128437344D01*
X189400300Y-128291802D01*
X189399763Y-128248269D01*
X189397828Y-128098205D01*
X189396096Y-128000042D01*
X189208308Y-128000042D01*
X189207252Y-128083364D01*
X189202562Y-128137880D01*
X189191949Y-128173837D01*
X189173128Y-128201482D01*
X189160350Y-128214965D01*
X189108110Y-128254417D01*
X189061858Y-128257628D01*
X189014133Y-128225049D01*
X189012923Y-128223846D01*
X188993506Y-128198668D01*
X188981693Y-128164447D01*
X188975735Y-128111748D01*
X188973880Y-128031131D01*
X188973846Y-128013271D01*
X188978330Y-127902175D01*
X188992926Y-127825161D01*
X189019350Y-127778147D01*
X189059317Y-127757050D01*
X189082416Y-127754923D01*
X189137238Y-127764900D01*
X189174842Y-127797752D01*
X189197477Y-127857857D01*
X189207394Y-127949598D01*
X189208308Y-128000042D01*
X189396096Y-128000042D01*
X189395778Y-127982060D01*
X189393127Y-127894679D01*
X189389394Y-127830905D01*
X189384093Y-127785582D01*
X189376742Y-127753555D01*
X189366857Y-127729668D01*
X189353954Y-127708764D01*
X189348421Y-127700898D01*
X189275031Y-127626595D01*
X189182240Y-127584467D01*
X189074904Y-127572722D01*
X188981114Y-127584505D01*
G36*
X187478336Y-127595089D02*
G01*
X187415633Y-127631358D01*
X187372039Y-127667358D01*
X187340155Y-127705075D01*
X187318190Y-127751199D01*
X187304351Y-127812421D01*
X187296847Y-127895431D01*
X187293883Y-128006919D01*
X187293539Y-128087062D01*
X187293539Y-128382065D01*
X187459615Y-128456515D01*
X187469385Y-128133402D01*
X187473421Y-128012729D01*
X187477656Y-127925141D01*
X187482903Y-127864650D01*
X187489975Y-127825268D01*
X187499689Y-127801007D01*
X187512856Y-127785880D01*
X187517081Y-127782606D01*
X187581091Y-127757034D01*
X187645792Y-127767153D01*
X187684308Y-127794000D01*
X187699975Y-127813024D01*
X187710820Y-127837988D01*
X187717712Y-127875834D01*
X187721521Y-127933502D01*
X187723117Y-128017935D01*
X187723385Y-128105928D01*
X187723437Y-128216323D01*
X187725328Y-128294463D01*
X187731655Y-128347165D01*
X187745017Y-128381242D01*
X187768015Y-128403511D01*
X187803246Y-128420787D01*
X187850303Y-128438738D01*
X187901697Y-128458278D01*
X187895579Y-128111485D01*
X187893116Y-127986468D01*
X187890233Y-127894082D01*
X187886102Y-127827881D01*
X187879893Y-127781420D01*
X187870774Y-127748256D01*
X187857917Y-127721944D01*
X187842416Y-127698729D01*
X187767629Y-127624569D01*
X187676372Y-127581684D01*
X187577117Y-127571412D01*
X187478336Y-127595089D01*
G37*
X187478336Y-127595089D02*
X187415633Y-127631358D01*
X187372039Y-127667358D01*
X187340155Y-127705075D01*
X187318190Y-127751199D01*
X187304351Y-127812421D01*
X187296847Y-127895431D01*
X187293883Y-128006919D01*
X187293539Y-128087062D01*
X187293539Y-128382065D01*
X187459615Y-128456515D01*
X187469385Y-128133402D01*
X187473421Y-128012729D01*
X187477656Y-127925141D01*
X187482903Y-127864650D01*
X187489975Y-127825268D01*
X187499689Y-127801007D01*
X187512856Y-127785880D01*
X187517081Y-127782606D01*
X187581091Y-127757034D01*
X187645792Y-127767153D01*
X187684308Y-127794000D01*
X187699975Y-127813024D01*
X187710820Y-127837988D01*
X187717712Y-127875834D01*
X187721521Y-127933502D01*
X187723117Y-128017935D01*
X187723385Y-128105928D01*
X187723437Y-128216323D01*
X187725328Y-128294463D01*
X187731655Y-128347165D01*
X187745017Y-128381242D01*
X187768015Y-128403511D01*
X187803246Y-128420787D01*
X187850303Y-128438738D01*
X187901697Y-128458278D01*
X187895579Y-128111485D01*
X187893116Y-127986468D01*
X187890233Y-127894082D01*
X187886102Y-127827881D01*
X187879893Y-127781420D01*
X187870774Y-127748256D01*
X187857917Y-127721944D01*
X187842416Y-127698729D01*
X187767629Y-127624569D01*
X187676372Y-127581684D01*
X187577117Y-127571412D01*
X187478336Y-127595089D01*
G36*
X189733114Y-127587256D02*
G01*
X189641536Y-127635409D01*
X189573951Y-127712905D01*
X189549943Y-127762727D01*
X189531262Y-127837533D01*
X189521699Y-127932052D01*
X189520792Y-128035210D01*
X189528079Y-128135935D01*
X189543097Y-128223153D01*
X189565385Y-128285791D01*
X189572235Y-128296579D01*
X189653368Y-128377105D01*
X189749734Y-128425336D01*
X189854299Y-128439450D01*
X189960032Y-128417629D01*
X189989457Y-128404547D01*
X190046759Y-128364231D01*
X190097050Y-128310775D01*
X190101803Y-128303995D01*
X190121122Y-128271321D01*
X190133892Y-128236394D01*
X190141436Y-128190414D01*
X190145076Y-128124584D01*
X190146135Y-128030105D01*
X190146154Y-128008923D01*
X190146106Y-128002182D01*
X189950769Y-128002182D01*
X189949632Y-128091349D01*
X189945159Y-128150520D01*
X189935754Y-128188741D01*
X189919824Y-128215053D01*
X189911692Y-128223846D01*
X189864942Y-128257261D01*
X189819553Y-128255737D01*
X189773660Y-128226752D01*
X189746288Y-128195809D01*
X189730077Y-128150643D01*
X189720974Y-128079420D01*
X189720349Y-128071114D01*
X189718796Y-127942037D01*
X189735035Y-127846172D01*
X189768848Y-127784107D01*
X189820016Y-127756432D01*
X189838280Y-127754923D01*
X189886240Y-127762513D01*
X189919047Y-127788808D01*
X189939105Y-127839095D01*
X189948822Y-127918664D01*
X189950769Y-128002182D01*
X190146106Y-128002182D01*
X190145426Y-127908249D01*
X190142371Y-127837906D01*
X190135678Y-127789163D01*
X190124040Y-127753288D01*
X190106147Y-127721548D01*
X190102192Y-127715648D01*
X190035733Y-127636104D01*
X189963315Y-127589929D01*
X189875151Y-127571599D01*
X189845213Y-127570703D01*
X189733114Y-127587256D01*
G37*
X189733114Y-127587256D02*
X189641536Y-127635409D01*
X189573951Y-127712905D01*
X189549943Y-127762727D01*
X189531262Y-127837533D01*
X189521699Y-127932052D01*
X189520792Y-128035210D01*
X189528079Y-128135935D01*
X189543097Y-128223153D01*
X189565385Y-128285791D01*
X189572235Y-128296579D01*
X189653368Y-128377105D01*
X189749734Y-128425336D01*
X189854299Y-128439450D01*
X189960032Y-128417629D01*
X189989457Y-128404547D01*
X190046759Y-128364231D01*
X190097050Y-128310775D01*
X190101803Y-128303995D01*
X190121122Y-128271321D01*
X190133892Y-128236394D01*
X190141436Y-128190414D01*
X190145076Y-128124584D01*
X190146135Y-128030105D01*
X190146154Y-128008923D01*
X190146106Y-128002182D01*
X189950769Y-128002182D01*
X189949632Y-128091349D01*
X189945159Y-128150520D01*
X189935754Y-128188741D01*
X189919824Y-128215053D01*
X189911692Y-128223846D01*
X189864942Y-128257261D01*
X189819553Y-128255737D01*
X189773660Y-128226752D01*
X189746288Y-128195809D01*
X189730077Y-128150643D01*
X189720974Y-128079420D01*
X189720349Y-128071114D01*
X189718796Y-127942037D01*
X189735035Y-127846172D01*
X189768848Y-127784107D01*
X189820016Y-127756432D01*
X189838280Y-127754923D01*
X189886240Y-127762513D01*
X189919047Y-127788808D01*
X189939105Y-127839095D01*
X189948822Y-127918664D01*
X189950769Y-128002182D01*
X190146106Y-128002182D01*
X190145426Y-127908249D01*
X190142371Y-127837906D01*
X190135678Y-127789163D01*
X190124040Y-127753288D01*
X190106147Y-127721548D01*
X190102192Y-127715648D01*
X190035733Y-127636104D01*
X189963315Y-127589929D01*
X189875151Y-127571599D01*
X189845213Y-127570703D01*
X189733114Y-127587256D01*
G36*
X188215746Y-127599745D02*
G01*
X188138714Y-127651567D01*
X188079184Y-127726412D01*
X188043622Y-127821654D01*
X188036429Y-127891756D01*
X188037246Y-127921009D01*
X188044086Y-127943407D01*
X188062888Y-127963474D01*
X188099592Y-127985733D01*
X188160138Y-128014709D01*
X188250466Y-128054927D01*
X188250923Y-128055129D01*
X188334067Y-128093210D01*
X188402247Y-128127025D01*
X188448495Y-128152933D01*
X188465842Y-128167295D01*
X188465846Y-128167411D01*
X188450557Y-128198685D01*
X188414804Y-128233157D01*
X188373758Y-128257990D01*
X188352963Y-128262923D01*
X188296230Y-128245862D01*
X188247373Y-128203133D01*
X188223535Y-128156155D01*
X188200603Y-128121522D01*
X188155682Y-128082081D01*
X188102877Y-128048009D01*
X188056290Y-128029480D01*
X188046548Y-128028462D01*
X188035582Y-128045215D01*
X188034921Y-128088039D01*
X188042980Y-128145781D01*
X188058173Y-128207289D01*
X188078914Y-128261409D01*
X188079962Y-128263510D01*
X188142379Y-128350660D01*
X188223274Y-128409939D01*
X188315144Y-128439034D01*
X188410487Y-128435634D01*
X188501802Y-128397428D01*
X188505862Y-128394741D01*
X188577694Y-128329642D01*
X188624927Y-128244705D01*
X188651066Y-128133021D01*
X188654574Y-128101643D01*
X188660787Y-127953536D01*
X188653339Y-127884468D01*
X188465846Y-127884468D01*
X188463410Y-127927552D01*
X188450086Y-127940126D01*
X188416868Y-127930719D01*
X188364506Y-127908483D01*
X188305976Y-127880610D01*
X188304521Y-127879872D01*
X188254911Y-127853777D01*
X188235000Y-127836363D01*
X188239910Y-127818107D01*
X188260584Y-127794120D01*
X188313181Y-127759406D01*
X188369823Y-127756856D01*
X188420631Y-127782119D01*
X188455724Y-127830847D01*
X188465846Y-127884468D01*
X188653339Y-127884468D01*
X188648008Y-127835036D01*
X188615222Y-127741055D01*
X188569579Y-127675215D01*
X188487198Y-127608681D01*
X188396454Y-127575676D01*
X188303815Y-127573573D01*
X188215746Y-127599745D01*
G37*
X188215746Y-127599745D02*
X188138714Y-127651567D01*
X188079184Y-127726412D01*
X188043622Y-127821654D01*
X188036429Y-127891756D01*
X188037246Y-127921009D01*
X188044086Y-127943407D01*
X188062888Y-127963474D01*
X188099592Y-127985733D01*
X188160138Y-128014709D01*
X188250466Y-128054927D01*
X188250923Y-128055129D01*
X188334067Y-128093210D01*
X188402247Y-128127025D01*
X188448495Y-128152933D01*
X188465842Y-128167295D01*
X188465846Y-128167411D01*
X188450557Y-128198685D01*
X188414804Y-128233157D01*
X188373758Y-128257990D01*
X188352963Y-128262923D01*
X188296230Y-128245862D01*
X188247373Y-128203133D01*
X188223535Y-128156155D01*
X188200603Y-128121522D01*
X188155682Y-128082081D01*
X188102877Y-128048009D01*
X188056290Y-128029480D01*
X188046548Y-128028462D01*
X188035582Y-128045215D01*
X188034921Y-128088039D01*
X188042980Y-128145781D01*
X188058173Y-128207289D01*
X188078914Y-128261409D01*
X188079962Y-128263510D01*
X188142379Y-128350660D01*
X188223274Y-128409939D01*
X188315144Y-128439034D01*
X188410487Y-128435634D01*
X188501802Y-128397428D01*
X188505862Y-128394741D01*
X188577694Y-128329642D01*
X188624927Y-128244705D01*
X188651066Y-128133021D01*
X188654574Y-128101643D01*
X188660787Y-127953536D01*
X188653339Y-127884468D01*
X188465846Y-127884468D01*
X188463410Y-127927552D01*
X188450086Y-127940126D01*
X188416868Y-127930719D01*
X188364506Y-127908483D01*
X188305976Y-127880610D01*
X188304521Y-127879872D01*
X188254911Y-127853777D01*
X188235000Y-127836363D01*
X188239910Y-127818107D01*
X188260584Y-127794120D01*
X188313181Y-127759406D01*
X188369823Y-127756856D01*
X188420631Y-127782119D01*
X188455724Y-127830847D01*
X188465846Y-127884468D01*
X188653339Y-127884468D01*
X188648008Y-127835036D01*
X188615222Y-127741055D01*
X188569579Y-127675215D01*
X188487198Y-127608681D01*
X188396454Y-127575676D01*
X188303815Y-127573573D01*
X188215746Y-127599745D01*
G36*
X186590154Y-127492120D02*
G01*
X186584428Y-127571980D01*
X186577851Y-127619039D01*
X186568738Y-127639566D01*
X186555402Y-127639829D01*
X186551077Y-127637378D01*
X186493556Y-127619636D01*
X186418732Y-127620672D01*
X186342661Y-127638910D01*
X186295082Y-127662505D01*
X186246298Y-127700198D01*
X186210636Y-127742855D01*
X186186155Y-127797057D01*
X186170913Y-127869384D01*
X186162970Y-127966419D01*
X186160384Y-128094742D01*
X186160338Y-128119358D01*
X186160308Y-128395870D01*
X186221839Y-128417320D01*
X186265541Y-128431912D01*
X186289518Y-128438706D01*
X186290223Y-128438769D01*
X186292585Y-128420345D01*
X186294594Y-128369526D01*
X186296099Y-128292993D01*
X186296947Y-128197430D01*
X186297077Y-128139329D01*
X186297349Y-128024771D01*
X186298748Y-127942667D01*
X186302151Y-127886393D01*
X186308433Y-127849326D01*
X186318471Y-127824844D01*
X186333139Y-127806325D01*
X186342298Y-127797406D01*
X186405211Y-127761466D01*
X186473864Y-127758775D01*
X186536152Y-127789170D01*
X186547671Y-127800144D01*
X186564567Y-127820779D01*
X186576286Y-127845256D01*
X186583767Y-127880647D01*
X186587946Y-127934026D01*
X186589763Y-128012466D01*
X186590154Y-128120617D01*
X186590154Y-128395870D01*
X186651685Y-128417320D01*
X186695387Y-128431912D01*
X186719364Y-128438706D01*
X186720070Y-128438769D01*
X186721874Y-128420069D01*
X186723500Y-128367322D01*
X186724883Y-128285557D01*
X186725958Y-128179805D01*
X186726660Y-128055094D01*
X186726923Y-127916455D01*
X186726923Y-127381806D01*
X186599923Y-127328236D01*
X186590154Y-127492120D01*
G37*
X186590154Y-127492120D02*
X186584428Y-127571980D01*
X186577851Y-127619039D01*
X186568738Y-127639566D01*
X186555402Y-127639829D01*
X186551077Y-127637378D01*
X186493556Y-127619636D01*
X186418732Y-127620672D01*
X186342661Y-127638910D01*
X186295082Y-127662505D01*
X186246298Y-127700198D01*
X186210636Y-127742855D01*
X186186155Y-127797057D01*
X186170913Y-127869384D01*
X186162970Y-127966419D01*
X186160384Y-128094742D01*
X186160338Y-128119358D01*
X186160308Y-128395870D01*
X186221839Y-128417320D01*
X186265541Y-128431912D01*
X186289518Y-128438706D01*
X186290223Y-128438769D01*
X186292585Y-128420345D01*
X186294594Y-128369526D01*
X186296099Y-128292993D01*
X186296947Y-128197430D01*
X186297077Y-128139329D01*
X186297349Y-128024771D01*
X186298748Y-127942667D01*
X186302151Y-127886393D01*
X186308433Y-127849326D01*
X186318471Y-127824844D01*
X186333139Y-127806325D01*
X186342298Y-127797406D01*
X186405211Y-127761466D01*
X186473864Y-127758775D01*
X186536152Y-127789170D01*
X186547671Y-127800144D01*
X186564567Y-127820779D01*
X186576286Y-127845256D01*
X186583767Y-127880647D01*
X186587946Y-127934026D01*
X186589763Y-128012466D01*
X186590154Y-128120617D01*
X186590154Y-128395870D01*
X186651685Y-128417320D01*
X186695387Y-128431912D01*
X186719364Y-128438706D01*
X186720070Y-128438769D01*
X186721874Y-128420069D01*
X186723500Y-128367322D01*
X186724883Y-128285557D01*
X186725958Y-128179805D01*
X186726660Y-128055094D01*
X186726923Y-127916455D01*
X186726923Y-127381806D01*
X186599923Y-127328236D01*
X186590154Y-127492120D01*
G36*
X185696499Y-127626303D02*
G01*
X185619940Y-127654733D01*
X185619064Y-127655279D01*
X185571715Y-127690127D01*
X185536759Y-127730852D01*
X185512175Y-127783925D01*
X185495938Y-127855814D01*
X185486025Y-127952992D01*
X185480414Y-128081928D01*
X185479923Y-128100298D01*
X185472859Y-128377287D01*
X185532305Y-128408028D01*
X185575319Y-128428802D01*
X185601290Y-128438646D01*
X185602491Y-128438769D01*
X185606986Y-128420606D01*
X185610556Y-128371612D01*
X185612752Y-128300031D01*
X185613231Y-128242068D01*
X185613242Y-128148170D01*
X185617534Y-128089203D01*
X185632497Y-128061079D01*
X185664518Y-128059706D01*
X185719986Y-128080998D01*
X185803731Y-128120136D01*
X185865311Y-128152643D01*
X185896983Y-128180845D01*
X185906294Y-128211582D01*
X185906308Y-128213104D01*
X185890943Y-128266054D01*
X185845453Y-128294660D01*
X185775834Y-128298803D01*
X185725687Y-128298084D01*
X185699246Y-128312527D01*
X185682757Y-128347218D01*
X185673267Y-128391416D01*
X185686943Y-128416493D01*
X185692093Y-128420082D01*
X185740575Y-128434496D01*
X185808469Y-128436537D01*
X185878388Y-128426983D01*
X185927932Y-128409522D01*
X185996430Y-128351364D01*
X186035366Y-128270408D01*
X186043077Y-128207160D01*
X186037193Y-128150111D01*
X186015899Y-128103542D01*
X185973735Y-128062181D01*
X185905241Y-128020755D01*
X185804956Y-127973993D01*
X185798846Y-127971350D01*
X185708510Y-127929617D01*
X185652765Y-127895391D01*
X185628871Y-127864635D01*
X185634087Y-127833311D01*
X185665672Y-127797383D01*
X185675117Y-127789116D01*
X185738383Y-127757058D01*
X185803936Y-127758407D01*
X185861028Y-127789838D01*
X185898907Y-127848024D01*
X185902426Y-127859446D01*
X185936700Y-127914837D01*
X185980191Y-127941518D01*
X186043077Y-127967960D01*
X186043077Y-127899548D01*
X186023948Y-127800110D01*
X185967169Y-127708902D01*
X185937622Y-127678389D01*
X185870458Y-127639228D01*
X185785044Y-127621500D01*
X185696499Y-127626303D01*
G37*
X185696499Y-127626303D02*
X185619940Y-127654733D01*
X185619064Y-127655279D01*
X185571715Y-127690127D01*
X185536759Y-127730852D01*
X185512175Y-127783925D01*
X185495938Y-127855814D01*
X185486025Y-127952992D01*
X185480414Y-128081928D01*
X185479923Y-128100298D01*
X185472859Y-128377287D01*
X185532305Y-128408028D01*
X185575319Y-128428802D01*
X185601290Y-128438646D01*
X185602491Y-128438769D01*
X185606986Y-128420606D01*
X185610556Y-128371612D01*
X185612752Y-128300031D01*
X185613231Y-128242068D01*
X185613242Y-128148170D01*
X185617534Y-128089203D01*
X185632497Y-128061079D01*
X185664518Y-128059706D01*
X185719986Y-128080998D01*
X185803731Y-128120136D01*
X185865311Y-128152643D01*
X185896983Y-128180845D01*
X185906294Y-128211582D01*
X185906308Y-128213104D01*
X185890943Y-128266054D01*
X185845453Y-128294660D01*
X185775834Y-128298803D01*
X185725687Y-128298084D01*
X185699246Y-128312527D01*
X185682757Y-128347218D01*
X185673267Y-128391416D01*
X185686943Y-128416493D01*
X185692093Y-128420082D01*
X185740575Y-128434496D01*
X185808469Y-128436537D01*
X185878388Y-128426983D01*
X185927932Y-128409522D01*
X185996430Y-128351364D01*
X186035366Y-128270408D01*
X186043077Y-128207160D01*
X186037193Y-128150111D01*
X186015899Y-128103542D01*
X185973735Y-128062181D01*
X185905241Y-128020755D01*
X185804956Y-127973993D01*
X185798846Y-127971350D01*
X185708510Y-127929617D01*
X185652765Y-127895391D01*
X185628871Y-127864635D01*
X185634087Y-127833311D01*
X185665672Y-127797383D01*
X185675117Y-127789116D01*
X185738383Y-127757058D01*
X185803936Y-127758407D01*
X185861028Y-127789838D01*
X185898907Y-127848024D01*
X185902426Y-127859446D01*
X185936700Y-127914837D01*
X185980191Y-127941518D01*
X186043077Y-127967960D01*
X186043077Y-127899548D01*
X186023948Y-127800110D01*
X185967169Y-127708902D01*
X185937622Y-127678389D01*
X185870458Y-127639228D01*
X185785044Y-127621500D01*
X185696499Y-127626303D01*
G36*
X185036638Y-127624670D02*
G01*
X184947883Y-127657421D01*
X184875978Y-127715350D01*
X184847856Y-127756128D01*
X184817198Y-127830954D01*
X184817835Y-127885058D01*
X184850013Y-127921446D01*
X184861919Y-127927633D01*
X184913325Y-127946925D01*
X184939578Y-127941982D01*
X184948470Y-127909587D01*
X184948923Y-127891692D01*
X184965203Y-127825859D01*
X185007635Y-127779807D01*
X185066612Y-127757564D01*
X185132525Y-127763161D01*
X185186105Y-127792229D01*
X185204202Y-127808810D01*
X185217029Y-127828925D01*
X185225694Y-127859332D01*
X185231304Y-127906788D01*
X185234965Y-127978050D01*
X185237785Y-128079875D01*
X185238516Y-128112115D01*
X185241180Y-128222410D01*
X185244208Y-128300036D01*
X185248750Y-128351396D01*
X185255954Y-128382890D01*
X185266967Y-128400920D01*
X185282940Y-128411888D01*
X185293166Y-128416733D01*
X185336594Y-128433301D01*
X185362158Y-128438769D01*
X185370605Y-128420507D01*
X185375761Y-128365296D01*
X185377654Y-128272499D01*
X185376311Y-128141478D01*
X185375893Y-128121269D01*
X185372942Y-128001733D01*
X185369452Y-127914449D01*
X185364486Y-127852591D01*
X185357107Y-127809336D01*
X185346376Y-127777860D01*
X185331355Y-127751339D01*
X185323498Y-127739975D01*
X185278447Y-127689692D01*
X185228060Y-127650581D01*
X185221892Y-127647167D01*
X185131542Y-127620212D01*
X185036638Y-127624670D01*
G37*
X185036638Y-127624670D02*
X184947883Y-127657421D01*
X184875978Y-127715350D01*
X184847856Y-127756128D01*
X184817198Y-127830954D01*
X184817835Y-127885058D01*
X184850013Y-127921446D01*
X184861919Y-127927633D01*
X184913325Y-127946925D01*
X184939578Y-127941982D01*
X184948470Y-127909587D01*
X184948923Y-127891692D01*
X184965203Y-127825859D01*
X185007635Y-127779807D01*
X185066612Y-127757564D01*
X185132525Y-127763161D01*
X185186105Y-127792229D01*
X185204202Y-127808810D01*
X185217029Y-127828925D01*
X185225694Y-127859332D01*
X185231304Y-127906788D01*
X185234965Y-127978050D01*
X185237785Y-128079875D01*
X185238516Y-128112115D01*
X185241180Y-128222410D01*
X185244208Y-128300036D01*
X185248750Y-128351396D01*
X185255954Y-128382890D01*
X185266967Y-128400920D01*
X185282940Y-128411888D01*
X185293166Y-128416733D01*
X185336594Y-128433301D01*
X185362158Y-128438769D01*
X185370605Y-128420507D01*
X185375761Y-128365296D01*
X185377654Y-128272499D01*
X185376311Y-128141478D01*
X185375893Y-128121269D01*
X185372942Y-128001733D01*
X185369452Y-127914449D01*
X185364486Y-127852591D01*
X185357107Y-127809336D01*
X185346376Y-127777860D01*
X185331355Y-127751339D01*
X185323498Y-127739975D01*
X185278447Y-127689692D01*
X185228060Y-127650581D01*
X185221892Y-127647167D01*
X185131542Y-127620212D01*
X185036638Y-127624670D01*
G36*
X184147919Y-127780289D02*
G01*
X184148167Y-127926320D01*
X184149128Y-128038655D01*
X184151206Y-128122678D01*
X184154807Y-128183769D01*
X184160335Y-128227309D01*
X184168196Y-128258679D01*
X184178793Y-128283262D01*
X184186818Y-128297294D01*
X184253272Y-128373388D01*
X184337530Y-128421084D01*
X184430751Y-128438199D01*
X184524100Y-128422546D01*
X184579688Y-128394418D01*
X184638043Y-128345760D01*
X184677814Y-128286333D01*
X184701810Y-128208507D01*
X184712839Y-128104652D01*
X184714401Y-128028462D01*
X184714191Y-128022986D01*
X184577692Y-128022986D01*
X184576859Y-128110355D01*
X184573039Y-128168192D01*
X184564254Y-128206029D01*
X184548526Y-128233398D01*
X184529734Y-128254042D01*
X184466625Y-128293890D01*
X184398863Y-128297295D01*
X184334821Y-128264025D01*
X184329836Y-128259517D01*
X184308561Y-128236067D01*
X184295221Y-128208166D01*
X184287999Y-128166641D01*
X184285077Y-128102316D01*
X184284615Y-128031200D01*
X184285617Y-127941858D01*
X184289762Y-127882258D01*
X184298764Y-127843089D01*
X184314333Y-127815040D01*
X184327098Y-127800144D01*
X184386400Y-127762575D01*
X184454699Y-127758057D01*
X184519890Y-127786753D01*
X184532472Y-127797406D01*
X184553889Y-127821063D01*
X184567256Y-127849251D01*
X184574434Y-127891245D01*
X184577281Y-127956319D01*
X184577692Y-128022986D01*
X184714191Y-128022986D01*
X184709678Y-127905765D01*
X184693638Y-127813577D01*
X184663472Y-127744269D01*
X184616371Y-127690211D01*
X184579688Y-127662505D01*
X184513010Y-127632572D01*
X184435728Y-127618678D01*
X184363890Y-127622397D01*
X184323692Y-127637400D01*
X184307918Y-127641670D01*
X184297450Y-127625750D01*
X184290144Y-127583089D01*
X184284615Y-127518106D01*
X184278563Y-127445732D01*
X184270156Y-127402187D01*
X184254859Y-127377287D01*
X184228136Y-127360845D01*
X184211346Y-127353564D01*
X184147846Y-127326963D01*
X184147919Y-127780289D01*
G37*
X184147919Y-127780289D02*
X184148167Y-127926320D01*
X184149128Y-128038655D01*
X184151206Y-128122678D01*
X184154807Y-128183769D01*
X184160335Y-128227309D01*
X184168196Y-128258679D01*
X184178793Y-128283262D01*
X184186818Y-128297294D01*
X184253272Y-128373388D01*
X184337530Y-128421084D01*
X184430751Y-128438199D01*
X184524100Y-128422546D01*
X184579688Y-128394418D01*
X184638043Y-128345760D01*
X184677814Y-128286333D01*
X184701810Y-128208507D01*
X184712839Y-128104652D01*
X184714401Y-128028462D01*
X184714191Y-128022986D01*
X184577692Y-128022986D01*
X184576859Y-128110355D01*
X184573039Y-128168192D01*
X184564254Y-128206029D01*
X184548526Y-128233398D01*
X184529734Y-128254042D01*
X184466625Y-128293890D01*
X184398863Y-128297295D01*
X184334821Y-128264025D01*
X184329836Y-128259517D01*
X184308561Y-128236067D01*
X184295221Y-128208166D01*
X184287999Y-128166641D01*
X184285077Y-128102316D01*
X184284615Y-128031200D01*
X184285617Y-127941858D01*
X184289762Y-127882258D01*
X184298764Y-127843089D01*
X184314333Y-127815040D01*
X184327098Y-127800144D01*
X184386400Y-127762575D01*
X184454699Y-127758057D01*
X184519890Y-127786753D01*
X184532472Y-127797406D01*
X184553889Y-127821063D01*
X184567256Y-127849251D01*
X184574434Y-127891245D01*
X184577281Y-127956319D01*
X184577692Y-128022986D01*
X184714191Y-128022986D01*
X184709678Y-127905765D01*
X184693638Y-127813577D01*
X184663472Y-127744269D01*
X184616371Y-127690211D01*
X184579688Y-127662505D01*
X184513010Y-127632572D01*
X184435728Y-127618678D01*
X184363890Y-127622397D01*
X184323692Y-127637400D01*
X184307918Y-127641670D01*
X184297450Y-127625750D01*
X184290144Y-127583089D01*
X184284615Y-127518106D01*
X184278563Y-127445732D01*
X184270156Y-127402187D01*
X184254859Y-127377287D01*
X184228136Y-127360845D01*
X184211346Y-127353564D01*
X184147846Y-127326963D01*
X184147919Y-127780289D01*
G36*
X183354071Y-127636662D02*
G01*
X183351089Y-127688068D01*
X183348753Y-127766192D01*
X183347251Y-127864857D01*
X183346769Y-127968343D01*
X183346769Y-128318533D01*
X183408599Y-128380363D01*
X183451207Y-128418462D01*
X183488610Y-128433895D01*
X183539730Y-128432918D01*
X183560022Y-128430433D01*
X183623446Y-128423200D01*
X183675905Y-128419055D01*
X183688692Y-128418672D01*
X183731801Y-128421176D01*
X183793456Y-128427462D01*
X183817362Y-128430433D01*
X183876078Y-128435028D01*
X183915536Y-128425046D01*
X183954662Y-128394228D01*
X183968785Y-128380363D01*
X184030615Y-128318533D01*
X184030615Y-127663503D01*
X183980850Y-127640829D01*
X183937998Y-127624034D01*
X183912927Y-127618154D01*
X183906499Y-127636736D01*
X183900491Y-127688655D01*
X183895303Y-127768172D01*
X183891336Y-127869546D01*
X183889423Y-127955192D01*
X183884077Y-128292231D01*
X183837440Y-128298825D01*
X183795024Y-128294214D01*
X183774240Y-128279287D01*
X183768430Y-128251377D01*
X183763470Y-128191925D01*
X183759754Y-128108466D01*
X183757676Y-128008532D01*
X183757376Y-127957104D01*
X183757077Y-127661054D01*
X183695546Y-127639604D01*
X183651996Y-127625020D01*
X183628306Y-127618219D01*
X183627623Y-127618154D01*
X183625246Y-127636642D01*
X183622634Y-127687906D01*
X183620005Y-127765649D01*
X183617579Y-127863574D01*
X183615885Y-127955192D01*
X183610539Y-128292231D01*
X183493308Y-128292231D01*
X183487928Y-127984746D01*
X183482549Y-127677261D01*
X183425399Y-127647707D01*
X183383203Y-127627413D01*
X183358230Y-127618204D01*
X183357509Y-127618154D01*
X183354071Y-127636662D01*
G37*
X183354071Y-127636662D02*
X183351089Y-127688068D01*
X183348753Y-127766192D01*
X183347251Y-127864857D01*
X183346769Y-127968343D01*
X183346769Y-128318533D01*
X183408599Y-128380363D01*
X183451207Y-128418462D01*
X183488610Y-128433895D01*
X183539730Y-128432918D01*
X183560022Y-128430433D01*
X183623446Y-128423200D01*
X183675905Y-128419055D01*
X183688692Y-128418672D01*
X183731801Y-128421176D01*
X183793456Y-128427462D01*
X183817362Y-128430433D01*
X183876078Y-128435028D01*
X183915536Y-128425046D01*
X183954662Y-128394228D01*
X183968785Y-128380363D01*
X184030615Y-128318533D01*
X184030615Y-127663503D01*
X183980850Y-127640829D01*
X183937998Y-127624034D01*
X183912927Y-127618154D01*
X183906499Y-127636736D01*
X183900491Y-127688655D01*
X183895303Y-127768172D01*
X183891336Y-127869546D01*
X183889423Y-127955192D01*
X183884077Y-128292231D01*
X183837440Y-128298825D01*
X183795024Y-128294214D01*
X183774240Y-128279287D01*
X183768430Y-128251377D01*
X183763470Y-128191925D01*
X183759754Y-128108466D01*
X183757676Y-128008532D01*
X183757376Y-127957104D01*
X183757077Y-127661054D01*
X183695546Y-127639604D01*
X183651996Y-127625020D01*
X183628306Y-127618219D01*
X183627623Y-127618154D01*
X183625246Y-127636642D01*
X183622634Y-127687906D01*
X183620005Y-127765649D01*
X183617579Y-127863574D01*
X183615885Y-127955192D01*
X183610539Y-128292231D01*
X183493308Y-128292231D01*
X183487928Y-127984746D01*
X183482549Y-127677261D01*
X183425399Y-127647707D01*
X183383203Y-127627413D01*
X183358230Y-127618204D01*
X183357509Y-127618154D01*
X183354071Y-127636662D01*
G36*
X182862667Y-127633528D02*
G01*
X182806410Y-127659117D01*
X182762253Y-127690124D01*
X182729899Y-127724795D01*
X182707562Y-127769520D01*
X182693454Y-127830692D01*
X182685789Y-127914701D01*
X182682780Y-128027940D01*
X182682462Y-128102509D01*
X182682462Y-128393420D01*
X182732227Y-128416095D01*
X182771424Y-128432667D01*
X182790843Y-128438769D01*
X182794558Y-128420610D01*
X182797505Y-128371648D01*
X182799309Y-128300153D01*
X182799692Y-128243385D01*
X182801339Y-128161371D01*
X182805778Y-128096309D01*
X182812260Y-128056467D01*
X182817410Y-128048000D01*
X182852023Y-128056646D01*
X182906360Y-128078823D01*
X182969278Y-128108886D01*
X183029632Y-128141192D01*
X183076279Y-128170098D01*
X183098074Y-128189961D01*
X183098161Y-128190175D01*
X183096286Y-128226935D01*
X183079475Y-128262026D01*
X183049961Y-128290528D01*
X183006884Y-128300061D01*
X182970068Y-128298950D01*
X182917926Y-128298133D01*
X182890556Y-128310349D01*
X182874118Y-128342624D01*
X182872045Y-128348710D01*
X182864919Y-128394739D01*
X182883976Y-128422687D01*
X182933647Y-128436007D01*
X182987303Y-128438470D01*
X183083858Y-128420210D01*
X183133841Y-128394131D01*
X183195571Y-128332868D01*
X183228310Y-128257670D01*
X183231247Y-128178211D01*
X183203576Y-128104167D01*
X183161953Y-128057769D01*
X183120396Y-128031793D01*
X183055078Y-127998907D01*
X182978962Y-127965557D01*
X182966274Y-127960461D01*
X182882667Y-127923565D01*
X182834470Y-127891046D01*
X182818970Y-127858718D01*
X182833450Y-127822394D01*
X182858308Y-127794000D01*
X182917061Y-127759039D01*
X182981707Y-127756417D01*
X183040992Y-127783358D01*
X183083661Y-127837088D01*
X183089261Y-127850950D01*
X183121867Y-127901936D01*
X183169470Y-127939787D01*
X183229539Y-127970850D01*
X183229539Y-127882768D01*
X183226003Y-127828951D01*
X183210844Y-127786534D01*
X183177232Y-127741279D01*
X183144965Y-127706420D01*
X183094791Y-127657062D01*
X183055807Y-127630547D01*
X183013936Y-127619911D01*
X182966540Y-127618154D01*
X182862667Y-127633528D01*
G37*
X182862667Y-127633528D02*
X182806410Y-127659117D01*
X182762253Y-127690124D01*
X182729899Y-127724795D01*
X182707562Y-127769520D01*
X182693454Y-127830692D01*
X182685789Y-127914701D01*
X182682780Y-128027940D01*
X182682462Y-128102509D01*
X182682462Y-128393420D01*
X182732227Y-128416095D01*
X182771424Y-128432667D01*
X182790843Y-128438769D01*
X182794558Y-128420610D01*
X182797505Y-128371648D01*
X182799309Y-128300153D01*
X182799692Y-128243385D01*
X182801339Y-128161371D01*
X182805778Y-128096309D01*
X182812260Y-128056467D01*
X182817410Y-128048000D01*
X182852023Y-128056646D01*
X182906360Y-128078823D01*
X182969278Y-128108886D01*
X183029632Y-128141192D01*
X183076279Y-128170098D01*
X183098074Y-128189961D01*
X183098161Y-128190175D01*
X183096286Y-128226935D01*
X183079475Y-128262026D01*
X183049961Y-128290528D01*
X183006884Y-128300061D01*
X182970068Y-128298950D01*
X182917926Y-128298133D01*
X182890556Y-128310349D01*
X182874118Y-128342624D01*
X182872045Y-128348710D01*
X182864919Y-128394739D01*
X182883976Y-128422687D01*
X182933647Y-128436007D01*
X182987303Y-128438470D01*
X183083858Y-128420210D01*
X183133841Y-128394131D01*
X183195571Y-128332868D01*
X183228310Y-128257670D01*
X183231247Y-128178211D01*
X183203576Y-128104167D01*
X183161953Y-128057769D01*
X183120396Y-128031793D01*
X183055078Y-127998907D01*
X182978962Y-127965557D01*
X182966274Y-127960461D01*
X182882667Y-127923565D01*
X182834470Y-127891046D01*
X182818970Y-127858718D01*
X182833450Y-127822394D01*
X182858308Y-127794000D01*
X182917061Y-127759039D01*
X182981707Y-127756417D01*
X183040992Y-127783358D01*
X183083661Y-127837088D01*
X183089261Y-127850950D01*
X183121867Y-127901936D01*
X183169470Y-127939787D01*
X183229539Y-127970850D01*
X183229539Y-127882768D01*
X183226003Y-127828951D01*
X183210844Y-127786534D01*
X183177232Y-127741279D01*
X183144965Y-127706420D01*
X183094791Y-127657062D01*
X183055807Y-127630547D01*
X183013936Y-127619911D01*
X182966540Y-127618154D01*
X182862667Y-127633528D01*
G36*
X182179193Y-127636782D02*
G01*
X182155839Y-127646988D01*
X182100098Y-127691134D01*
X182052431Y-127754967D01*
X182022952Y-127823087D01*
X182018154Y-127856670D01*
X182034240Y-127903556D01*
X182069525Y-127928365D01*
X182107356Y-127943387D01*
X182124679Y-127946155D01*
X182133114Y-127926066D01*
X182149770Y-127882351D01*
X182157077Y-127862598D01*
X182198052Y-127794271D01*
X182257378Y-127760191D01*
X182333448Y-127761239D01*
X182339082Y-127762581D01*
X182379695Y-127781836D01*
X182409552Y-127819375D01*
X182429945Y-127879809D01*
X182442164Y-127967751D01*
X182447500Y-128087813D01*
X182448000Y-128151698D01*
X182448248Y-128252403D01*
X182449874Y-128321054D01*
X182454199Y-128364673D01*
X182462546Y-128390282D01*
X182476235Y-128404903D01*
X182496589Y-128415558D01*
X182497766Y-128416095D01*
X182536962Y-128432667D01*
X182556381Y-128438769D01*
X182559365Y-128420319D01*
X182561919Y-128369323D01*
X182563860Y-128292308D01*
X182565003Y-128195805D01*
X182565231Y-128125184D01*
X182564068Y-127988525D01*
X182559521Y-127884851D01*
X182550001Y-127808108D01*
X182533919Y-127752246D01*
X182509687Y-127711212D01*
X182475714Y-127678954D01*
X182442167Y-127656440D01*
X182361501Y-127626476D01*
X182267619Y-127619718D01*
X182179193Y-127636782D01*
G37*
X182179193Y-127636782D02*
X182155839Y-127646988D01*
X182100098Y-127691134D01*
X182052431Y-127754967D01*
X182022952Y-127823087D01*
X182018154Y-127856670D01*
X182034240Y-127903556D01*
X182069525Y-127928365D01*
X182107356Y-127943387D01*
X182124679Y-127946155D01*
X182133114Y-127926066D01*
X182149770Y-127882351D01*
X182157077Y-127862598D01*
X182198052Y-127794271D01*
X182257378Y-127760191D01*
X182333448Y-127761239D01*
X182339082Y-127762581D01*
X182379695Y-127781836D01*
X182409552Y-127819375D01*
X182429945Y-127879809D01*
X182442164Y-127967751D01*
X182447500Y-128087813D01*
X182448000Y-128151698D01*
X182448248Y-128252403D01*
X182449874Y-128321054D01*
X182454199Y-128364673D01*
X182462546Y-128390282D01*
X182476235Y-128404903D01*
X182496589Y-128415558D01*
X182497766Y-128416095D01*
X182536962Y-128432667D01*
X182556381Y-128438769D01*
X182559365Y-128420319D01*
X182561919Y-128369323D01*
X182563860Y-128292308D01*
X182565003Y-128195805D01*
X182565231Y-128125184D01*
X182564068Y-127988525D01*
X182559521Y-127884851D01*
X182550001Y-127808108D01*
X182533919Y-127752246D01*
X182509687Y-127711212D01*
X182475714Y-127678954D01*
X182442167Y-127656440D01*
X182361501Y-127626476D01*
X182267619Y-127619718D01*
X182179193Y-127636782D01*
G36*
X181504776Y-127647838D02*
G01*
X181427472Y-127698361D01*
X181390186Y-127743590D01*
X181360647Y-127825663D01*
X181358301Y-127890607D01*
X181363615Y-127977445D01*
X181563885Y-128065103D01*
X181661261Y-128109887D01*
X181724887Y-128145913D01*
X181757971Y-128177117D01*
X181763720Y-128207436D01*
X181745342Y-128240805D01*
X181725077Y-128262923D01*
X181666111Y-128298393D01*
X181601976Y-128300879D01*
X181543074Y-128273235D01*
X181499803Y-128218320D01*
X181492064Y-128198928D01*
X181454994Y-128138364D01*
X181412346Y-128112552D01*
X181353846Y-128090471D01*
X181353846Y-128174184D01*
X181359018Y-128231150D01*
X181379277Y-128279189D01*
X181421738Y-128334346D01*
X181428049Y-128341514D01*
X181475280Y-128390585D01*
X181515879Y-128416920D01*
X181566672Y-128429035D01*
X181608780Y-128433003D01*
X181684098Y-128433991D01*
X181737714Y-128421466D01*
X181771162Y-128402869D01*
X181823732Y-128361975D01*
X181860121Y-128317748D01*
X181883150Y-128262126D01*
X181895641Y-128187047D01*
X181900413Y-128084449D01*
X181900794Y-128032376D01*
X181899499Y-127969948D01*
X181781529Y-127969948D01*
X181780161Y-128003438D01*
X181776751Y-128008923D01*
X181754247Y-128001472D01*
X181705818Y-127981753D01*
X181641092Y-127953718D01*
X181627557Y-127947692D01*
X181545756Y-127906096D01*
X181500688Y-127869538D01*
X181490783Y-127835296D01*
X181514474Y-127800648D01*
X181534040Y-127785339D01*
X181604640Y-127754721D01*
X181670720Y-127759780D01*
X181726041Y-127797151D01*
X181764364Y-127863473D01*
X181776651Y-127916116D01*
X181781529Y-127969948D01*
X181899499Y-127969948D01*
X181898270Y-127910720D01*
X181888968Y-127820710D01*
X181870540Y-127755167D01*
X181840640Y-127706912D01*
X181796920Y-127668767D01*
X181777859Y-127656440D01*
X181691274Y-127624336D01*
X181596478Y-127622316D01*
X181504776Y-127647838D01*
G37*
X181504776Y-127647838D02*
X181427472Y-127698361D01*
X181390186Y-127743590D01*
X181360647Y-127825663D01*
X181358301Y-127890607D01*
X181363615Y-127977445D01*
X181563885Y-128065103D01*
X181661261Y-128109887D01*
X181724887Y-128145913D01*
X181757971Y-128177117D01*
X181763720Y-128207436D01*
X181745342Y-128240805D01*
X181725077Y-128262923D01*
X181666111Y-128298393D01*
X181601976Y-128300879D01*
X181543074Y-128273235D01*
X181499803Y-128218320D01*
X181492064Y-128198928D01*
X181454994Y-128138364D01*
X181412346Y-128112552D01*
X181353846Y-128090471D01*
X181353846Y-128174184D01*
X181359018Y-128231150D01*
X181379277Y-128279189D01*
X181421738Y-128334346D01*
X181428049Y-128341514D01*
X181475280Y-128390585D01*
X181515879Y-128416920D01*
X181566672Y-128429035D01*
X181608780Y-128433003D01*
X181684098Y-128433991D01*
X181737714Y-128421466D01*
X181771162Y-128402869D01*
X181823732Y-128361975D01*
X181860121Y-128317748D01*
X181883150Y-128262126D01*
X181895641Y-128187047D01*
X181900413Y-128084449D01*
X181900794Y-128032376D01*
X181899499Y-127969948D01*
X181781529Y-127969948D01*
X181780161Y-128003438D01*
X181776751Y-128008923D01*
X181754247Y-128001472D01*
X181705818Y-127981753D01*
X181641092Y-127953718D01*
X181627557Y-127947692D01*
X181545756Y-127906096D01*
X181500688Y-127869538D01*
X181490783Y-127835296D01*
X181514474Y-127800648D01*
X181534040Y-127785339D01*
X181604640Y-127754721D01*
X181670720Y-127759780D01*
X181726041Y-127797151D01*
X181764364Y-127863473D01*
X181776651Y-127916116D01*
X181781529Y-127969948D01*
X181899499Y-127969948D01*
X181898270Y-127910720D01*
X181888968Y-127820710D01*
X181870540Y-127755167D01*
X181840640Y-127706912D01*
X181796920Y-127668767D01*
X181777859Y-127656440D01*
X181691274Y-127624336D01*
X181596478Y-127622316D01*
X181504776Y-127647838D01*
G36*
X185610122Y-121287776D02*
G01*
X185504388Y-121288355D01*
X185427868Y-121289922D01*
X185375628Y-121292972D01*
X185342737Y-121297996D01*
X185324263Y-121305489D01*
X185315273Y-121315944D01*
X185310837Y-121329853D01*
X185310406Y-121331654D01*
X185303667Y-121364145D01*
X185291192Y-121428252D01*
X185274281Y-121517151D01*
X185254229Y-121624019D01*
X185232336Y-121742033D01*
X185231571Y-121746178D01*
X185209641Y-121861831D01*
X185189123Y-121964014D01*
X185171341Y-122046598D01*
X185157619Y-122103456D01*
X185149282Y-122128458D01*
X185148884Y-122128901D01*
X185124323Y-122141110D01*
X185073685Y-122161456D01*
X185007905Y-122185545D01*
X185007539Y-122185674D01*
X184924683Y-122216818D01*
X184827000Y-122256491D01*
X184734923Y-122296381D01*
X184730566Y-122298353D01*
X184580593Y-122366420D01*
X184248502Y-122139639D01*
X184146626Y-122070504D01*
X184054343Y-122008697D01*
X183976997Y-121957733D01*
X183919936Y-121921127D01*
X183888505Y-121902394D01*
X183885521Y-121901004D01*
X183862679Y-121907190D01*
X183820018Y-121937035D01*
X183755872Y-121991947D01*
X183668579Y-122073334D01*
X183579465Y-122159922D01*
X183493559Y-122245247D01*
X183416673Y-122323108D01*
X183353436Y-122388697D01*
X183308477Y-122437205D01*
X183286424Y-122463825D01*
X183285604Y-122465195D01*
X183283166Y-122483463D01*
X183292350Y-122513295D01*
X183315426Y-122558721D01*
X183354663Y-122623770D01*
X183412330Y-122712470D01*
X183489205Y-122826657D01*
X183557430Y-122927162D01*
X183618418Y-123017303D01*
X183668644Y-123091849D01*
X183704584Y-123145565D01*
X183722713Y-123173218D01*
X183723854Y-123175095D01*
X183721641Y-123201590D01*
X183704862Y-123253086D01*
X183676858Y-123319851D01*
X183666878Y-123341172D01*
X183623328Y-123436159D01*
X183576866Y-123543937D01*
X183539123Y-123637192D01*
X183511927Y-123706406D01*
X183490325Y-123759006D01*
X183477842Y-123786497D01*
X183476291Y-123788616D01*
X183453332Y-123792124D01*
X183399214Y-123801738D01*
X183321132Y-123816089D01*
X183226281Y-123833807D01*
X183121857Y-123853525D01*
X183015056Y-123873874D01*
X182913074Y-123893486D01*
X182823106Y-123910991D01*
X182752347Y-123925022D01*
X182707994Y-123934209D01*
X182697115Y-123936807D01*
X182685878Y-123943218D01*
X182677395Y-123957697D01*
X182671286Y-123985133D01*
X182667168Y-124030411D01*
X182664659Y-124098420D01*
X182663379Y-124194047D01*
X182662946Y-124322180D01*
X182662923Y-124374701D01*
X182662923Y-124801845D01*
X182765500Y-124822091D01*
X182822569Y-124833070D01*
X182907731Y-124849095D01*
X183010628Y-124868233D01*
X183120904Y-124888551D01*
X183151385Y-124894132D01*
X183253145Y-124913917D01*
X183341795Y-124933373D01*
X183409892Y-124950697D01*
X183449996Y-124964088D01*
X183456677Y-124968079D01*
X183473081Y-124996342D01*
X183496601Y-125051109D01*
X183522684Y-125121588D01*
X183527858Y-125136769D01*
X183562044Y-125230896D01*
X183604477Y-125337101D01*
X183646003Y-125432473D01*
X183646208Y-125432916D01*
X183715360Y-125582525D01*
X183260488Y-126251617D01*
X183552500Y-126544116D01*
X183640820Y-126631170D01*
X183721375Y-126707909D01*
X183789640Y-126770237D01*
X183841092Y-126814056D01*
X183871206Y-126835270D01*
X183875526Y-126836616D01*
X183900889Y-126826016D01*
X183952642Y-126796547D01*
X184025132Y-126751705D01*
X184112706Y-126694984D01*
X184207388Y-126631462D01*
X184303484Y-126566668D01*
X184389163Y-126510287D01*
X184458984Y-126465788D01*
X184507506Y-126436639D01*
X184529218Y-126426308D01*
X184555707Y-126435050D01*
X184605938Y-126458087D01*
X184669549Y-126490631D01*
X184676292Y-126494249D01*
X184761954Y-126537210D01*
X184820694Y-126558279D01*
X184857228Y-126558503D01*
X184876269Y-126538928D01*
X184876380Y-126538654D01*
X184885898Y-126515472D01*
X184908597Y-126460441D01*
X184942718Y-126377822D01*
X184986500Y-126271872D01*
X185038184Y-126146852D01*
X185096008Y-126007020D01*
X185152009Y-125871637D01*
X185213553Y-125722234D01*
X185270061Y-125583832D01*
X185319839Y-125460673D01*
X185361194Y-125357002D01*
X185392432Y-125277059D01*
X185411859Y-125225088D01*
X185417846Y-125205692D01*
X185402832Y-125183443D01*
X185363561Y-125147982D01*
X185311193Y-125108887D01*
X185162059Y-124985245D01*
X185045489Y-124843522D01*
X184962882Y-124686704D01*
X184915634Y-124517775D01*
X184905143Y-124339722D01*
X184912769Y-124257539D01*
X184954318Y-124087031D01*
X185025877Y-123936459D01*
X185123005Y-123807309D01*
X185241266Y-123701064D01*
X185376220Y-123619210D01*
X185523429Y-123563232D01*
X185678456Y-123534615D01*
X185836861Y-123534844D01*
X185994206Y-123565405D01*
X186146054Y-123627782D01*
X186287965Y-123723460D01*
X186347197Y-123777572D01*
X186460797Y-123916520D01*
X186539894Y-124068361D01*
X186585014Y-124228667D01*
X186596684Y-124393012D01*
X186575431Y-124556971D01*
X186521780Y-124716118D01*
X186436260Y-124866025D01*
X186319395Y-125002267D01*
X186188807Y-125108887D01*
X186134412Y-125149642D01*
X186095986Y-125184718D01*
X186082154Y-125205726D01*
X186089397Y-125228635D01*
X186109995Y-125283365D01*
X186142254Y-125365672D01*
X186184479Y-125471315D01*
X186234977Y-125596050D01*
X186292052Y-125735636D01*
X186348146Y-125871670D01*
X186410033Y-126021201D01*
X186467356Y-126159767D01*
X186518356Y-126283107D01*
X186561273Y-126386964D01*
X186594347Y-126467080D01*
X186615819Y-126519195D01*
X186623775Y-126538654D01*
X186642571Y-126558423D01*
X186678926Y-126558365D01*
X186737521Y-126537441D01*
X186823032Y-126494613D01*
X186823708Y-126494249D01*
X186888093Y-126461012D01*
X186940139Y-126436802D01*
X186969488Y-126426404D01*
X186970783Y-126426308D01*
X186992876Y-126436855D01*
X187041652Y-126466184D01*
X187111669Y-126510827D01*
X187197486Y-126567314D01*
X187292612Y-126631462D01*
X187389460Y-126696411D01*
X187476747Y-126752896D01*
X187548819Y-126797421D01*
X187600023Y-126826490D01*
X187624474Y-126836616D01*
X187646990Y-126823307D01*
X187692258Y-126786112D01*
X187755756Y-126729128D01*
X187832961Y-126656449D01*
X187919349Y-126572171D01*
X187947601Y-126544016D01*
X188239713Y-126251416D01*
X188017369Y-125925104D01*
X187949798Y-125824897D01*
X187890493Y-125734963D01*
X187842783Y-125660510D01*
X187809993Y-125606751D01*
X187795452Y-125578894D01*
X187795026Y-125576912D01*
X187802692Y-125550655D01*
X187823311Y-125497837D01*
X187853315Y-125427310D01*
X187874375Y-125380093D01*
X187913752Y-125289694D01*
X187950835Y-125198366D01*
X187979585Y-125121200D01*
X187987395Y-125097692D01*
X188009583Y-125034916D01*
X188031273Y-124986411D01*
X188043187Y-124968079D01*
X188069477Y-124956859D01*
X188126858Y-124940954D01*
X188207882Y-124922167D01*
X188305105Y-124902299D01*
X188348615Y-124894132D01*
X188459104Y-124873829D01*
X188565084Y-124854170D01*
X188656199Y-124837088D01*
X188722092Y-124824518D01*
X188734500Y-124822091D01*
X188837077Y-124801845D01*
X188837077Y-124374701D01*
X188836847Y-124234246D01*
X188835901Y-124127979D01*
X188833859Y-124051013D01*
X188830338Y-123998460D01*
X188824957Y-123965433D01*
X188817334Y-123947045D01*
X188807088Y-123938408D01*
X188802885Y-123936807D01*
X188777530Y-123931127D01*
X188721516Y-123919795D01*
X188642036Y-123904179D01*
X188546288Y-123885647D01*
X188441467Y-123865569D01*
X188334768Y-123845312D01*
X188233387Y-123826246D01*
X188144521Y-123809739D01*
X188075363Y-123797159D01*
X188033111Y-123789875D01*
X188023710Y-123788616D01*
X188015193Y-123771763D01*
X187996340Y-123726870D01*
X187970676Y-123662430D01*
X187960877Y-123637192D01*
X187921352Y-123539686D01*
X187874808Y-123431959D01*
X187833123Y-123341172D01*
X187802450Y-123271753D01*
X187782044Y-123214710D01*
X187775232Y-123179777D01*
X187776318Y-123175095D01*
X187790715Y-123152991D01*
X187823588Y-123103831D01*
X187871410Y-123032848D01*
X187930652Y-122945278D01*
X187997785Y-122846357D01*
X188011059Y-122826830D01*
X188088954Y-122711140D01*
X188146213Y-122623044D01*
X188185119Y-122558486D01*
X188207956Y-122513411D01*
X188217006Y-122483763D01*
X188214552Y-122465485D01*
X188214489Y-122465369D01*
X188195173Y-122441361D01*
X188152449Y-122394947D01*
X188090949Y-122330937D01*
X188015302Y-122254145D01*
X187930139Y-122169382D01*
X187920535Y-122159922D01*
X187813210Y-122055989D01*
X187730385Y-121979675D01*
X187670395Y-121929571D01*
X187631577Y-121904270D01*
X187614480Y-121901004D01*
X187589527Y-121915250D01*
X187537745Y-121948156D01*
X187464480Y-121996208D01*
X187375080Y-122055890D01*
X187274889Y-122123688D01*
X187251499Y-122139639D01*
X186919407Y-122366420D01*
X186769435Y-122298353D01*
X186678230Y-122258685D01*
X186580331Y-122218791D01*
X186496169Y-122186983D01*
X186492462Y-122185674D01*
X186426631Y-122161576D01*
X186375884Y-122141200D01*
X186351158Y-122128936D01*
X186351116Y-122128901D01*
X186343271Y-122106734D01*
X186329934Y-122052217D01*
X186312430Y-121971480D01*
X186292083Y-121870650D01*
X186270218Y-121755856D01*
X186268429Y-121746178D01*
X186246496Y-121627904D01*
X186226360Y-121520542D01*
X186209320Y-121430917D01*
X186196672Y-121365851D01*
X186189716Y-121332168D01*
X186189594Y-121331654D01*
X186185361Y-121317325D01*
X186177129Y-121306507D01*
X186159967Y-121298706D01*
X186128942Y-121293429D01*
X186079122Y-121290182D01*
X186005576Y-121288472D01*
X185903371Y-121287807D01*
X185767575Y-121287693D01*
X185750000Y-121287692D01*
X185610122Y-121287776D01*
G37*
X185610122Y-121287776D02*
X185504388Y-121288355D01*
X185427868Y-121289922D01*
X185375628Y-121292972D01*
X185342737Y-121297996D01*
X185324263Y-121305489D01*
X185315273Y-121315944D01*
X185310837Y-121329853D01*
X185310406Y-121331654D01*
X185303667Y-121364145D01*
X185291192Y-121428252D01*
X185274281Y-121517151D01*
X185254229Y-121624019D01*
X185232336Y-121742033D01*
X185231571Y-121746178D01*
X185209641Y-121861831D01*
X185189123Y-121964014D01*
X185171341Y-122046598D01*
X185157619Y-122103456D01*
X185149282Y-122128458D01*
X185148884Y-122128901D01*
X185124323Y-122141110D01*
X185073685Y-122161456D01*
X185007905Y-122185545D01*
X185007539Y-122185674D01*
X184924683Y-122216818D01*
X184827000Y-122256491D01*
X184734923Y-122296381D01*
X184730566Y-122298353D01*
X184580593Y-122366420D01*
X184248502Y-122139639D01*
X184146626Y-122070504D01*
X184054343Y-122008697D01*
X183976997Y-121957733D01*
X183919936Y-121921127D01*
X183888505Y-121902394D01*
X183885521Y-121901004D01*
X183862679Y-121907190D01*
X183820018Y-121937035D01*
X183755872Y-121991947D01*
X183668579Y-122073334D01*
X183579465Y-122159922D01*
X183493559Y-122245247D01*
X183416673Y-122323108D01*
X183353436Y-122388697D01*
X183308477Y-122437205D01*
X183286424Y-122463825D01*
X183285604Y-122465195D01*
X183283166Y-122483463D01*
X183292350Y-122513295D01*
X183315426Y-122558721D01*
X183354663Y-122623770D01*
X183412330Y-122712470D01*
X183489205Y-122826657D01*
X183557430Y-122927162D01*
X183618418Y-123017303D01*
X183668644Y-123091849D01*
X183704584Y-123145565D01*
X183722713Y-123173218D01*
X183723854Y-123175095D01*
X183721641Y-123201590D01*
X183704862Y-123253086D01*
X183676858Y-123319851D01*
X183666878Y-123341172D01*
X183623328Y-123436159D01*
X183576866Y-123543937D01*
X183539123Y-123637192D01*
X183511927Y-123706406D01*
X183490325Y-123759006D01*
X183477842Y-123786497D01*
X183476291Y-123788616D01*
X183453332Y-123792124D01*
X183399214Y-123801738D01*
X183321132Y-123816089D01*
X183226281Y-123833807D01*
X183121857Y-123853525D01*
X183015056Y-123873874D01*
X182913074Y-123893486D01*
X182823106Y-123910991D01*
X182752347Y-123925022D01*
X182707994Y-123934209D01*
X182697115Y-123936807D01*
X182685878Y-123943218D01*
X182677395Y-123957697D01*
X182671286Y-123985133D01*
X182667168Y-124030411D01*
X182664659Y-124098420D01*
X182663379Y-124194047D01*
X182662946Y-124322180D01*
X182662923Y-124374701D01*
X182662923Y-124801845D01*
X182765500Y-124822091D01*
X182822569Y-124833070D01*
X182907731Y-124849095D01*
X183010628Y-124868233D01*
X183120904Y-124888551D01*
X183151385Y-124894132D01*
X183253145Y-124913917D01*
X183341795Y-124933373D01*
X183409892Y-124950697D01*
X183449996Y-124964088D01*
X183456677Y-124968079D01*
X183473081Y-124996342D01*
X183496601Y-125051109D01*
X183522684Y-125121588D01*
X183527858Y-125136769D01*
X183562044Y-125230896D01*
X183604477Y-125337101D01*
X183646003Y-125432473D01*
X183646208Y-125432916D01*
X183715360Y-125582525D01*
X183260488Y-126251617D01*
X183552500Y-126544116D01*
X183640820Y-126631170D01*
X183721375Y-126707909D01*
X183789640Y-126770237D01*
X183841092Y-126814056D01*
X183871206Y-126835270D01*
X183875526Y-126836616D01*
X183900889Y-126826016D01*
X183952642Y-126796547D01*
X184025132Y-126751705D01*
X184112706Y-126694984D01*
X184207388Y-126631462D01*
X184303484Y-126566668D01*
X184389163Y-126510287D01*
X184458984Y-126465788D01*
X184507506Y-126436639D01*
X184529218Y-126426308D01*
X184555707Y-126435050D01*
X184605938Y-126458087D01*
X184669549Y-126490631D01*
X184676292Y-126494249D01*
X184761954Y-126537210D01*
X184820694Y-126558279D01*
X184857228Y-126558503D01*
X184876269Y-126538928D01*
X184876380Y-126538654D01*
X184885898Y-126515472D01*
X184908597Y-126460441D01*
X184942718Y-126377822D01*
X184986500Y-126271872D01*
X185038184Y-126146852D01*
X185096008Y-126007020D01*
X185152009Y-125871637D01*
X185213553Y-125722234D01*
X185270061Y-125583832D01*
X185319839Y-125460673D01*
X185361194Y-125357002D01*
X185392432Y-125277059D01*
X185411859Y-125225088D01*
X185417846Y-125205692D01*
X185402832Y-125183443D01*
X185363561Y-125147982D01*
X185311193Y-125108887D01*
X185162059Y-124985245D01*
X185045489Y-124843522D01*
X184962882Y-124686704D01*
X184915634Y-124517775D01*
X184905143Y-124339722D01*
X184912769Y-124257539D01*
X184954318Y-124087031D01*
X185025877Y-123936459D01*
X185123005Y-123807309D01*
X185241266Y-123701064D01*
X185376220Y-123619210D01*
X185523429Y-123563232D01*
X185678456Y-123534615D01*
X185836861Y-123534844D01*
X185994206Y-123565405D01*
X186146054Y-123627782D01*
X186287965Y-123723460D01*
X186347197Y-123777572D01*
X186460797Y-123916520D01*
X186539894Y-124068361D01*
X186585014Y-124228667D01*
X186596684Y-124393012D01*
X186575431Y-124556971D01*
X186521780Y-124716118D01*
X186436260Y-124866025D01*
X186319395Y-125002267D01*
X186188807Y-125108887D01*
X186134412Y-125149642D01*
X186095986Y-125184718D01*
X186082154Y-125205726D01*
X186089397Y-125228635D01*
X186109995Y-125283365D01*
X186142254Y-125365672D01*
X186184479Y-125471315D01*
X186234977Y-125596050D01*
X186292052Y-125735636D01*
X186348146Y-125871670D01*
X186410033Y-126021201D01*
X186467356Y-126159767D01*
X186518356Y-126283107D01*
X186561273Y-126386964D01*
X186594347Y-126467080D01*
X186615819Y-126519195D01*
X186623775Y-126538654D01*
X186642571Y-126558423D01*
X186678926Y-126558365D01*
X186737521Y-126537441D01*
X186823032Y-126494613D01*
X186823708Y-126494249D01*
X186888093Y-126461012D01*
X186940139Y-126436802D01*
X186969488Y-126426404D01*
X186970783Y-126426308D01*
X186992876Y-126436855D01*
X187041652Y-126466184D01*
X187111669Y-126510827D01*
X187197486Y-126567314D01*
X187292612Y-126631462D01*
X187389460Y-126696411D01*
X187476747Y-126752896D01*
X187548819Y-126797421D01*
X187600023Y-126826490D01*
X187624474Y-126836616D01*
X187646990Y-126823307D01*
X187692258Y-126786112D01*
X187755756Y-126729128D01*
X187832961Y-126656449D01*
X187919349Y-126572171D01*
X187947601Y-126544016D01*
X188239713Y-126251416D01*
X188017369Y-125925104D01*
X187949798Y-125824897D01*
X187890493Y-125734963D01*
X187842783Y-125660510D01*
X187809993Y-125606751D01*
X187795452Y-125578894D01*
X187795026Y-125576912D01*
X187802692Y-125550655D01*
X187823311Y-125497837D01*
X187853315Y-125427310D01*
X187874375Y-125380093D01*
X187913752Y-125289694D01*
X187950835Y-125198366D01*
X187979585Y-125121200D01*
X187987395Y-125097692D01*
X188009583Y-125034916D01*
X188031273Y-124986411D01*
X188043187Y-124968079D01*
X188069477Y-124956859D01*
X188126858Y-124940954D01*
X188207882Y-124922167D01*
X188305105Y-124902299D01*
X188348615Y-124894132D01*
X188459104Y-124873829D01*
X188565084Y-124854170D01*
X188656199Y-124837088D01*
X188722092Y-124824518D01*
X188734500Y-124822091D01*
X188837077Y-124801845D01*
X188837077Y-124374701D01*
X188836847Y-124234246D01*
X188835901Y-124127979D01*
X188833859Y-124051013D01*
X188830338Y-123998460D01*
X188824957Y-123965433D01*
X188817334Y-123947045D01*
X188807088Y-123938408D01*
X188802885Y-123936807D01*
X188777530Y-123931127D01*
X188721516Y-123919795D01*
X188642036Y-123904179D01*
X188546288Y-123885647D01*
X188441467Y-123865569D01*
X188334768Y-123845312D01*
X188233387Y-123826246D01*
X188144521Y-123809739D01*
X188075363Y-123797159D01*
X188033111Y-123789875D01*
X188023710Y-123788616D01*
X188015193Y-123771763D01*
X187996340Y-123726870D01*
X187970676Y-123662430D01*
X187960877Y-123637192D01*
X187921352Y-123539686D01*
X187874808Y-123431959D01*
X187833123Y-123341172D01*
X187802450Y-123271753D01*
X187782044Y-123214710D01*
X187775232Y-123179777D01*
X187776318Y-123175095D01*
X187790715Y-123152991D01*
X187823588Y-123103831D01*
X187871410Y-123032848D01*
X187930652Y-122945278D01*
X187997785Y-122846357D01*
X188011059Y-122826830D01*
X188088954Y-122711140D01*
X188146213Y-122623044D01*
X188185119Y-122558486D01*
X188207956Y-122513411D01*
X188217006Y-122483763D01*
X188214552Y-122465485D01*
X188214489Y-122465369D01*
X188195173Y-122441361D01*
X188152449Y-122394947D01*
X188090949Y-122330937D01*
X188015302Y-122254145D01*
X187930139Y-122169382D01*
X187920535Y-122159922D01*
X187813210Y-122055989D01*
X187730385Y-121979675D01*
X187670395Y-121929571D01*
X187631577Y-121904270D01*
X187614480Y-121901004D01*
X187589527Y-121915250D01*
X187537745Y-121948156D01*
X187464480Y-121996208D01*
X187375080Y-122055890D01*
X187274889Y-122123688D01*
X187251499Y-122139639D01*
X186919407Y-122366420D01*
X186769435Y-122298353D01*
X186678230Y-122258685D01*
X186580331Y-122218791D01*
X186496169Y-122186983D01*
X186492462Y-122185674D01*
X186426631Y-122161576D01*
X186375884Y-122141200D01*
X186351158Y-122128936D01*
X186351116Y-122128901D01*
X186343271Y-122106734D01*
X186329934Y-122052217D01*
X186312430Y-121971480D01*
X186292083Y-121870650D01*
X186270218Y-121755856D01*
X186268429Y-121746178D01*
X186246496Y-121627904D01*
X186226360Y-121520542D01*
X186209320Y-121430917D01*
X186196672Y-121365851D01*
X186189716Y-121332168D01*
X186189594Y-121331654D01*
X186185361Y-121317325D01*
X186177129Y-121306507D01*
X186159967Y-121298706D01*
X186128942Y-121293429D01*
X186079122Y-121290182D01*
X186005576Y-121288472D01*
X185903371Y-121287807D01*
X185767575Y-121287693D01*
X185750000Y-121287692D01*
X185610122Y-121287776D01*
%TD*%
M02*
