%TF.GenerationSoftware,KiCad,Pcbnew,5.1.6-c6e7f7d~87~ubuntu18.04.1*%
%TF.CreationDate,2021-05-18T20:14:27+01:00*%
%TF.ProjectId,CheeseDistribution,43686565-7365-4446-9973-747269627574,rev?*%
%TF.SameCoordinates,Original*%
%TF.FileFunction,Soldermask,Top*%
%TF.FilePolarity,Negative*%
%FSLAX46Y46*%
G04 Gerber Fmt 4.6, Leading zero omitted, Abs format (unit mm)*
G04 Created by KiCad (PCBNEW 5.1.6-c6e7f7d~87~ubuntu18.04.1) date 2021-05-18 20:14:27*
%MOMM*%
%LPD*%
G01*
G04 APERTURE LIST*
%ADD10C,3.300000*%
%ADD11C,1.800000*%
%ADD12O,2.050000X1.800000*%
%ADD13O,1.800000X1.800000*%
%ADD14R,1.800000X1.800000*%
G04 APERTURE END LIST*
D10*
%TO.C,REF\u002A\u002A*%
X160500000Y-98500000D03*
%TD*%
%TO.C,REF\u002A\u002A*%
X160500000Y-131500000D03*
%TD*%
%TO.C,REF\u002A\u002A*%
X193500000Y-131500000D03*
%TD*%
%TO.C,REF\u002A\u002A*%
X193500000Y-98500000D03*
%TD*%
D11*
%TO.C,J1*%
X169210000Y-103640000D03*
X169210000Y-106180000D03*
X169210000Y-108720000D03*
X169210000Y-111260000D03*
X169210000Y-113800000D03*
X169210000Y-116340000D03*
X169210000Y-118880000D03*
X169210000Y-121420000D03*
X169210000Y-123960000D03*
X169210000Y-126500000D03*
X171750000Y-103640000D03*
X171750000Y-106180000D03*
X171750000Y-108720000D03*
X171750000Y-111260000D03*
X171750000Y-113800000D03*
X171750000Y-116340000D03*
X171750000Y-118880000D03*
X171750000Y-121420000D03*
X171750000Y-123960000D03*
G36*
G01*
X172650000Y-125864706D02*
X172650000Y-127135294D01*
G75*
G02*
X172385294Y-127400000I-264706J0D01*
G01*
X171114706Y-127400000D01*
G75*
G02*
X170850000Y-127135294I0J264706D01*
G01*
X170850000Y-125864706D01*
G75*
G02*
X171114706Y-125600000I264706J0D01*
G01*
X172385294Y-125600000D01*
G75*
G02*
X172650000Y-125864706I0J-264706D01*
G01*
G37*
%TD*%
D12*
%TO.C,J6*%
X182500000Y-111500000D03*
X182500000Y-114000000D03*
X182500000Y-116500000D03*
G36*
G01*
X183260294Y-119900000D02*
X181739706Y-119900000D01*
G75*
G02*
X181475000Y-119635294I0J264706D01*
G01*
X181475000Y-118364706D01*
G75*
G02*
X181739706Y-118100000I264706J0D01*
G01*
X183260294Y-118100000D01*
G75*
G02*
X183525000Y-118364706I0J-264706D01*
G01*
X183525000Y-119635294D01*
G75*
G02*
X183260294Y-119900000I-264706J0D01*
G01*
G37*
%TD*%
D13*
%TO.C,J5*%
X193000000Y-118080000D03*
X193000000Y-115540000D03*
D14*
X193000000Y-113000000D03*
%TD*%
D13*
%TO.C,J4*%
X182920000Y-131000000D03*
X185460000Y-131000000D03*
D14*
X188000000Y-131000000D03*
%TD*%
D13*
%TO.C,J3*%
X161000000Y-112920000D03*
X161000000Y-115460000D03*
D14*
X161000000Y-118000000D03*
%TD*%
D13*
%TO.C,J2*%
X188080000Y-99000000D03*
X185540000Y-99000000D03*
D14*
X183000000Y-99000000D03*
%TD*%
M02*
