%TF.GenerationSoftware,KiCad,Pcbnew,5.1.6-c6e7f7d~87~ubuntu18.04.1*%
%TF.CreationDate,2021-05-18T20:14:27+01:00*%
%TF.ProjectId,CheeseDistribution,43686565-7365-4446-9973-747269627574,rev?*%
%TF.SameCoordinates,Original*%
%TF.FileFunction,Copper,L1,Top*%
%TF.FilePolarity,Positive*%
%FSLAX46Y46*%
G04 Gerber Fmt 4.6, Leading zero omitted, Abs format (unit mm)*
G04 Created by KiCad (PCBNEW 5.1.6-c6e7f7d~87~ubuntu18.04.1) date 2021-05-18 20:14:27*
%MOMM*%
%LPD*%
G01*
G04 APERTURE LIST*
%TA.AperFunction,ComponentPad*%
%ADD10C,1.700000*%
%TD*%
%TA.AperFunction,ComponentPad*%
%ADD11O,1.950000X1.700000*%
%TD*%
%TA.AperFunction,ComponentPad*%
%ADD12O,1.700000X1.700000*%
%TD*%
%TA.AperFunction,ComponentPad*%
%ADD13R,1.700000X1.700000*%
%TD*%
%TA.AperFunction,ViaPad*%
%ADD14C,0.800000*%
%TD*%
%TA.AperFunction,Conductor*%
%ADD15C,1.500000*%
%TD*%
%TA.AperFunction,Conductor*%
%ADD16C,0.500000*%
%TD*%
%TA.AperFunction,Conductor*%
%ADD17C,0.254000*%
%TD*%
G04 APERTURE END LIST*
D10*
%TO.P,J1,20*%
%TO.N,2B*%
X169210000Y-103640000D03*
%TO.P,J1,18*%
%TO.N,2A*%
X169210000Y-106180000D03*
%TO.P,J1,16*%
%TO.N,1A*%
X169210000Y-108720000D03*
%TO.P,J1,14*%
%TO.N,1B*%
X169210000Y-111260000D03*
%TO.P,J1,12*%
%TO.N,GND*%
X169210000Y-113800000D03*
%TO.P,J1,10*%
X169210000Y-116340000D03*
%TO.P,J1,8*%
X169210000Y-118880000D03*
%TO.P,J1,6*%
X169210000Y-121420000D03*
%TO.P,J1,4*%
X169210000Y-123960000D03*
%TO.P,J1,2*%
X169210000Y-126500000D03*
%TO.P,J1,19*%
%TO.N,2B*%
X171750000Y-103640000D03*
%TO.P,J1,17*%
%TO.N,2A*%
X171750000Y-106180000D03*
%TO.P,J1,15*%
%TO.N,1A*%
X171750000Y-108720000D03*
%TO.P,J1,13*%
%TO.N,1B*%
X171750000Y-111260000D03*
%TO.P,J1,11*%
%TO.N,SERVO_3*%
X171750000Y-113800000D03*
%TO.P,J1,9*%
%TO.N,SERVO_2*%
X171750000Y-116340000D03*
%TO.P,J1,7*%
%TO.N,SERVO_1*%
X171750000Y-118880000D03*
%TO.P,J1,5*%
%TO.N,SERVO_0*%
X171750000Y-121420000D03*
%TO.P,J1,3*%
%TO.N,+5V*%
X171750000Y-123960000D03*
%TO.P,J1,1*%
%TO.N,GND*%
%TA.AperFunction,ComponentPad*%
G36*
G01*
X172600000Y-125900000D02*
X172600000Y-127100000D01*
G75*
G02*
X172350000Y-127350000I-250000J0D01*
G01*
X171150000Y-127350000D01*
G75*
G02*
X170900000Y-127100000I0J250000D01*
G01*
X170900000Y-125900000D01*
G75*
G02*
X171150000Y-125650000I250000J0D01*
G01*
X172350000Y-125650000D01*
G75*
G02*
X172600000Y-125900000I0J-250000D01*
G01*
G37*
%TD.AperFunction*%
%TD*%
D11*
%TO.P,J6,4*%
%TO.N,2B*%
X182500000Y-111500000D03*
%TO.P,J6,3*%
%TO.N,2A*%
X182500000Y-114000000D03*
%TO.P,J6,2*%
%TO.N,1A*%
X182500000Y-116500000D03*
%TO.P,J6,1*%
%TO.N,1B*%
%TA.AperFunction,ComponentPad*%
G36*
G01*
X183225000Y-119850000D02*
X181775000Y-119850000D01*
G75*
G02*
X181525000Y-119600000I0J250000D01*
G01*
X181525000Y-118400000D01*
G75*
G02*
X181775000Y-118150000I250000J0D01*
G01*
X183225000Y-118150000D01*
G75*
G02*
X183475000Y-118400000I0J-250000D01*
G01*
X183475000Y-119600000D01*
G75*
G02*
X183225000Y-119850000I-250000J0D01*
G01*
G37*
%TD.AperFunction*%
%TD*%
D12*
%TO.P,J5,3*%
%TO.N,SERVO_2*%
X193000000Y-118080000D03*
%TO.P,J5,2*%
%TO.N,+5V*%
X193000000Y-115540000D03*
D13*
%TO.P,J5,1*%
%TO.N,GND*%
X193000000Y-113000000D03*
%TD*%
D12*
%TO.P,J4,3*%
%TO.N,SERVO_1*%
X182920000Y-131000000D03*
%TO.P,J4,2*%
%TO.N,+5V*%
X185460000Y-131000000D03*
D13*
%TO.P,J4,1*%
%TO.N,GND*%
X188000000Y-131000000D03*
%TD*%
D12*
%TO.P,J3,3*%
%TO.N,SERVO_0*%
X161000000Y-112920000D03*
%TO.P,J3,2*%
%TO.N,+5V*%
X161000000Y-115460000D03*
D13*
%TO.P,J3,1*%
%TO.N,GND*%
X161000000Y-118000000D03*
%TD*%
D12*
%TO.P,J2,3*%
%TO.N,SERVO_3*%
X188080000Y-99000000D03*
%TO.P,J2,2*%
%TO.N,+5V*%
X185540000Y-99000000D03*
D13*
%TO.P,J2,1*%
%TO.N,GND*%
X183000000Y-99000000D03*
%TD*%
D14*
%TO.N,SERVO_0*%
X173000000Y-129250000D03*
%TD*%
D15*
%TO.N,2B*%
X169210000Y-103640000D02*
X171750000Y-103640000D01*
X174640000Y-103640000D02*
X182500000Y-111500000D01*
X171750000Y-103640000D02*
X174640000Y-103640000D01*
%TO.N,2A*%
X169210000Y-106180000D02*
X171750000Y-106180000D01*
X182329402Y-114000000D02*
X182500000Y-114000000D01*
X174509402Y-106180000D02*
X182329402Y-114000000D01*
X171750000Y-106180000D02*
X174509402Y-106180000D01*
%TO.N,1A*%
X169210000Y-108720000D02*
X171750000Y-108720000D01*
X182329402Y-116500000D02*
X182500000Y-116500000D01*
X174549402Y-108720000D02*
X182329402Y-116500000D01*
X171750000Y-108720000D02*
X174549402Y-108720000D01*
%TO.N,1B*%
X169210000Y-111260000D02*
X171750000Y-111260000D01*
X182329402Y-119000000D02*
X182500000Y-119000000D01*
X174589402Y-111260000D02*
X182329402Y-119000000D01*
X171750000Y-111260000D02*
X174589402Y-111260000D01*
D16*
%TO.N,SERVO_3*%
X172300000Y-113800000D02*
X171750000Y-113800000D01*
X178250010Y-120300010D02*
X178300010Y-120300010D01*
X171750000Y-113800000D02*
X178250010Y-120300010D01*
X178300010Y-120300010D02*
X180000000Y-122000000D01*
X180000000Y-122000000D02*
X184750000Y-122000000D01*
X188080000Y-118670000D02*
X188080000Y-99000000D01*
X184750000Y-122000000D02*
X188080000Y-118670000D01*
%TO.N,SERVO_2*%
X188379990Y-122700010D02*
X193000000Y-118080000D01*
X178110010Y-122700010D02*
X188379990Y-122700010D01*
X171750000Y-116340000D02*
X178110010Y-122700010D01*
%TO.N,SERVO_1*%
X182920000Y-130050000D02*
X182920000Y-131000000D01*
X171750000Y-118880000D02*
X182920000Y-130050000D01*
%TO.N,SERVO_0*%
X168750035Y-129250000D02*
X158999989Y-119499954D01*
X158999989Y-114920011D02*
X161000000Y-112920000D01*
X158999989Y-119499954D02*
X158999989Y-114920011D01*
X173000000Y-129250000D02*
X168750035Y-129250000D01*
%TO.N,+5V*%
X161580000Y-115460000D02*
X161000000Y-115460000D01*
X185510002Y-99000000D02*
X185540000Y-99000000D01*
X193000000Y-115510002D02*
X193000000Y-115540000D01*
X184159999Y-132300001D02*
X180090001Y-132300001D01*
X185460000Y-131000000D02*
X184159999Y-132300001D01*
X172949990Y-127800010D02*
X174270000Y-126480000D01*
X168290008Y-127800010D02*
X172949990Y-127800010D01*
X159699999Y-119210001D02*
X168290008Y-127800010D01*
X159699999Y-116760001D02*
X159699999Y-119210001D01*
X161000000Y-115460000D02*
X159699999Y-116760001D01*
X174270000Y-126480000D02*
X171750000Y-123960000D01*
X180090001Y-132300001D02*
X174270000Y-126480000D01*
X194300001Y-116840001D02*
X193000000Y-115540000D01*
X194300001Y-122159999D02*
X194300001Y-116840001D01*
X185460000Y-131000000D02*
X194300001Y-122159999D01*
X186840001Y-97699999D02*
X185540000Y-99000000D01*
X188704001Y-97699999D02*
X186840001Y-97699999D01*
X194300001Y-114239999D02*
X194300001Y-103295999D01*
X194300001Y-103295999D02*
X188704001Y-97699999D01*
X193000000Y-115540000D02*
X194300001Y-114239999D01*
%TD*%
D17*
%TO.N,GND*%
G36*
X195873000Y-133939281D02*
G01*
X158127000Y-133939281D01*
X158127000Y-131279872D01*
X158265000Y-131279872D01*
X158265000Y-131720128D01*
X158350890Y-132151925D01*
X158519369Y-132558669D01*
X158763962Y-132924729D01*
X159075271Y-133236038D01*
X159441331Y-133480631D01*
X159848075Y-133649110D01*
X160279872Y-133735000D01*
X160720128Y-133735000D01*
X161151925Y-133649110D01*
X161558669Y-133480631D01*
X161924729Y-133236038D01*
X162236038Y-132924729D01*
X162480631Y-132558669D01*
X162649110Y-132151925D01*
X162735000Y-131720128D01*
X162735000Y-131279872D01*
X162649110Y-130848075D01*
X162480631Y-130441331D01*
X162236038Y-130075271D01*
X161924729Y-129763962D01*
X161558669Y-129519369D01*
X161151925Y-129350890D01*
X160720128Y-129265000D01*
X160279872Y-129265000D01*
X159848075Y-129350890D01*
X159441331Y-129519369D01*
X159075271Y-129763962D01*
X158763962Y-130075271D01*
X158519369Y-130441331D01*
X158350890Y-130848075D01*
X158265000Y-131279872D01*
X158127000Y-131279872D01*
X158127000Y-119665381D01*
X158127794Y-119673443D01*
X158178400Y-119840266D01*
X158260578Y-119994012D01*
X158371172Y-120128771D01*
X158404945Y-120156488D01*
X168093505Y-129845049D01*
X168121218Y-129878817D01*
X168154986Y-129906530D01*
X168154988Y-129906532D01*
X168226487Y-129965210D01*
X168255976Y-129989411D01*
X168409722Y-130071589D01*
X168576545Y-130122195D01*
X168706558Y-130135000D01*
X168706568Y-130135000D01*
X168750034Y-130139281D01*
X168793500Y-130135000D01*
X172461546Y-130135000D01*
X172509744Y-130167205D01*
X172698102Y-130245226D01*
X172898061Y-130285000D01*
X173101939Y-130285000D01*
X173301898Y-130245226D01*
X173490256Y-130167205D01*
X173659774Y-130053937D01*
X173803937Y-129909774D01*
X173917205Y-129740256D01*
X173995226Y-129551898D01*
X174035000Y-129351939D01*
X174035000Y-129148061D01*
X173995226Y-128948102D01*
X173917205Y-128759744D01*
X173803937Y-128590226D01*
X173659774Y-128446063D01*
X173598346Y-128405018D01*
X173606524Y-128395054D01*
X174270000Y-127731578D01*
X179433471Y-132895050D01*
X179461184Y-132928818D01*
X179494952Y-132956531D01*
X179494954Y-132956533D01*
X179566453Y-133015211D01*
X179595942Y-133039412D01*
X179749688Y-133121590D01*
X179916511Y-133172196D01*
X180046524Y-133185001D01*
X180046534Y-133185001D01*
X180090000Y-133189282D01*
X180133466Y-133185001D01*
X184116530Y-133185001D01*
X184159999Y-133189282D01*
X184203468Y-133185001D01*
X184203476Y-133185001D01*
X184333489Y-133172196D01*
X184500312Y-133121590D01*
X184654058Y-133039412D01*
X184788816Y-132928818D01*
X184816533Y-132895045D01*
X185241039Y-132470539D01*
X185313740Y-132485000D01*
X185606260Y-132485000D01*
X185893158Y-132427932D01*
X186163411Y-132315990D01*
X186406632Y-132153475D01*
X186538487Y-132021620D01*
X186560498Y-132094180D01*
X186619463Y-132204494D01*
X186698815Y-132301185D01*
X186795506Y-132380537D01*
X186905820Y-132439502D01*
X187025518Y-132475812D01*
X187150000Y-132488072D01*
X187714250Y-132485000D01*
X187873000Y-132326250D01*
X187873000Y-131127000D01*
X188127000Y-131127000D01*
X188127000Y-132326250D01*
X188285750Y-132485000D01*
X188850000Y-132488072D01*
X188974482Y-132475812D01*
X189094180Y-132439502D01*
X189204494Y-132380537D01*
X189301185Y-132301185D01*
X189380537Y-132204494D01*
X189439502Y-132094180D01*
X189475812Y-131974482D01*
X189488072Y-131850000D01*
X189485000Y-131285750D01*
X189479122Y-131279872D01*
X191265000Y-131279872D01*
X191265000Y-131720128D01*
X191350890Y-132151925D01*
X191519369Y-132558669D01*
X191763962Y-132924729D01*
X192075271Y-133236038D01*
X192441331Y-133480631D01*
X192848075Y-133649110D01*
X193279872Y-133735000D01*
X193720128Y-133735000D01*
X194151925Y-133649110D01*
X194558669Y-133480631D01*
X194924729Y-133236038D01*
X195236038Y-132924729D01*
X195480631Y-132558669D01*
X195649110Y-132151925D01*
X195735000Y-131720128D01*
X195735000Y-131279872D01*
X195649110Y-130848075D01*
X195480631Y-130441331D01*
X195236038Y-130075271D01*
X194924729Y-129763962D01*
X194558669Y-129519369D01*
X194151925Y-129350890D01*
X193720128Y-129265000D01*
X193279872Y-129265000D01*
X192848075Y-129350890D01*
X192441331Y-129519369D01*
X192075271Y-129763962D01*
X191763962Y-130075271D01*
X191519369Y-130441331D01*
X191350890Y-130848075D01*
X191265000Y-131279872D01*
X189479122Y-131279872D01*
X189326250Y-131127000D01*
X188127000Y-131127000D01*
X187873000Y-131127000D01*
X187853000Y-131127000D01*
X187853000Y-130873000D01*
X187873000Y-130873000D01*
X187873000Y-130853000D01*
X188127000Y-130853000D01*
X188127000Y-130873000D01*
X189326250Y-130873000D01*
X189485000Y-130714250D01*
X189488072Y-130150000D01*
X189475812Y-130025518D01*
X189439502Y-129905820D01*
X189380537Y-129795506D01*
X189301185Y-129698815D01*
X189204494Y-129619463D01*
X189094180Y-129560498D01*
X188974482Y-129524188D01*
X188850000Y-129511928D01*
X188285750Y-129515000D01*
X188127002Y-129673748D01*
X188127002Y-129584576D01*
X194895052Y-122816527D01*
X194928818Y-122788816D01*
X195039412Y-122654058D01*
X195121590Y-122500312D01*
X195172196Y-122333489D01*
X195185001Y-122203476D01*
X195185001Y-122203466D01*
X195189282Y-122160000D01*
X195185001Y-122116534D01*
X195185001Y-116883467D01*
X195189282Y-116840000D01*
X195185001Y-116796534D01*
X195185001Y-116796524D01*
X195172196Y-116666511D01*
X195121590Y-116499688D01*
X195039412Y-116345942D01*
X195015211Y-116316453D01*
X194956533Y-116244954D01*
X194956531Y-116244952D01*
X194928818Y-116211184D01*
X194895050Y-116183471D01*
X194470539Y-115758960D01*
X194485000Y-115686260D01*
X194485000Y-115393740D01*
X194470539Y-115321040D01*
X194895051Y-114896528D01*
X194928818Y-114868816D01*
X194961990Y-114828397D01*
X195039411Y-114734059D01*
X195039412Y-114734058D01*
X195121590Y-114580312D01*
X195172196Y-114413489D01*
X195185001Y-114283476D01*
X195185001Y-114283466D01*
X195189282Y-114240000D01*
X195185001Y-114196533D01*
X195185001Y-103339464D01*
X195189282Y-103295998D01*
X195185001Y-103252532D01*
X195185001Y-103252522D01*
X195172196Y-103122509D01*
X195121590Y-102955686D01*
X195039412Y-102801940D01*
X194928818Y-102667182D01*
X194895050Y-102639469D01*
X192918749Y-100663168D01*
X193279872Y-100735000D01*
X193720128Y-100735000D01*
X194151925Y-100649110D01*
X194558669Y-100480631D01*
X194924729Y-100236038D01*
X195236038Y-99924729D01*
X195480631Y-99558669D01*
X195649110Y-99151925D01*
X195735000Y-98720128D01*
X195735000Y-98279872D01*
X195649110Y-97848075D01*
X195480631Y-97441331D01*
X195236038Y-97075271D01*
X194924729Y-96763962D01*
X194558669Y-96519369D01*
X194151925Y-96350890D01*
X193720128Y-96265000D01*
X193279872Y-96265000D01*
X192848075Y-96350890D01*
X192441331Y-96519369D01*
X192075271Y-96763962D01*
X191763962Y-97075271D01*
X191519369Y-97441331D01*
X191350890Y-97848075D01*
X191265000Y-98279872D01*
X191265000Y-98720128D01*
X191336832Y-99081252D01*
X189360535Y-97104955D01*
X189332818Y-97071182D01*
X189198060Y-96960588D01*
X189044314Y-96878410D01*
X188877491Y-96827804D01*
X188747478Y-96814999D01*
X188747470Y-96814999D01*
X188704001Y-96810718D01*
X188660532Y-96814999D01*
X186883467Y-96814999D01*
X186840000Y-96810718D01*
X186796534Y-96814999D01*
X186796524Y-96814999D01*
X186666511Y-96827804D01*
X186499688Y-96878410D01*
X186345942Y-96960588D01*
X186345940Y-96960589D01*
X186345941Y-96960589D01*
X186244954Y-97043467D01*
X186244952Y-97043469D01*
X186211184Y-97071182D01*
X186183471Y-97104950D01*
X185758960Y-97529461D01*
X185686260Y-97515000D01*
X185393740Y-97515000D01*
X185106842Y-97572068D01*
X184836589Y-97684010D01*
X184593368Y-97846525D01*
X184461513Y-97978380D01*
X184439502Y-97905820D01*
X184380537Y-97795506D01*
X184301185Y-97698815D01*
X184204494Y-97619463D01*
X184094180Y-97560498D01*
X183974482Y-97524188D01*
X183850000Y-97511928D01*
X183285750Y-97515000D01*
X183127000Y-97673750D01*
X183127000Y-98873000D01*
X183147000Y-98873000D01*
X183147000Y-99127000D01*
X183127000Y-99127000D01*
X183127000Y-100326250D01*
X183285750Y-100485000D01*
X183850000Y-100488072D01*
X183974482Y-100475812D01*
X184094180Y-100439502D01*
X184204494Y-100380537D01*
X184301185Y-100301185D01*
X184380537Y-100204494D01*
X184439502Y-100094180D01*
X184461513Y-100021620D01*
X184593368Y-100153475D01*
X184836589Y-100315990D01*
X185106842Y-100427932D01*
X185393740Y-100485000D01*
X185686260Y-100485000D01*
X185973158Y-100427932D01*
X186243411Y-100315990D01*
X186486632Y-100153475D01*
X186693475Y-99946632D01*
X186810000Y-99772240D01*
X186926525Y-99946632D01*
X187133368Y-100153475D01*
X187195001Y-100194657D01*
X187195000Y-118303421D01*
X184383422Y-121115000D01*
X180366579Y-121115000D01*
X178956544Y-119704966D01*
X178928827Y-119671193D01*
X178794069Y-119560599D01*
X178725559Y-119523980D01*
X173220539Y-114018961D01*
X173235000Y-113946260D01*
X173235000Y-113653740D01*
X173177932Y-113366842D01*
X173065990Y-113096589D01*
X172903475Y-112853368D01*
X172696632Y-112646525D01*
X172694350Y-112645000D01*
X174015717Y-112645000D01*
X180886928Y-119516212D01*
X180886928Y-119600000D01*
X180903992Y-119773254D01*
X180954528Y-119939850D01*
X181036595Y-120093386D01*
X181147038Y-120227962D01*
X181281614Y-120338405D01*
X181435150Y-120420472D01*
X181601746Y-120471008D01*
X181775000Y-120488072D01*
X183225000Y-120488072D01*
X183398254Y-120471008D01*
X183564850Y-120420472D01*
X183718386Y-120338405D01*
X183852962Y-120227962D01*
X183963405Y-120093386D01*
X184045472Y-119939850D01*
X184096008Y-119773254D01*
X184113072Y-119600000D01*
X184113072Y-118400000D01*
X184096008Y-118226746D01*
X184045472Y-118060150D01*
X183963405Y-117906614D01*
X183852962Y-117772038D01*
X183718386Y-117661595D01*
X183616663Y-117607223D01*
X183680134Y-117555134D01*
X183865706Y-117329014D01*
X184003599Y-117071034D01*
X184088513Y-116791111D01*
X184117185Y-116500000D01*
X184088513Y-116208889D01*
X184003599Y-115928966D01*
X183865706Y-115670986D01*
X183680134Y-115444866D01*
X183454014Y-115259294D01*
X183436626Y-115250000D01*
X183454014Y-115240706D01*
X183680134Y-115055134D01*
X183865706Y-114829014D01*
X184003599Y-114571034D01*
X184088513Y-114291111D01*
X184117185Y-114000000D01*
X184088513Y-113708889D01*
X184003599Y-113428966D01*
X183865706Y-113170986D01*
X183680134Y-112944866D01*
X183454014Y-112759294D01*
X183436626Y-112750000D01*
X183454014Y-112740706D01*
X183680134Y-112555134D01*
X183865706Y-112329014D01*
X184003599Y-112071034D01*
X184088513Y-111791111D01*
X184117185Y-111500000D01*
X184088513Y-111208889D01*
X184003599Y-110928966D01*
X183865706Y-110670986D01*
X183680134Y-110444866D01*
X183454014Y-110259294D01*
X183196034Y-110121401D01*
X183029599Y-110070913D01*
X175667454Y-102708769D01*
X175624081Y-102655919D01*
X175413188Y-102482843D01*
X175172581Y-102354236D01*
X174911507Y-102275040D01*
X174708037Y-102255000D01*
X174708029Y-102255000D01*
X174640000Y-102248300D01*
X174571971Y-102255000D01*
X172286805Y-102255000D01*
X172183158Y-102212068D01*
X171896260Y-102155000D01*
X171603740Y-102155000D01*
X171316842Y-102212068D01*
X171213195Y-102255000D01*
X169746805Y-102255000D01*
X169643158Y-102212068D01*
X169356260Y-102155000D01*
X169063740Y-102155000D01*
X168776842Y-102212068D01*
X168506589Y-102324010D01*
X168263368Y-102486525D01*
X168056525Y-102693368D01*
X167894010Y-102936589D01*
X167782068Y-103206842D01*
X167725000Y-103493740D01*
X167725000Y-103786260D01*
X167782068Y-104073158D01*
X167894010Y-104343411D01*
X168056525Y-104586632D01*
X168263368Y-104793475D01*
X168437760Y-104910000D01*
X168263368Y-105026525D01*
X168056525Y-105233368D01*
X167894010Y-105476589D01*
X167782068Y-105746842D01*
X167725000Y-106033740D01*
X167725000Y-106326260D01*
X167782068Y-106613158D01*
X167894010Y-106883411D01*
X168056525Y-107126632D01*
X168263368Y-107333475D01*
X168437760Y-107450000D01*
X168263368Y-107566525D01*
X168056525Y-107773368D01*
X167894010Y-108016589D01*
X167782068Y-108286842D01*
X167725000Y-108573740D01*
X167725000Y-108866260D01*
X167782068Y-109153158D01*
X167894010Y-109423411D01*
X168056525Y-109666632D01*
X168263368Y-109873475D01*
X168437760Y-109990000D01*
X168263368Y-110106525D01*
X168056525Y-110313368D01*
X167894010Y-110556589D01*
X167782068Y-110826842D01*
X167725000Y-111113740D01*
X167725000Y-111406260D01*
X167782068Y-111693158D01*
X167894010Y-111963411D01*
X168056525Y-112206632D01*
X168263368Y-112413475D01*
X168436729Y-112529311D01*
X168361208Y-112771603D01*
X169210000Y-113620395D01*
X170058792Y-112771603D01*
X170019331Y-112645000D01*
X170805650Y-112645000D01*
X170803368Y-112646525D01*
X170596525Y-112853368D01*
X170480689Y-113026729D01*
X170238397Y-112951208D01*
X169389605Y-113800000D01*
X170238397Y-114648792D01*
X170480689Y-114573271D01*
X170596525Y-114746632D01*
X170803368Y-114953475D01*
X170977760Y-115070000D01*
X170803368Y-115186525D01*
X170596525Y-115393368D01*
X170480689Y-115566729D01*
X170238397Y-115491208D01*
X169389605Y-116340000D01*
X170238397Y-117188792D01*
X170480689Y-117113271D01*
X170596525Y-117286632D01*
X170803368Y-117493475D01*
X170977760Y-117610000D01*
X170803368Y-117726525D01*
X170596525Y-117933368D01*
X170480689Y-118106729D01*
X170238397Y-118031208D01*
X169389605Y-118880000D01*
X170238397Y-119728792D01*
X170480689Y-119653271D01*
X170596525Y-119826632D01*
X170803368Y-120033475D01*
X170977760Y-120150000D01*
X170803368Y-120266525D01*
X170596525Y-120473368D01*
X170480689Y-120646729D01*
X170238397Y-120571208D01*
X169389605Y-121420000D01*
X170238397Y-122268792D01*
X170480689Y-122193271D01*
X170596525Y-122366632D01*
X170803368Y-122573475D01*
X170977760Y-122690000D01*
X170803368Y-122806525D01*
X170596525Y-123013368D01*
X170480689Y-123186729D01*
X170238397Y-123111208D01*
X169389605Y-123960000D01*
X170238397Y-124808792D01*
X170480689Y-124733271D01*
X170596525Y-124906632D01*
X170728380Y-125038487D01*
X170655820Y-125060498D01*
X170545506Y-125119463D01*
X170448815Y-125198815D01*
X170369463Y-125295506D01*
X170310498Y-125405820D01*
X170274188Y-125525518D01*
X170261928Y-125650000D01*
X170261975Y-125658557D01*
X170238397Y-125651208D01*
X169389605Y-126500000D01*
X169403748Y-126514143D01*
X169224143Y-126693748D01*
X169210000Y-126679605D01*
X169195858Y-126693748D01*
X169016253Y-126514143D01*
X169030395Y-126500000D01*
X168181603Y-125651208D01*
X167932528Y-125728843D01*
X167806629Y-125992883D01*
X167792019Y-126050442D01*
X166729974Y-124988397D01*
X168361208Y-124988397D01*
X168436514Y-125230000D01*
X168361208Y-125471603D01*
X169210000Y-126320395D01*
X170058792Y-125471603D01*
X169983486Y-125230000D01*
X170058792Y-124988397D01*
X169210000Y-124139605D01*
X168361208Y-124988397D01*
X166729974Y-124988397D01*
X165770108Y-124028531D01*
X167719389Y-124028531D01*
X167761401Y-124318019D01*
X167859081Y-124593747D01*
X167932528Y-124731157D01*
X168181603Y-124808792D01*
X169030395Y-123960000D01*
X168181603Y-123111208D01*
X167932528Y-123188843D01*
X167806629Y-123452883D01*
X167734661Y-123736411D01*
X167719389Y-124028531D01*
X165770108Y-124028531D01*
X164189974Y-122448397D01*
X168361208Y-122448397D01*
X168436514Y-122690000D01*
X168361208Y-122931603D01*
X169210000Y-123780395D01*
X170058792Y-122931603D01*
X169983486Y-122690000D01*
X170058792Y-122448397D01*
X169210000Y-121599605D01*
X168361208Y-122448397D01*
X164189974Y-122448397D01*
X163230108Y-121488531D01*
X167719389Y-121488531D01*
X167761401Y-121778019D01*
X167859081Y-122053747D01*
X167932528Y-122191157D01*
X168181603Y-122268792D01*
X169030395Y-121420000D01*
X168181603Y-120571208D01*
X167932528Y-120648843D01*
X167806629Y-120912883D01*
X167734661Y-121196411D01*
X167719389Y-121488531D01*
X163230108Y-121488531D01*
X161649974Y-119908397D01*
X168361208Y-119908397D01*
X168436514Y-120150000D01*
X168361208Y-120391603D01*
X169210000Y-121240395D01*
X170058792Y-120391603D01*
X169983486Y-120150000D01*
X170058792Y-119908397D01*
X169210000Y-119059605D01*
X168361208Y-119908397D01*
X161649974Y-119908397D01*
X161127002Y-119385426D01*
X161127002Y-119326252D01*
X161285750Y-119485000D01*
X161850000Y-119488072D01*
X161974482Y-119475812D01*
X162094180Y-119439502D01*
X162204494Y-119380537D01*
X162301185Y-119301185D01*
X162380537Y-119204494D01*
X162439502Y-119094180D01*
X162475812Y-118974482D01*
X162478367Y-118948531D01*
X167719389Y-118948531D01*
X167761401Y-119238019D01*
X167859081Y-119513747D01*
X167932528Y-119651157D01*
X168181603Y-119728792D01*
X169030395Y-118880000D01*
X168181603Y-118031208D01*
X167932528Y-118108843D01*
X167806629Y-118372883D01*
X167734661Y-118656411D01*
X167719389Y-118948531D01*
X162478367Y-118948531D01*
X162488072Y-118850000D01*
X162485000Y-118285750D01*
X162326250Y-118127000D01*
X161127000Y-118127000D01*
X161127000Y-118147000D01*
X160873000Y-118147000D01*
X160873000Y-118127000D01*
X160853000Y-118127000D01*
X160853000Y-117873000D01*
X160873000Y-117873000D01*
X160873000Y-117853000D01*
X161127000Y-117853000D01*
X161127000Y-117873000D01*
X162326250Y-117873000D01*
X162485000Y-117714250D01*
X162486882Y-117368397D01*
X168361208Y-117368397D01*
X168436514Y-117610000D01*
X168361208Y-117851603D01*
X169210000Y-118700395D01*
X170058792Y-117851603D01*
X169983486Y-117610000D01*
X170058792Y-117368397D01*
X169210000Y-116519605D01*
X168361208Y-117368397D01*
X162486882Y-117368397D01*
X162488072Y-117150000D01*
X162475812Y-117025518D01*
X162439502Y-116905820D01*
X162380537Y-116795506D01*
X162301185Y-116698815D01*
X162204494Y-116619463D01*
X162094180Y-116560498D01*
X162021620Y-116538487D01*
X162151576Y-116408531D01*
X167719389Y-116408531D01*
X167761401Y-116698019D01*
X167859081Y-116973747D01*
X167932528Y-117111157D01*
X168181603Y-117188792D01*
X169030395Y-116340000D01*
X168181603Y-115491208D01*
X167932528Y-115568843D01*
X167806629Y-115832883D01*
X167734661Y-116116411D01*
X167719389Y-116408531D01*
X162151576Y-116408531D01*
X162153475Y-116406632D01*
X162315990Y-116163411D01*
X162427932Y-115893158D01*
X162485000Y-115606260D01*
X162485000Y-115313740D01*
X162427932Y-115026842D01*
X162345734Y-114828397D01*
X168361208Y-114828397D01*
X168436514Y-115070000D01*
X168361208Y-115311603D01*
X169210000Y-116160395D01*
X170058792Y-115311603D01*
X169983486Y-115070000D01*
X170058792Y-114828397D01*
X169210000Y-113979605D01*
X168361208Y-114828397D01*
X162345734Y-114828397D01*
X162315990Y-114756589D01*
X162153475Y-114513368D01*
X161946632Y-114306525D01*
X161772240Y-114190000D01*
X161946632Y-114073475D01*
X162151576Y-113868531D01*
X167719389Y-113868531D01*
X167761401Y-114158019D01*
X167859081Y-114433747D01*
X167932528Y-114571157D01*
X168181603Y-114648792D01*
X169030395Y-113800000D01*
X168181603Y-112951208D01*
X167932528Y-113028843D01*
X167806629Y-113292883D01*
X167734661Y-113576411D01*
X167719389Y-113868531D01*
X162151576Y-113868531D01*
X162153475Y-113866632D01*
X162315990Y-113623411D01*
X162427932Y-113353158D01*
X162485000Y-113066260D01*
X162485000Y-112773740D01*
X162427932Y-112486842D01*
X162315990Y-112216589D01*
X162153475Y-111973368D01*
X161946632Y-111766525D01*
X161703411Y-111604010D01*
X161433158Y-111492068D01*
X161146260Y-111435000D01*
X160853740Y-111435000D01*
X160566842Y-111492068D01*
X160296589Y-111604010D01*
X160053368Y-111766525D01*
X159846525Y-111973368D01*
X159684010Y-112216589D01*
X159572068Y-112486842D01*
X159515000Y-112773740D01*
X159515000Y-113066260D01*
X159529461Y-113138960D01*
X158404940Y-114263482D01*
X158371173Y-114291194D01*
X158343460Y-114324962D01*
X158343457Y-114324965D01*
X158260579Y-114425952D01*
X158178401Y-114579698D01*
X158127794Y-114746521D01*
X158127000Y-114754583D01*
X158127000Y-98279872D01*
X158265000Y-98279872D01*
X158265000Y-98720128D01*
X158350890Y-99151925D01*
X158519369Y-99558669D01*
X158763962Y-99924729D01*
X159075271Y-100236038D01*
X159441331Y-100480631D01*
X159848075Y-100649110D01*
X160279872Y-100735000D01*
X160720128Y-100735000D01*
X161151925Y-100649110D01*
X161558669Y-100480631D01*
X161924729Y-100236038D01*
X162236038Y-99924729D01*
X162285970Y-99850000D01*
X181511928Y-99850000D01*
X181524188Y-99974482D01*
X181560498Y-100094180D01*
X181619463Y-100204494D01*
X181698815Y-100301185D01*
X181795506Y-100380537D01*
X181905820Y-100439502D01*
X182025518Y-100475812D01*
X182150000Y-100488072D01*
X182714250Y-100485000D01*
X182873000Y-100326250D01*
X182873000Y-99127000D01*
X181673750Y-99127000D01*
X181515000Y-99285750D01*
X181511928Y-99850000D01*
X162285970Y-99850000D01*
X162480631Y-99558669D01*
X162649110Y-99151925D01*
X162735000Y-98720128D01*
X162735000Y-98279872D01*
X162709167Y-98150000D01*
X181511928Y-98150000D01*
X181515000Y-98714250D01*
X181673750Y-98873000D01*
X182873000Y-98873000D01*
X182873000Y-97673750D01*
X182714250Y-97515000D01*
X182150000Y-97511928D01*
X182025518Y-97524188D01*
X181905820Y-97560498D01*
X181795506Y-97619463D01*
X181698815Y-97698815D01*
X181619463Y-97795506D01*
X181560498Y-97905820D01*
X181524188Y-98025518D01*
X181511928Y-98150000D01*
X162709167Y-98150000D01*
X162649110Y-97848075D01*
X162480631Y-97441331D01*
X162236038Y-97075271D01*
X161924729Y-96763962D01*
X161558669Y-96519369D01*
X161151925Y-96350890D01*
X160720128Y-96265000D01*
X160279872Y-96265000D01*
X159848075Y-96350890D01*
X159441331Y-96519369D01*
X159075271Y-96763962D01*
X158763962Y-97075271D01*
X158519369Y-97441331D01*
X158350890Y-97848075D01*
X158265000Y-98279872D01*
X158127000Y-98279872D01*
X158127000Y-96193281D01*
X195873000Y-96193281D01*
X195873000Y-133939281D01*
G37*
X195873000Y-133939281D02*
X158127000Y-133939281D01*
X158127000Y-131279872D01*
X158265000Y-131279872D01*
X158265000Y-131720128D01*
X158350890Y-132151925D01*
X158519369Y-132558669D01*
X158763962Y-132924729D01*
X159075271Y-133236038D01*
X159441331Y-133480631D01*
X159848075Y-133649110D01*
X160279872Y-133735000D01*
X160720128Y-133735000D01*
X161151925Y-133649110D01*
X161558669Y-133480631D01*
X161924729Y-133236038D01*
X162236038Y-132924729D01*
X162480631Y-132558669D01*
X162649110Y-132151925D01*
X162735000Y-131720128D01*
X162735000Y-131279872D01*
X162649110Y-130848075D01*
X162480631Y-130441331D01*
X162236038Y-130075271D01*
X161924729Y-129763962D01*
X161558669Y-129519369D01*
X161151925Y-129350890D01*
X160720128Y-129265000D01*
X160279872Y-129265000D01*
X159848075Y-129350890D01*
X159441331Y-129519369D01*
X159075271Y-129763962D01*
X158763962Y-130075271D01*
X158519369Y-130441331D01*
X158350890Y-130848075D01*
X158265000Y-131279872D01*
X158127000Y-131279872D01*
X158127000Y-119665381D01*
X158127794Y-119673443D01*
X158178400Y-119840266D01*
X158260578Y-119994012D01*
X158371172Y-120128771D01*
X158404945Y-120156488D01*
X168093505Y-129845049D01*
X168121218Y-129878817D01*
X168154986Y-129906530D01*
X168154988Y-129906532D01*
X168226487Y-129965210D01*
X168255976Y-129989411D01*
X168409722Y-130071589D01*
X168576545Y-130122195D01*
X168706558Y-130135000D01*
X168706568Y-130135000D01*
X168750034Y-130139281D01*
X168793500Y-130135000D01*
X172461546Y-130135000D01*
X172509744Y-130167205D01*
X172698102Y-130245226D01*
X172898061Y-130285000D01*
X173101939Y-130285000D01*
X173301898Y-130245226D01*
X173490256Y-130167205D01*
X173659774Y-130053937D01*
X173803937Y-129909774D01*
X173917205Y-129740256D01*
X173995226Y-129551898D01*
X174035000Y-129351939D01*
X174035000Y-129148061D01*
X173995226Y-128948102D01*
X173917205Y-128759744D01*
X173803937Y-128590226D01*
X173659774Y-128446063D01*
X173598346Y-128405018D01*
X173606524Y-128395054D01*
X174270000Y-127731578D01*
X179433471Y-132895050D01*
X179461184Y-132928818D01*
X179494952Y-132956531D01*
X179494954Y-132956533D01*
X179566453Y-133015211D01*
X179595942Y-133039412D01*
X179749688Y-133121590D01*
X179916511Y-133172196D01*
X180046524Y-133185001D01*
X180046534Y-133185001D01*
X180090000Y-133189282D01*
X180133466Y-133185001D01*
X184116530Y-133185001D01*
X184159999Y-133189282D01*
X184203468Y-133185001D01*
X184203476Y-133185001D01*
X184333489Y-133172196D01*
X184500312Y-133121590D01*
X184654058Y-133039412D01*
X184788816Y-132928818D01*
X184816533Y-132895045D01*
X185241039Y-132470539D01*
X185313740Y-132485000D01*
X185606260Y-132485000D01*
X185893158Y-132427932D01*
X186163411Y-132315990D01*
X186406632Y-132153475D01*
X186538487Y-132021620D01*
X186560498Y-132094180D01*
X186619463Y-132204494D01*
X186698815Y-132301185D01*
X186795506Y-132380537D01*
X186905820Y-132439502D01*
X187025518Y-132475812D01*
X187150000Y-132488072D01*
X187714250Y-132485000D01*
X187873000Y-132326250D01*
X187873000Y-131127000D01*
X188127000Y-131127000D01*
X188127000Y-132326250D01*
X188285750Y-132485000D01*
X188850000Y-132488072D01*
X188974482Y-132475812D01*
X189094180Y-132439502D01*
X189204494Y-132380537D01*
X189301185Y-132301185D01*
X189380537Y-132204494D01*
X189439502Y-132094180D01*
X189475812Y-131974482D01*
X189488072Y-131850000D01*
X189485000Y-131285750D01*
X189479122Y-131279872D01*
X191265000Y-131279872D01*
X191265000Y-131720128D01*
X191350890Y-132151925D01*
X191519369Y-132558669D01*
X191763962Y-132924729D01*
X192075271Y-133236038D01*
X192441331Y-133480631D01*
X192848075Y-133649110D01*
X193279872Y-133735000D01*
X193720128Y-133735000D01*
X194151925Y-133649110D01*
X194558669Y-133480631D01*
X194924729Y-133236038D01*
X195236038Y-132924729D01*
X195480631Y-132558669D01*
X195649110Y-132151925D01*
X195735000Y-131720128D01*
X195735000Y-131279872D01*
X195649110Y-130848075D01*
X195480631Y-130441331D01*
X195236038Y-130075271D01*
X194924729Y-129763962D01*
X194558669Y-129519369D01*
X194151925Y-129350890D01*
X193720128Y-129265000D01*
X193279872Y-129265000D01*
X192848075Y-129350890D01*
X192441331Y-129519369D01*
X192075271Y-129763962D01*
X191763962Y-130075271D01*
X191519369Y-130441331D01*
X191350890Y-130848075D01*
X191265000Y-131279872D01*
X189479122Y-131279872D01*
X189326250Y-131127000D01*
X188127000Y-131127000D01*
X187873000Y-131127000D01*
X187853000Y-131127000D01*
X187853000Y-130873000D01*
X187873000Y-130873000D01*
X187873000Y-130853000D01*
X188127000Y-130853000D01*
X188127000Y-130873000D01*
X189326250Y-130873000D01*
X189485000Y-130714250D01*
X189488072Y-130150000D01*
X189475812Y-130025518D01*
X189439502Y-129905820D01*
X189380537Y-129795506D01*
X189301185Y-129698815D01*
X189204494Y-129619463D01*
X189094180Y-129560498D01*
X188974482Y-129524188D01*
X188850000Y-129511928D01*
X188285750Y-129515000D01*
X188127002Y-129673748D01*
X188127002Y-129584576D01*
X194895052Y-122816527D01*
X194928818Y-122788816D01*
X195039412Y-122654058D01*
X195121590Y-122500312D01*
X195172196Y-122333489D01*
X195185001Y-122203476D01*
X195185001Y-122203466D01*
X195189282Y-122160000D01*
X195185001Y-122116534D01*
X195185001Y-116883467D01*
X195189282Y-116840000D01*
X195185001Y-116796534D01*
X195185001Y-116796524D01*
X195172196Y-116666511D01*
X195121590Y-116499688D01*
X195039412Y-116345942D01*
X195015211Y-116316453D01*
X194956533Y-116244954D01*
X194956531Y-116244952D01*
X194928818Y-116211184D01*
X194895050Y-116183471D01*
X194470539Y-115758960D01*
X194485000Y-115686260D01*
X194485000Y-115393740D01*
X194470539Y-115321040D01*
X194895051Y-114896528D01*
X194928818Y-114868816D01*
X194961990Y-114828397D01*
X195039411Y-114734059D01*
X195039412Y-114734058D01*
X195121590Y-114580312D01*
X195172196Y-114413489D01*
X195185001Y-114283476D01*
X195185001Y-114283466D01*
X195189282Y-114240000D01*
X195185001Y-114196533D01*
X195185001Y-103339464D01*
X195189282Y-103295998D01*
X195185001Y-103252532D01*
X195185001Y-103252522D01*
X195172196Y-103122509D01*
X195121590Y-102955686D01*
X195039412Y-102801940D01*
X194928818Y-102667182D01*
X194895050Y-102639469D01*
X192918749Y-100663168D01*
X193279872Y-100735000D01*
X193720128Y-100735000D01*
X194151925Y-100649110D01*
X194558669Y-100480631D01*
X194924729Y-100236038D01*
X195236038Y-99924729D01*
X195480631Y-99558669D01*
X195649110Y-99151925D01*
X195735000Y-98720128D01*
X195735000Y-98279872D01*
X195649110Y-97848075D01*
X195480631Y-97441331D01*
X195236038Y-97075271D01*
X194924729Y-96763962D01*
X194558669Y-96519369D01*
X194151925Y-96350890D01*
X193720128Y-96265000D01*
X193279872Y-96265000D01*
X192848075Y-96350890D01*
X192441331Y-96519369D01*
X192075271Y-96763962D01*
X191763962Y-97075271D01*
X191519369Y-97441331D01*
X191350890Y-97848075D01*
X191265000Y-98279872D01*
X191265000Y-98720128D01*
X191336832Y-99081252D01*
X189360535Y-97104955D01*
X189332818Y-97071182D01*
X189198060Y-96960588D01*
X189044314Y-96878410D01*
X188877491Y-96827804D01*
X188747478Y-96814999D01*
X188747470Y-96814999D01*
X188704001Y-96810718D01*
X188660532Y-96814999D01*
X186883467Y-96814999D01*
X186840000Y-96810718D01*
X186796534Y-96814999D01*
X186796524Y-96814999D01*
X186666511Y-96827804D01*
X186499688Y-96878410D01*
X186345942Y-96960588D01*
X186345940Y-96960589D01*
X186345941Y-96960589D01*
X186244954Y-97043467D01*
X186244952Y-97043469D01*
X186211184Y-97071182D01*
X186183471Y-97104950D01*
X185758960Y-97529461D01*
X185686260Y-97515000D01*
X185393740Y-97515000D01*
X185106842Y-97572068D01*
X184836589Y-97684010D01*
X184593368Y-97846525D01*
X184461513Y-97978380D01*
X184439502Y-97905820D01*
X184380537Y-97795506D01*
X184301185Y-97698815D01*
X184204494Y-97619463D01*
X184094180Y-97560498D01*
X183974482Y-97524188D01*
X183850000Y-97511928D01*
X183285750Y-97515000D01*
X183127000Y-97673750D01*
X183127000Y-98873000D01*
X183147000Y-98873000D01*
X183147000Y-99127000D01*
X183127000Y-99127000D01*
X183127000Y-100326250D01*
X183285750Y-100485000D01*
X183850000Y-100488072D01*
X183974482Y-100475812D01*
X184094180Y-100439502D01*
X184204494Y-100380537D01*
X184301185Y-100301185D01*
X184380537Y-100204494D01*
X184439502Y-100094180D01*
X184461513Y-100021620D01*
X184593368Y-100153475D01*
X184836589Y-100315990D01*
X185106842Y-100427932D01*
X185393740Y-100485000D01*
X185686260Y-100485000D01*
X185973158Y-100427932D01*
X186243411Y-100315990D01*
X186486632Y-100153475D01*
X186693475Y-99946632D01*
X186810000Y-99772240D01*
X186926525Y-99946632D01*
X187133368Y-100153475D01*
X187195001Y-100194657D01*
X187195000Y-118303421D01*
X184383422Y-121115000D01*
X180366579Y-121115000D01*
X178956544Y-119704966D01*
X178928827Y-119671193D01*
X178794069Y-119560599D01*
X178725559Y-119523980D01*
X173220539Y-114018961D01*
X173235000Y-113946260D01*
X173235000Y-113653740D01*
X173177932Y-113366842D01*
X173065990Y-113096589D01*
X172903475Y-112853368D01*
X172696632Y-112646525D01*
X172694350Y-112645000D01*
X174015717Y-112645000D01*
X180886928Y-119516212D01*
X180886928Y-119600000D01*
X180903992Y-119773254D01*
X180954528Y-119939850D01*
X181036595Y-120093386D01*
X181147038Y-120227962D01*
X181281614Y-120338405D01*
X181435150Y-120420472D01*
X181601746Y-120471008D01*
X181775000Y-120488072D01*
X183225000Y-120488072D01*
X183398254Y-120471008D01*
X183564850Y-120420472D01*
X183718386Y-120338405D01*
X183852962Y-120227962D01*
X183963405Y-120093386D01*
X184045472Y-119939850D01*
X184096008Y-119773254D01*
X184113072Y-119600000D01*
X184113072Y-118400000D01*
X184096008Y-118226746D01*
X184045472Y-118060150D01*
X183963405Y-117906614D01*
X183852962Y-117772038D01*
X183718386Y-117661595D01*
X183616663Y-117607223D01*
X183680134Y-117555134D01*
X183865706Y-117329014D01*
X184003599Y-117071034D01*
X184088513Y-116791111D01*
X184117185Y-116500000D01*
X184088513Y-116208889D01*
X184003599Y-115928966D01*
X183865706Y-115670986D01*
X183680134Y-115444866D01*
X183454014Y-115259294D01*
X183436626Y-115250000D01*
X183454014Y-115240706D01*
X183680134Y-115055134D01*
X183865706Y-114829014D01*
X184003599Y-114571034D01*
X184088513Y-114291111D01*
X184117185Y-114000000D01*
X184088513Y-113708889D01*
X184003599Y-113428966D01*
X183865706Y-113170986D01*
X183680134Y-112944866D01*
X183454014Y-112759294D01*
X183436626Y-112750000D01*
X183454014Y-112740706D01*
X183680134Y-112555134D01*
X183865706Y-112329014D01*
X184003599Y-112071034D01*
X184088513Y-111791111D01*
X184117185Y-111500000D01*
X184088513Y-111208889D01*
X184003599Y-110928966D01*
X183865706Y-110670986D01*
X183680134Y-110444866D01*
X183454014Y-110259294D01*
X183196034Y-110121401D01*
X183029599Y-110070913D01*
X175667454Y-102708769D01*
X175624081Y-102655919D01*
X175413188Y-102482843D01*
X175172581Y-102354236D01*
X174911507Y-102275040D01*
X174708037Y-102255000D01*
X174708029Y-102255000D01*
X174640000Y-102248300D01*
X174571971Y-102255000D01*
X172286805Y-102255000D01*
X172183158Y-102212068D01*
X171896260Y-102155000D01*
X171603740Y-102155000D01*
X171316842Y-102212068D01*
X171213195Y-102255000D01*
X169746805Y-102255000D01*
X169643158Y-102212068D01*
X169356260Y-102155000D01*
X169063740Y-102155000D01*
X168776842Y-102212068D01*
X168506589Y-102324010D01*
X168263368Y-102486525D01*
X168056525Y-102693368D01*
X167894010Y-102936589D01*
X167782068Y-103206842D01*
X167725000Y-103493740D01*
X167725000Y-103786260D01*
X167782068Y-104073158D01*
X167894010Y-104343411D01*
X168056525Y-104586632D01*
X168263368Y-104793475D01*
X168437760Y-104910000D01*
X168263368Y-105026525D01*
X168056525Y-105233368D01*
X167894010Y-105476589D01*
X167782068Y-105746842D01*
X167725000Y-106033740D01*
X167725000Y-106326260D01*
X167782068Y-106613158D01*
X167894010Y-106883411D01*
X168056525Y-107126632D01*
X168263368Y-107333475D01*
X168437760Y-107450000D01*
X168263368Y-107566525D01*
X168056525Y-107773368D01*
X167894010Y-108016589D01*
X167782068Y-108286842D01*
X167725000Y-108573740D01*
X167725000Y-108866260D01*
X167782068Y-109153158D01*
X167894010Y-109423411D01*
X168056525Y-109666632D01*
X168263368Y-109873475D01*
X168437760Y-109990000D01*
X168263368Y-110106525D01*
X168056525Y-110313368D01*
X167894010Y-110556589D01*
X167782068Y-110826842D01*
X167725000Y-111113740D01*
X167725000Y-111406260D01*
X167782068Y-111693158D01*
X167894010Y-111963411D01*
X168056525Y-112206632D01*
X168263368Y-112413475D01*
X168436729Y-112529311D01*
X168361208Y-112771603D01*
X169210000Y-113620395D01*
X170058792Y-112771603D01*
X170019331Y-112645000D01*
X170805650Y-112645000D01*
X170803368Y-112646525D01*
X170596525Y-112853368D01*
X170480689Y-113026729D01*
X170238397Y-112951208D01*
X169389605Y-113800000D01*
X170238397Y-114648792D01*
X170480689Y-114573271D01*
X170596525Y-114746632D01*
X170803368Y-114953475D01*
X170977760Y-115070000D01*
X170803368Y-115186525D01*
X170596525Y-115393368D01*
X170480689Y-115566729D01*
X170238397Y-115491208D01*
X169389605Y-116340000D01*
X170238397Y-117188792D01*
X170480689Y-117113271D01*
X170596525Y-117286632D01*
X170803368Y-117493475D01*
X170977760Y-117610000D01*
X170803368Y-117726525D01*
X170596525Y-117933368D01*
X170480689Y-118106729D01*
X170238397Y-118031208D01*
X169389605Y-118880000D01*
X170238397Y-119728792D01*
X170480689Y-119653271D01*
X170596525Y-119826632D01*
X170803368Y-120033475D01*
X170977760Y-120150000D01*
X170803368Y-120266525D01*
X170596525Y-120473368D01*
X170480689Y-120646729D01*
X170238397Y-120571208D01*
X169389605Y-121420000D01*
X170238397Y-122268792D01*
X170480689Y-122193271D01*
X170596525Y-122366632D01*
X170803368Y-122573475D01*
X170977760Y-122690000D01*
X170803368Y-122806525D01*
X170596525Y-123013368D01*
X170480689Y-123186729D01*
X170238397Y-123111208D01*
X169389605Y-123960000D01*
X170238397Y-124808792D01*
X170480689Y-124733271D01*
X170596525Y-124906632D01*
X170728380Y-125038487D01*
X170655820Y-125060498D01*
X170545506Y-125119463D01*
X170448815Y-125198815D01*
X170369463Y-125295506D01*
X170310498Y-125405820D01*
X170274188Y-125525518D01*
X170261928Y-125650000D01*
X170261975Y-125658557D01*
X170238397Y-125651208D01*
X169389605Y-126500000D01*
X169403748Y-126514143D01*
X169224143Y-126693748D01*
X169210000Y-126679605D01*
X169195858Y-126693748D01*
X169016253Y-126514143D01*
X169030395Y-126500000D01*
X168181603Y-125651208D01*
X167932528Y-125728843D01*
X167806629Y-125992883D01*
X167792019Y-126050442D01*
X166729974Y-124988397D01*
X168361208Y-124988397D01*
X168436514Y-125230000D01*
X168361208Y-125471603D01*
X169210000Y-126320395D01*
X170058792Y-125471603D01*
X169983486Y-125230000D01*
X170058792Y-124988397D01*
X169210000Y-124139605D01*
X168361208Y-124988397D01*
X166729974Y-124988397D01*
X165770108Y-124028531D01*
X167719389Y-124028531D01*
X167761401Y-124318019D01*
X167859081Y-124593747D01*
X167932528Y-124731157D01*
X168181603Y-124808792D01*
X169030395Y-123960000D01*
X168181603Y-123111208D01*
X167932528Y-123188843D01*
X167806629Y-123452883D01*
X167734661Y-123736411D01*
X167719389Y-124028531D01*
X165770108Y-124028531D01*
X164189974Y-122448397D01*
X168361208Y-122448397D01*
X168436514Y-122690000D01*
X168361208Y-122931603D01*
X169210000Y-123780395D01*
X170058792Y-122931603D01*
X169983486Y-122690000D01*
X170058792Y-122448397D01*
X169210000Y-121599605D01*
X168361208Y-122448397D01*
X164189974Y-122448397D01*
X163230108Y-121488531D01*
X167719389Y-121488531D01*
X167761401Y-121778019D01*
X167859081Y-122053747D01*
X167932528Y-122191157D01*
X168181603Y-122268792D01*
X169030395Y-121420000D01*
X168181603Y-120571208D01*
X167932528Y-120648843D01*
X167806629Y-120912883D01*
X167734661Y-121196411D01*
X167719389Y-121488531D01*
X163230108Y-121488531D01*
X161649974Y-119908397D01*
X168361208Y-119908397D01*
X168436514Y-120150000D01*
X168361208Y-120391603D01*
X169210000Y-121240395D01*
X170058792Y-120391603D01*
X169983486Y-120150000D01*
X170058792Y-119908397D01*
X169210000Y-119059605D01*
X168361208Y-119908397D01*
X161649974Y-119908397D01*
X161127002Y-119385426D01*
X161127002Y-119326252D01*
X161285750Y-119485000D01*
X161850000Y-119488072D01*
X161974482Y-119475812D01*
X162094180Y-119439502D01*
X162204494Y-119380537D01*
X162301185Y-119301185D01*
X162380537Y-119204494D01*
X162439502Y-119094180D01*
X162475812Y-118974482D01*
X162478367Y-118948531D01*
X167719389Y-118948531D01*
X167761401Y-119238019D01*
X167859081Y-119513747D01*
X167932528Y-119651157D01*
X168181603Y-119728792D01*
X169030395Y-118880000D01*
X168181603Y-118031208D01*
X167932528Y-118108843D01*
X167806629Y-118372883D01*
X167734661Y-118656411D01*
X167719389Y-118948531D01*
X162478367Y-118948531D01*
X162488072Y-118850000D01*
X162485000Y-118285750D01*
X162326250Y-118127000D01*
X161127000Y-118127000D01*
X161127000Y-118147000D01*
X160873000Y-118147000D01*
X160873000Y-118127000D01*
X160853000Y-118127000D01*
X160853000Y-117873000D01*
X160873000Y-117873000D01*
X160873000Y-117853000D01*
X161127000Y-117853000D01*
X161127000Y-117873000D01*
X162326250Y-117873000D01*
X162485000Y-117714250D01*
X162486882Y-117368397D01*
X168361208Y-117368397D01*
X168436514Y-117610000D01*
X168361208Y-117851603D01*
X169210000Y-118700395D01*
X170058792Y-117851603D01*
X169983486Y-117610000D01*
X170058792Y-117368397D01*
X169210000Y-116519605D01*
X168361208Y-117368397D01*
X162486882Y-117368397D01*
X162488072Y-117150000D01*
X162475812Y-117025518D01*
X162439502Y-116905820D01*
X162380537Y-116795506D01*
X162301185Y-116698815D01*
X162204494Y-116619463D01*
X162094180Y-116560498D01*
X162021620Y-116538487D01*
X162151576Y-116408531D01*
X167719389Y-116408531D01*
X167761401Y-116698019D01*
X167859081Y-116973747D01*
X167932528Y-117111157D01*
X168181603Y-117188792D01*
X169030395Y-116340000D01*
X168181603Y-115491208D01*
X167932528Y-115568843D01*
X167806629Y-115832883D01*
X167734661Y-116116411D01*
X167719389Y-116408531D01*
X162151576Y-116408531D01*
X162153475Y-116406632D01*
X162315990Y-116163411D01*
X162427932Y-115893158D01*
X162485000Y-115606260D01*
X162485000Y-115313740D01*
X162427932Y-115026842D01*
X162345734Y-114828397D01*
X168361208Y-114828397D01*
X168436514Y-115070000D01*
X168361208Y-115311603D01*
X169210000Y-116160395D01*
X170058792Y-115311603D01*
X169983486Y-115070000D01*
X170058792Y-114828397D01*
X169210000Y-113979605D01*
X168361208Y-114828397D01*
X162345734Y-114828397D01*
X162315990Y-114756589D01*
X162153475Y-114513368D01*
X161946632Y-114306525D01*
X161772240Y-114190000D01*
X161946632Y-114073475D01*
X162151576Y-113868531D01*
X167719389Y-113868531D01*
X167761401Y-114158019D01*
X167859081Y-114433747D01*
X167932528Y-114571157D01*
X168181603Y-114648792D01*
X169030395Y-113800000D01*
X168181603Y-112951208D01*
X167932528Y-113028843D01*
X167806629Y-113292883D01*
X167734661Y-113576411D01*
X167719389Y-113868531D01*
X162151576Y-113868531D01*
X162153475Y-113866632D01*
X162315990Y-113623411D01*
X162427932Y-113353158D01*
X162485000Y-113066260D01*
X162485000Y-112773740D01*
X162427932Y-112486842D01*
X162315990Y-112216589D01*
X162153475Y-111973368D01*
X161946632Y-111766525D01*
X161703411Y-111604010D01*
X161433158Y-111492068D01*
X161146260Y-111435000D01*
X160853740Y-111435000D01*
X160566842Y-111492068D01*
X160296589Y-111604010D01*
X160053368Y-111766525D01*
X159846525Y-111973368D01*
X159684010Y-112216589D01*
X159572068Y-112486842D01*
X159515000Y-112773740D01*
X159515000Y-113066260D01*
X159529461Y-113138960D01*
X158404940Y-114263482D01*
X158371173Y-114291194D01*
X158343460Y-114324962D01*
X158343457Y-114324965D01*
X158260579Y-114425952D01*
X158178401Y-114579698D01*
X158127794Y-114746521D01*
X158127000Y-114754583D01*
X158127000Y-98279872D01*
X158265000Y-98279872D01*
X158265000Y-98720128D01*
X158350890Y-99151925D01*
X158519369Y-99558669D01*
X158763962Y-99924729D01*
X159075271Y-100236038D01*
X159441331Y-100480631D01*
X159848075Y-100649110D01*
X160279872Y-100735000D01*
X160720128Y-100735000D01*
X161151925Y-100649110D01*
X161558669Y-100480631D01*
X161924729Y-100236038D01*
X162236038Y-99924729D01*
X162285970Y-99850000D01*
X181511928Y-99850000D01*
X181524188Y-99974482D01*
X181560498Y-100094180D01*
X181619463Y-100204494D01*
X181698815Y-100301185D01*
X181795506Y-100380537D01*
X181905820Y-100439502D01*
X182025518Y-100475812D01*
X182150000Y-100488072D01*
X182714250Y-100485000D01*
X182873000Y-100326250D01*
X182873000Y-99127000D01*
X181673750Y-99127000D01*
X181515000Y-99285750D01*
X181511928Y-99850000D01*
X162285970Y-99850000D01*
X162480631Y-99558669D01*
X162649110Y-99151925D01*
X162735000Y-98720128D01*
X162735000Y-98279872D01*
X162709167Y-98150000D01*
X181511928Y-98150000D01*
X181515000Y-98714250D01*
X181673750Y-98873000D01*
X182873000Y-98873000D01*
X182873000Y-97673750D01*
X182714250Y-97515000D01*
X182150000Y-97511928D01*
X182025518Y-97524188D01*
X181905820Y-97560498D01*
X181795506Y-97619463D01*
X181698815Y-97698815D01*
X181619463Y-97795506D01*
X181560498Y-97905820D01*
X181524188Y-98025518D01*
X181511928Y-98150000D01*
X162709167Y-98150000D01*
X162649110Y-97848075D01*
X162480631Y-97441331D01*
X162236038Y-97075271D01*
X161924729Y-96763962D01*
X161558669Y-96519369D01*
X161151925Y-96350890D01*
X160720128Y-96265000D01*
X160279872Y-96265000D01*
X159848075Y-96350890D01*
X159441331Y-96519369D01*
X159075271Y-96763962D01*
X158763962Y-97075271D01*
X158519369Y-97441331D01*
X158350890Y-97848075D01*
X158265000Y-98279872D01*
X158127000Y-98279872D01*
X158127000Y-96193281D01*
X195873000Y-96193281D01*
X195873000Y-133939281D01*
G36*
X171877000Y-126373000D02*
G01*
X171897000Y-126373000D01*
X171897000Y-126627000D01*
X171877000Y-126627000D01*
X171877000Y-126647000D01*
X171623000Y-126647000D01*
X171623000Y-126627000D01*
X171603000Y-126627000D01*
X171603000Y-126373000D01*
X171623000Y-126373000D01*
X171623000Y-126353000D01*
X171877000Y-126353000D01*
X171877000Y-126373000D01*
G37*
X171877000Y-126373000D02*
X171897000Y-126373000D01*
X171897000Y-126627000D01*
X171877000Y-126627000D01*
X171877000Y-126647000D01*
X171623000Y-126647000D01*
X171623000Y-126627000D01*
X171603000Y-126627000D01*
X171603000Y-126373000D01*
X171623000Y-126373000D01*
X171623000Y-126353000D01*
X171877000Y-126353000D01*
X171877000Y-126373000D01*
G36*
X193415002Y-103662579D02*
G01*
X193415001Y-111514296D01*
X193285750Y-111515000D01*
X193127000Y-111673750D01*
X193127000Y-112873000D01*
X193147000Y-112873000D01*
X193147000Y-113127000D01*
X193127000Y-113127000D01*
X193127000Y-113147000D01*
X192873000Y-113147000D01*
X192873000Y-113127000D01*
X191673750Y-113127000D01*
X191515000Y-113285750D01*
X191511928Y-113850000D01*
X191524188Y-113974482D01*
X191560498Y-114094180D01*
X191619463Y-114204494D01*
X191698815Y-114301185D01*
X191795506Y-114380537D01*
X191905820Y-114439502D01*
X191978380Y-114461513D01*
X191846525Y-114593368D01*
X191684010Y-114836589D01*
X191572068Y-115106842D01*
X191515000Y-115393740D01*
X191515000Y-115686260D01*
X191572068Y-115973158D01*
X191684010Y-116243411D01*
X191846525Y-116486632D01*
X192053368Y-116693475D01*
X192227760Y-116810000D01*
X192053368Y-116926525D01*
X191846525Y-117133368D01*
X191684010Y-117376589D01*
X191572068Y-117646842D01*
X191515000Y-117933740D01*
X191515000Y-118226260D01*
X191529461Y-118298960D01*
X188013412Y-121815010D01*
X186186568Y-121815010D01*
X188675050Y-119326529D01*
X188708817Y-119298817D01*
X188762443Y-119233475D01*
X188819410Y-119164060D01*
X188819411Y-119164059D01*
X188901589Y-119010313D01*
X188952195Y-118843490D01*
X188965000Y-118713477D01*
X188965000Y-118713467D01*
X188969281Y-118670001D01*
X188965000Y-118626535D01*
X188965000Y-112150000D01*
X191511928Y-112150000D01*
X191515000Y-112714250D01*
X191673750Y-112873000D01*
X192873000Y-112873000D01*
X192873000Y-111673750D01*
X192714250Y-111515000D01*
X192150000Y-111511928D01*
X192025518Y-111524188D01*
X191905820Y-111560498D01*
X191795506Y-111619463D01*
X191698815Y-111698815D01*
X191619463Y-111795506D01*
X191560498Y-111905820D01*
X191524188Y-112025518D01*
X191511928Y-112150000D01*
X188965000Y-112150000D01*
X188965000Y-100194656D01*
X189026632Y-100153475D01*
X189233475Y-99946632D01*
X189395990Y-99703411D01*
X189413518Y-99661094D01*
X193415002Y-103662579D01*
G37*
X193415002Y-103662579D02*
X193415001Y-111514296D01*
X193285750Y-111515000D01*
X193127000Y-111673750D01*
X193127000Y-112873000D01*
X193147000Y-112873000D01*
X193147000Y-113127000D01*
X193127000Y-113127000D01*
X193127000Y-113147000D01*
X192873000Y-113147000D01*
X192873000Y-113127000D01*
X191673750Y-113127000D01*
X191515000Y-113285750D01*
X191511928Y-113850000D01*
X191524188Y-113974482D01*
X191560498Y-114094180D01*
X191619463Y-114204494D01*
X191698815Y-114301185D01*
X191795506Y-114380537D01*
X191905820Y-114439502D01*
X191978380Y-114461513D01*
X191846525Y-114593368D01*
X191684010Y-114836589D01*
X191572068Y-115106842D01*
X191515000Y-115393740D01*
X191515000Y-115686260D01*
X191572068Y-115973158D01*
X191684010Y-116243411D01*
X191846525Y-116486632D01*
X192053368Y-116693475D01*
X192227760Y-116810000D01*
X192053368Y-116926525D01*
X191846525Y-117133368D01*
X191684010Y-117376589D01*
X191572068Y-117646842D01*
X191515000Y-117933740D01*
X191515000Y-118226260D01*
X191529461Y-118298960D01*
X188013412Y-121815010D01*
X186186568Y-121815010D01*
X188675050Y-119326529D01*
X188708817Y-119298817D01*
X188762443Y-119233475D01*
X188819410Y-119164060D01*
X188819411Y-119164059D01*
X188901589Y-119010313D01*
X188952195Y-118843490D01*
X188965000Y-118713477D01*
X188965000Y-118713467D01*
X188969281Y-118670001D01*
X188965000Y-118626535D01*
X188965000Y-112150000D01*
X191511928Y-112150000D01*
X191515000Y-112714250D01*
X191673750Y-112873000D01*
X192873000Y-112873000D01*
X192873000Y-111673750D01*
X192714250Y-111515000D01*
X192150000Y-111511928D01*
X192025518Y-111524188D01*
X191905820Y-111560498D01*
X191795506Y-111619463D01*
X191698815Y-111698815D01*
X191619463Y-111795506D01*
X191560498Y-111905820D01*
X191524188Y-112025518D01*
X191511928Y-112150000D01*
X188965000Y-112150000D01*
X188965000Y-100194656D01*
X189026632Y-100153475D01*
X189233475Y-99946632D01*
X189395990Y-99703411D01*
X189413518Y-99661094D01*
X193415002Y-103662579D01*
%TD*%
M02*
