M48
; DRILL file {KiCad 5.1.6-c6e7f7d~87~ubuntu18.04.1} date Tue May 18 20:14:32 2021
; FORMAT={2:4/ absolute / inch / suppress leading zeros}
; #@! TF.CreationDate,2021-05-18T20:14:32+01:00
; #@! TF.GenerationSoftware,Kicad,Pcbnew,5.1.6-c6e7f7d~87~ubuntu18.04.1
FMAT,2
INCH,TZ
T1C0.0157
T2C0.0374
T3C0.0394
T4C0.1260
%
G90
G05
T1
X68110Y-50886
T2
X71850Y-43898
X71850Y-44882
X71850Y-45866
X71850Y-46850
T3
X75984Y-44488
X75984Y-45488
X75984Y-46488
X72016Y-51575
X73016Y-51575
X74016Y-51575
X66618Y-40803
X66618Y-41803
X66618Y-42803
X66618Y-43803
X66618Y-44803
X66618Y-45803
X66618Y-46803
X66618Y-47803
X66618Y-48803
X66618Y-49803
X67618Y-40803
X67618Y-41803
X67618Y-42803
X67618Y-43803
X67618Y-44803
X67618Y-45803
X67618Y-46803
X67618Y-47803
X67618Y-48803
X67618Y-49803
X72047Y-38976
X73047Y-38976
X74047Y-38976
X63386Y-44457
X63386Y-45457
X63386Y-46457
T4
X76181Y-51772
X76181Y-38780
X63189Y-51772
X63189Y-38780
T0
M30
