G04 #@! TF.GenerationSoftware,KiCad,Pcbnew,5.1.6-c6e7f7d~87~ubuntu18.04.1*
G04 #@! TF.CreationDate,2021-05-18T20:00:01+01:00*
G04 #@! TF.ProjectId,CheeseShield,43686565-7365-4536-9869-656c642e6b69,rev?*
G04 #@! TF.SameCoordinates,Original*
G04 #@! TF.FileFunction,Legend,Top*
G04 #@! TF.FilePolarity,Positive*
%FSLAX46Y46*%
G04 Gerber Fmt 4.6, Leading zero omitted, Abs format (unit mm)*
G04 Created by KiCad (PCBNEW 5.1.6-c6e7f7d~87~ubuntu18.04.1) date 2021-05-18 20:00:01*
%MOMM*%
%LPD*%
G01*
G04 APERTURE LIST*
%ADD10C,0.150000*%
%ADD11C,0.125000*%
%ADD12C,0.100000*%
%ADD13C,0.200000*%
%ADD14C,0.120000*%
G04 APERTURE END LIST*
D10*
X86366666Y-7861904D02*
X86100000Y-7480952D01*
X85909523Y-7861904D02*
X85909523Y-7061904D01*
X86214285Y-7061904D01*
X86290476Y-7100000D01*
X86328571Y-7138095D01*
X86366666Y-7214285D01*
X86366666Y-7328571D01*
X86328571Y-7404761D01*
X86290476Y-7442857D01*
X86214285Y-7480952D01*
X85909523Y-7480952D01*
X86633333Y-7061904D02*
X87166666Y-7861904D01*
X87166666Y-7061904D02*
X86633333Y-7861904D01*
D11*
X83390476Y-7061904D02*
X83847619Y-7061904D01*
X83619047Y-7861904D02*
X83619047Y-7061904D01*
X84038095Y-7061904D02*
X84571428Y-7861904D01*
X84571428Y-7061904D02*
X84038095Y-7861904D01*
D10*
X83866666Y-861904D02*
X83600000Y-480952D01*
X83409523Y-861904D02*
X83409523Y-61904D01*
X83714285Y-61904D01*
X83790476Y-100000D01*
X83828571Y-138095D01*
X83866666Y-214285D01*
X83866666Y-328571D01*
X83828571Y-404761D01*
X83790476Y-442857D01*
X83714285Y-480952D01*
X83409523Y-480952D01*
X84133333Y-61904D02*
X84666666Y-861904D01*
X84666666Y-61904D02*
X84133333Y-861904D01*
D11*
X85890476Y-61904D02*
X86347619Y-61904D01*
X86119047Y-861904D02*
X86119047Y-61904D01*
X86538095Y-61904D02*
X87071428Y-861904D01*
X87071428Y-61904D02*
X86538095Y-861904D01*
D10*
X88654761Y7872619D02*
X88654761Y8872619D01*
X89035714Y8872619D01*
X89130952Y8825000D01*
X89178571Y8777380D01*
X89226190Y8682142D01*
X89226190Y8539285D01*
X89178571Y8444047D01*
X89130952Y8396428D01*
X89035714Y8348809D01*
X88654761Y8348809D01*
X89654761Y7872619D02*
X89654761Y8539285D01*
X89654761Y8872619D02*
X89607142Y8825000D01*
X89654761Y8777380D01*
X89702380Y8825000D01*
X89654761Y8872619D01*
X89654761Y8777380D01*
X90845238Y8920238D02*
X89988095Y7634523D01*
X91511904Y8396428D02*
X91654761Y8348809D01*
X91702380Y8301190D01*
X91750000Y8205952D01*
X91750000Y8063095D01*
X91702380Y7967857D01*
X91654761Y7920238D01*
X91559523Y7872619D01*
X91178571Y7872619D01*
X91178571Y8872619D01*
X91511904Y8872619D01*
X91607142Y8825000D01*
X91654761Y8777380D01*
X91702380Y8682142D01*
X91702380Y8586904D01*
X91654761Y8491666D01*
X91607142Y8444047D01*
X91511904Y8396428D01*
X91178571Y8396428D01*
X92321428Y7872619D02*
X92226190Y7920238D01*
X92178571Y8015476D01*
X92178571Y8872619D01*
X93130952Y8539285D02*
X93130952Y7872619D01*
X92702380Y8539285D02*
X92702380Y8015476D01*
X92750000Y7920238D01*
X92845238Y7872619D01*
X92988095Y7872619D01*
X93083333Y7920238D01*
X93130952Y7967857D01*
X93988095Y7920238D02*
X93892857Y7872619D01*
X93702380Y7872619D01*
X93607142Y7920238D01*
X93559523Y8015476D01*
X93559523Y8396428D01*
X93607142Y8491666D01*
X93702380Y8539285D01*
X93892857Y8539285D01*
X93988095Y8491666D01*
X94035714Y8396428D01*
X94035714Y8301190D01*
X93559523Y8205952D01*
X94321428Y8539285D02*
X94702380Y8539285D01*
X94464285Y8872619D02*
X94464285Y8015476D01*
X94511904Y7920238D01*
X94607142Y7872619D01*
X94702380Y7872619D01*
X95178571Y7872619D02*
X95083333Y7920238D01*
X95035714Y7967857D01*
X94988095Y8063095D01*
X94988095Y8348809D01*
X95035714Y8444047D01*
X95083333Y8491666D01*
X95178571Y8539285D01*
X95321428Y8539285D01*
X95416666Y8491666D01*
X95464285Y8444047D01*
X95511904Y8348809D01*
X95511904Y8063095D01*
X95464285Y7967857D01*
X95416666Y7920238D01*
X95321428Y7872619D01*
X95178571Y7872619D01*
X96083333Y7872619D02*
X95988095Y7920238D01*
X95940476Y7967857D01*
X95892857Y8063095D01*
X95892857Y8348809D01*
X95940476Y8444047D01*
X95988095Y8491666D01*
X96083333Y8539285D01*
X96226190Y8539285D01*
X96321428Y8491666D01*
X96369047Y8444047D01*
X96416666Y8348809D01*
X96416666Y8063095D01*
X96369047Y7967857D01*
X96321428Y7920238D01*
X96226190Y7872619D01*
X96083333Y7872619D01*
X96702380Y8539285D02*
X97083333Y8539285D01*
X96845238Y8872619D02*
X96845238Y8015476D01*
X96892857Y7920238D01*
X96988095Y7872619D01*
X97083333Y7872619D01*
X97416666Y7872619D02*
X97416666Y8872619D01*
X97845238Y7872619D02*
X97845238Y8396428D01*
X97797619Y8491666D01*
X97702380Y8539285D01*
X97559523Y8539285D01*
X97464285Y8491666D01*
X97416666Y8444047D01*
X89916666Y6317857D02*
X89869047Y6270238D01*
X89726190Y6222619D01*
X89630952Y6222619D01*
X89488095Y6270238D01*
X89392857Y6365476D01*
X89345238Y6460714D01*
X89297619Y6651190D01*
X89297619Y6794047D01*
X89345238Y6984523D01*
X89392857Y7079761D01*
X89488095Y7175000D01*
X89630952Y7222619D01*
X89726190Y7222619D01*
X89869047Y7175000D01*
X89916666Y7127380D01*
X90488095Y6222619D02*
X90392857Y6270238D01*
X90345238Y6317857D01*
X90297619Y6413095D01*
X90297619Y6698809D01*
X90345238Y6794047D01*
X90392857Y6841666D01*
X90488095Y6889285D01*
X90630952Y6889285D01*
X90726190Y6841666D01*
X90773809Y6794047D01*
X90821428Y6698809D01*
X90821428Y6413095D01*
X90773809Y6317857D01*
X90726190Y6270238D01*
X90630952Y6222619D01*
X90488095Y6222619D01*
X91250000Y6889285D02*
X91250000Y6222619D01*
X91250000Y6794047D02*
X91297619Y6841666D01*
X91392857Y6889285D01*
X91535714Y6889285D01*
X91630952Y6841666D01*
X91678571Y6746428D01*
X91678571Y6222619D01*
X92154761Y6889285D02*
X92154761Y6222619D01*
X92154761Y6794047D02*
X92202380Y6841666D01*
X92297619Y6889285D01*
X92440476Y6889285D01*
X92535714Y6841666D01*
X92583333Y6746428D01*
X92583333Y6222619D01*
X93440476Y6270238D02*
X93345238Y6222619D01*
X93154761Y6222619D01*
X93059523Y6270238D01*
X93011904Y6365476D01*
X93011904Y6746428D01*
X93059523Y6841666D01*
X93154761Y6889285D01*
X93345238Y6889285D01*
X93440476Y6841666D01*
X93488095Y6746428D01*
X93488095Y6651190D01*
X93011904Y6555952D01*
X94345238Y6270238D02*
X94250000Y6222619D01*
X94059523Y6222619D01*
X93964285Y6270238D01*
X93916666Y6317857D01*
X93869047Y6413095D01*
X93869047Y6698809D01*
X93916666Y6794047D01*
X93964285Y6841666D01*
X94059523Y6889285D01*
X94250000Y6889285D01*
X94345238Y6841666D01*
X94630952Y6889285D02*
X95011904Y6889285D01*
X94773809Y7222619D02*
X94773809Y6365476D01*
X94821428Y6270238D01*
X94916666Y6222619D01*
X95011904Y6222619D01*
X95345238Y6222619D02*
X95345238Y6889285D01*
X95345238Y7222619D02*
X95297619Y7175000D01*
X95345238Y7127380D01*
X95392857Y7175000D01*
X95345238Y7222619D01*
X95345238Y7127380D01*
X95964285Y6222619D02*
X95869047Y6270238D01*
X95821428Y6317857D01*
X95773809Y6413095D01*
X95773809Y6698809D01*
X95821428Y6794047D01*
X95869047Y6841666D01*
X95964285Y6889285D01*
X96107142Y6889285D01*
X96202380Y6841666D01*
X96250000Y6794047D01*
X96297619Y6698809D01*
X96297619Y6413095D01*
X96250000Y6317857D01*
X96202380Y6270238D01*
X96107142Y6222619D01*
X95964285Y6222619D01*
X96726190Y6889285D02*
X96726190Y6222619D01*
X96726190Y6794047D02*
X96773809Y6841666D01*
X96869047Y6889285D01*
X97011904Y6889285D01*
X97107142Y6841666D01*
X97154761Y6746428D01*
X97154761Y6222619D01*
X67547619Y7597619D02*
X67738095Y7597619D01*
X67833333Y7550000D01*
X67928571Y7454761D01*
X67976190Y7264285D01*
X67976190Y6930952D01*
X67928571Y6740476D01*
X67833333Y6645238D01*
X67738095Y6597619D01*
X67547619Y6597619D01*
X67452380Y6645238D01*
X67357142Y6740476D01*
X67309523Y6930952D01*
X67309523Y7264285D01*
X67357142Y7454761D01*
X67452380Y7550000D01*
X67547619Y7597619D01*
X68833333Y7264285D02*
X68833333Y6597619D01*
X68404761Y7264285D02*
X68404761Y6740476D01*
X68452380Y6645238D01*
X68547619Y6597619D01*
X68690476Y6597619D01*
X68785714Y6645238D01*
X68833333Y6692857D01*
X69166666Y7264285D02*
X69547619Y7264285D01*
X69309523Y7597619D02*
X69309523Y6740476D01*
X69357142Y6645238D01*
X69452380Y6597619D01*
X69547619Y6597619D01*
X69880952Y6978571D02*
X70642857Y6978571D01*
X96390476Y-1138095D02*
X96428571Y-1100000D01*
X96504761Y-1061904D01*
X96695238Y-1061904D01*
X96771428Y-1100000D01*
X96809523Y-1138095D01*
X96847619Y-1214285D01*
X96847619Y-1290476D01*
X96809523Y-1404761D01*
X96352380Y-1861904D01*
X96847619Y-1861904D01*
X97114285Y-1861904D02*
X97533333Y-1328571D01*
X97114285Y-1328571D02*
X97533333Y-1861904D01*
X98257142Y-1861904D02*
X97800000Y-1861904D01*
X98028571Y-1861904D02*
X98028571Y-1061904D01*
X97952380Y-1176190D01*
X97876190Y-1252380D01*
X97800000Y-1290476D01*
X98752380Y-1061904D02*
X98828571Y-1061904D01*
X98904761Y-1100000D01*
X98942857Y-1138095D01*
X98980952Y-1214285D01*
X99019047Y-1366666D01*
X99019047Y-1557142D01*
X98980952Y-1709523D01*
X98942857Y-1785714D01*
X98904761Y-1823809D01*
X98828571Y-1861904D01*
X98752380Y-1861904D01*
X98676190Y-1823809D01*
X98638095Y-1785714D01*
X98600000Y-1709523D01*
X98561904Y-1557142D01*
X98561904Y-1366666D01*
X98600000Y-1214285D01*
X98638095Y-1138095D01*
X98676190Y-1100000D01*
X98752380Y-1061904D01*
X99971428Y-1861904D02*
X99971428Y-1061904D01*
X100352380Y-1861904D02*
X100352380Y-1061904D01*
X100542857Y-1061904D01*
X100657142Y-1100000D01*
X100733333Y-1176190D01*
X100771428Y-1252380D01*
X100809523Y-1404761D01*
X100809523Y-1519047D01*
X100771428Y-1671428D01*
X100733333Y-1747619D01*
X100657142Y-1823809D01*
X100542857Y-1861904D01*
X100352380Y-1861904D01*
X101609523Y-1785714D02*
X101571428Y-1823809D01*
X101457142Y-1861904D01*
X101380952Y-1861904D01*
X101266666Y-1823809D01*
X101190476Y-1747619D01*
X101152380Y-1671428D01*
X101114285Y-1519047D01*
X101114285Y-1404761D01*
X101152380Y-1252380D01*
X101190476Y-1176190D01*
X101266666Y-1100000D01*
X101380952Y-1061904D01*
X101457142Y-1061904D01*
X101571428Y-1100000D01*
X101609523Y-1138095D01*
X75471428Y-3152380D02*
X74995238Y-3152380D01*
X74947619Y-3628571D01*
X74995238Y-3580952D01*
X75090476Y-3533333D01*
X75328571Y-3533333D01*
X75423809Y-3580952D01*
X75471428Y-3628571D01*
X75519047Y-3723809D01*
X75519047Y-3961904D01*
X75471428Y-4057142D01*
X75423809Y-4104761D01*
X75328571Y-4152380D01*
X75090476Y-4152380D01*
X74995238Y-4104761D01*
X74947619Y-4057142D01*
X75804761Y-3152380D02*
X76138095Y-4152380D01*
X76471428Y-3152380D01*
X78328571Y-3485714D02*
X77566666Y-3771428D01*
X78328571Y-4057142D01*
X78804761Y-3771428D02*
X79566666Y-3771428D01*
X80042857Y-3485714D02*
X80804761Y-3771428D01*
X80042857Y-4057142D01*
X81947619Y-3152380D02*
X82566666Y-3152380D01*
X82233333Y-3533333D01*
X82376190Y-3533333D01*
X82471428Y-3580952D01*
X82519047Y-3628571D01*
X82566666Y-3723809D01*
X82566666Y-3961904D01*
X82519047Y-4057142D01*
X82471428Y-4104761D01*
X82376190Y-4152380D01*
X82090476Y-4152380D01*
X81995238Y-4104761D01*
X81947619Y-4057142D01*
X82995238Y-4057142D02*
X83042857Y-4104761D01*
X82995238Y-4152380D01*
X82947619Y-4104761D01*
X82995238Y-4057142D01*
X82995238Y-4152380D01*
X83376190Y-3152380D02*
X83995238Y-3152380D01*
X83661904Y-3533333D01*
X83804761Y-3533333D01*
X83900000Y-3580952D01*
X83947619Y-3628571D01*
X83995238Y-3723809D01*
X83995238Y-3961904D01*
X83947619Y-4057142D01*
X83900000Y-4104761D01*
X83804761Y-4152380D01*
X83519047Y-4152380D01*
X83423809Y-4104761D01*
X83376190Y-4057142D01*
X84280952Y-3152380D02*
X84614285Y-4152380D01*
X84947619Y-3152380D01*
X74880952Y-2702380D02*
X74404761Y-2702380D01*
X74404761Y-1702380D01*
X75595238Y-2654761D02*
X75500000Y-2702380D01*
X75309523Y-2702380D01*
X75214285Y-2654761D01*
X75166666Y-2559523D01*
X75166666Y-2178571D01*
X75214285Y-2083333D01*
X75309523Y-2035714D01*
X75500000Y-2035714D01*
X75595238Y-2083333D01*
X75642857Y-2178571D01*
X75642857Y-2273809D01*
X75166666Y-2369047D01*
X75976190Y-2035714D02*
X76214285Y-2702380D01*
X76452380Y-2035714D01*
X77214285Y-2654761D02*
X77119047Y-2702380D01*
X76928571Y-2702380D01*
X76833333Y-2654761D01*
X76785714Y-2559523D01*
X76785714Y-2178571D01*
X76833333Y-2083333D01*
X76928571Y-2035714D01*
X77119047Y-2035714D01*
X77214285Y-2083333D01*
X77261904Y-2178571D01*
X77261904Y-2273809D01*
X76785714Y-2369047D01*
X77833333Y-2702380D02*
X77738095Y-2654761D01*
X77690476Y-2559523D01*
X77690476Y-1702380D01*
X79547619Y-2607142D02*
X79500000Y-2654761D01*
X79357142Y-2702380D01*
X79261904Y-2702380D01*
X79119047Y-2654761D01*
X79023809Y-2559523D01*
X78976190Y-2464285D01*
X78928571Y-2273809D01*
X78928571Y-2130952D01*
X78976190Y-1940476D01*
X79023809Y-1845238D01*
X79119047Y-1750000D01*
X79261904Y-1702380D01*
X79357142Y-1702380D01*
X79500000Y-1750000D01*
X79547619Y-1797619D01*
X80119047Y-2702380D02*
X80023809Y-2654761D01*
X79976190Y-2607142D01*
X79928571Y-2511904D01*
X79928571Y-2226190D01*
X79976190Y-2130952D01*
X80023809Y-2083333D01*
X80119047Y-2035714D01*
X80261904Y-2035714D01*
X80357142Y-2083333D01*
X80404761Y-2130952D01*
X80452380Y-2226190D01*
X80452380Y-2511904D01*
X80404761Y-2607142D01*
X80357142Y-2654761D01*
X80261904Y-2702380D01*
X80119047Y-2702380D01*
X80880952Y-2035714D02*
X80880952Y-2702380D01*
X80880952Y-2130952D02*
X80928571Y-2083333D01*
X81023809Y-2035714D01*
X81166666Y-2035714D01*
X81261904Y-2083333D01*
X81309523Y-2178571D01*
X81309523Y-2702380D01*
X81690476Y-2035714D02*
X81928571Y-2702380D01*
X82166666Y-2035714D01*
X82928571Y-2654761D02*
X82833333Y-2702380D01*
X82642857Y-2702380D01*
X82547619Y-2654761D01*
X82500000Y-2559523D01*
X82500000Y-2178571D01*
X82547619Y-2083333D01*
X82642857Y-2035714D01*
X82833333Y-2035714D01*
X82928571Y-2083333D01*
X82976190Y-2178571D01*
X82976190Y-2273809D01*
X82500000Y-2369047D01*
X83404761Y-2702380D02*
X83404761Y-2035714D01*
X83404761Y-2226190D02*
X83452380Y-2130952D01*
X83500000Y-2083333D01*
X83595238Y-2035714D01*
X83690476Y-2035714D01*
X83880952Y-2035714D02*
X84261904Y-2035714D01*
X84023809Y-1702380D02*
X84023809Y-2559523D01*
X84071428Y-2654761D01*
X84166666Y-2702380D01*
X84261904Y-2702380D01*
X84976190Y-2654761D02*
X84880952Y-2702380D01*
X84690476Y-2702380D01*
X84595238Y-2654761D01*
X84547619Y-2559523D01*
X84547619Y-2178571D01*
X84595238Y-2083333D01*
X84690476Y-2035714D01*
X84880952Y-2035714D01*
X84976190Y-2083333D01*
X85023809Y-2178571D01*
X85023809Y-2273809D01*
X84547619Y-2369047D01*
X85452380Y-2702380D02*
X85452380Y-2035714D01*
X85452380Y-2226190D02*
X85500000Y-2130952D01*
X85547619Y-2083333D01*
X85642857Y-2035714D01*
X85738095Y-2035714D01*
X87000000Y4000000D02*
X87000000Y7250000D01*
X82500000Y4000000D02*
X87000000Y4000000D01*
X82500000Y7250000D02*
X82500000Y4000000D01*
D11*
X84350000Y4388095D02*
X84350000Y5188095D01*
X84654761Y5188095D01*
X84730952Y5150000D01*
X84769047Y5111904D01*
X84807142Y5035714D01*
X84807142Y4921428D01*
X84769047Y4845238D01*
X84730952Y4807142D01*
X84654761Y4769047D01*
X84350000Y4769047D01*
X85150000Y4388095D02*
X85150000Y4921428D01*
X85150000Y5188095D02*
X85111904Y5150000D01*
X85150000Y5111904D01*
X85188095Y5150000D01*
X85150000Y5188095D01*
X85150000Y5111904D01*
X77890476Y6688095D02*
X78385714Y6688095D01*
X78119047Y6383333D01*
X78233333Y6383333D01*
X78309523Y6345238D01*
X78347619Y6307142D01*
X78385714Y6230952D01*
X78385714Y6040476D01*
X78347619Y5964285D01*
X78309523Y5926190D01*
X78233333Y5888095D01*
X78004761Y5888095D01*
X77928571Y5926190D01*
X77890476Y5964285D01*
X78614285Y6688095D02*
X78880952Y5888095D01*
X79147619Y6688095D01*
D10*
X83366666Y5888095D02*
X83100000Y6269047D01*
X82909523Y5888095D02*
X82909523Y6688095D01*
X83214285Y6688095D01*
X83290476Y6650000D01*
X83328571Y6611904D01*
X83366666Y6535714D01*
X83366666Y6421428D01*
X83328571Y6345238D01*
X83290476Y6307142D01*
X83214285Y6269047D01*
X82909523Y6269047D01*
X83633333Y6688095D02*
X84166666Y5888095D01*
X84166666Y6688095D02*
X83633333Y5888095D01*
D11*
X85390476Y6688095D02*
X85847619Y6688095D01*
X85619047Y5888095D02*
X85619047Y6688095D01*
X86038095Y6688095D02*
X86571428Y5888095D01*
X86571428Y6688095D02*
X86038095Y5888095D01*
X75140476Y6650000D02*
X75064285Y6688095D01*
X74950000Y6688095D01*
X74835714Y6650000D01*
X74759523Y6573809D01*
X74721428Y6497619D01*
X74683333Y6345238D01*
X74683333Y6230952D01*
X74721428Y6078571D01*
X74759523Y6002380D01*
X74835714Y5926190D01*
X74950000Y5888095D01*
X75026190Y5888095D01*
X75140476Y5926190D01*
X75178571Y5964285D01*
X75178571Y6230952D01*
X75026190Y6230952D01*
X75521428Y5888095D02*
X75521428Y6688095D01*
X75978571Y5888095D01*
X75978571Y6688095D01*
X76359523Y5888095D02*
X76359523Y6688095D01*
X76550000Y6688095D01*
X76664285Y6650000D01*
X76740476Y6573809D01*
X76778571Y6497619D01*
X76816666Y6345238D01*
X76816666Y6230952D01*
X76778571Y6078571D01*
X76740476Y6002380D01*
X76664285Y5926190D01*
X76550000Y5888095D01*
X76359523Y5888095D01*
X80847619Y6688095D02*
X80466666Y6688095D01*
X80428571Y6307142D01*
X80466666Y6345238D01*
X80542857Y6383333D01*
X80733333Y6383333D01*
X80809523Y6345238D01*
X80847619Y6307142D01*
X80885714Y6230952D01*
X80885714Y6040476D01*
X80847619Y5964285D01*
X80809523Y5926190D01*
X80733333Y5888095D01*
X80542857Y5888095D01*
X80466666Y5926190D01*
X80428571Y5964285D01*
X81114285Y6688095D02*
X81380952Y5888095D01*
X81647619Y6688095D01*
D12*
X113654761Y1023809D02*
X113416666Y1023809D01*
X113392857Y785714D01*
X113416666Y809523D01*
X113464285Y833333D01*
X113583333Y833333D01*
X113630952Y809523D01*
X113654761Y785714D01*
X113678571Y738095D01*
X113678571Y619047D01*
X113654761Y571428D01*
X113630952Y547619D01*
X113583333Y523809D01*
X113464285Y523809D01*
X113416666Y547619D01*
X113392857Y571428D01*
X113821428Y1023809D02*
X113988095Y523809D01*
X114154761Y1023809D01*
X113654761Y-10476190D02*
X113416666Y-10476190D01*
X113392857Y-10714285D01*
X113416666Y-10690476D01*
X113464285Y-10666666D01*
X113583333Y-10666666D01*
X113630952Y-10690476D01*
X113654761Y-10714285D01*
X113678571Y-10761904D01*
X113678571Y-10880952D01*
X113654761Y-10928571D01*
X113630952Y-10952380D01*
X113583333Y-10976190D01*
X113464285Y-10976190D01*
X113416666Y-10952380D01*
X113392857Y-10928571D01*
X113821428Y-10476190D02*
X113988095Y-10976190D01*
X114154761Y-10476190D01*
X113654761Y-21976190D02*
X113416666Y-21976190D01*
X113392857Y-22214285D01*
X113416666Y-22190476D01*
X113464285Y-22166666D01*
X113583333Y-22166666D01*
X113630952Y-22190476D01*
X113654761Y-22214285D01*
X113678571Y-22261904D01*
X113678571Y-22380952D01*
X113654761Y-22428571D01*
X113630952Y-22452380D01*
X113583333Y-22476190D01*
X113464285Y-22476190D01*
X113416666Y-22452380D01*
X113392857Y-22428571D01*
X113821428Y-21976190D02*
X113988095Y-22476190D01*
X114154761Y-21976190D01*
X118619047Y-22000000D02*
X118571428Y-21976190D01*
X118500000Y-21976190D01*
X118428571Y-22000000D01*
X118380952Y-22047619D01*
X118357142Y-22095238D01*
X118333333Y-22190476D01*
X118333333Y-22261904D01*
X118357142Y-22357142D01*
X118380952Y-22404761D01*
X118428571Y-22452380D01*
X118500000Y-22476190D01*
X118547619Y-22476190D01*
X118619047Y-22452380D01*
X118642857Y-22428571D01*
X118642857Y-22261904D01*
X118547619Y-22261904D01*
X118857142Y-22476190D02*
X118857142Y-21976190D01*
X119142857Y-22476190D01*
X119142857Y-21976190D01*
X119380952Y-22476190D02*
X119380952Y-21976190D01*
X119500000Y-21976190D01*
X119571428Y-22000000D01*
X119619047Y-22047619D01*
X119642857Y-22095238D01*
X119666666Y-22190476D01*
X119666666Y-22261904D01*
X119642857Y-22357142D01*
X119619047Y-22404761D01*
X119571428Y-22452380D01*
X119500000Y-22476190D01*
X119380952Y-22476190D01*
X118619047Y-10500000D02*
X118571428Y-10476190D01*
X118500000Y-10476190D01*
X118428571Y-10500000D01*
X118380952Y-10547619D01*
X118357142Y-10595238D01*
X118333333Y-10690476D01*
X118333333Y-10761904D01*
X118357142Y-10857142D01*
X118380952Y-10904761D01*
X118428571Y-10952380D01*
X118500000Y-10976190D01*
X118547619Y-10976190D01*
X118619047Y-10952380D01*
X118642857Y-10928571D01*
X118642857Y-10761904D01*
X118547619Y-10761904D01*
X118857142Y-10976190D02*
X118857142Y-10476190D01*
X119142857Y-10976190D01*
X119142857Y-10476190D01*
X119380952Y-10976190D02*
X119380952Y-10476190D01*
X119500000Y-10476190D01*
X119571428Y-10500000D01*
X119619047Y-10547619D01*
X119642857Y-10595238D01*
X119666666Y-10690476D01*
X119666666Y-10761904D01*
X119642857Y-10857142D01*
X119619047Y-10904761D01*
X119571428Y-10952380D01*
X119500000Y-10976190D01*
X119380952Y-10976190D01*
X118619047Y1000000D02*
X118571428Y1023809D01*
X118500000Y1023809D01*
X118428571Y1000000D01*
X118380952Y952380D01*
X118357142Y904761D01*
X118333333Y809523D01*
X118333333Y738095D01*
X118357142Y642857D01*
X118380952Y595238D01*
X118428571Y547619D01*
X118500000Y523809D01*
X118547619Y523809D01*
X118619047Y547619D01*
X118642857Y571428D01*
X118642857Y738095D01*
X118547619Y738095D01*
X118857142Y523809D02*
X118857142Y1023809D01*
X119142857Y523809D01*
X119142857Y1023809D01*
X119380952Y523809D02*
X119380952Y1023809D01*
X119500000Y1023809D01*
X119571428Y1000000D01*
X119619047Y952380D01*
X119642857Y904761D01*
X119666666Y809523D01*
X119666666Y738095D01*
X119642857Y642857D01*
X119619047Y595238D01*
X119571428Y547619D01*
X119500000Y523809D01*
X119380952Y523809D01*
D11*
X117404761Y8523809D02*
X117166666Y8523809D01*
X117142857Y8285714D01*
X117166666Y8309523D01*
X117214285Y8333333D01*
X117333333Y8333333D01*
X117380952Y8309523D01*
X117404761Y8285714D01*
X117428571Y8238095D01*
X117428571Y8119047D01*
X117404761Y8071428D01*
X117380952Y8047619D01*
X117333333Y8023809D01*
X117214285Y8023809D01*
X117166666Y8047619D01*
X117142857Y8071428D01*
X117571428Y8523809D02*
X117738095Y8023809D01*
X117904761Y8523809D01*
D12*
X114869047Y8500000D02*
X114821428Y8523809D01*
X114750000Y8523809D01*
X114678571Y8500000D01*
X114630952Y8452380D01*
X114607142Y8404761D01*
X114583333Y8309523D01*
X114583333Y8238095D01*
X114607142Y8142857D01*
X114630952Y8095238D01*
X114678571Y8047619D01*
X114750000Y8023809D01*
X114797619Y8023809D01*
X114869047Y8047619D01*
X114892857Y8071428D01*
X114892857Y8238095D01*
X114797619Y8238095D01*
X115107142Y8023809D02*
X115107142Y8523809D01*
X115392857Y8023809D01*
X115392857Y8523809D01*
X115630952Y8023809D02*
X115630952Y8523809D01*
X115750000Y8523809D01*
X115821428Y8500000D01*
X115869047Y8452380D01*
X115892857Y8404761D01*
X115916666Y8309523D01*
X115916666Y8238095D01*
X115892857Y8142857D01*
X115869047Y8095238D01*
X115821428Y8047619D01*
X115750000Y8023809D01*
X115630952Y8023809D01*
D10*
X78059523Y-20416666D02*
X78535714Y-20416666D01*
X77964285Y-20702380D02*
X78297619Y-19702380D01*
X78630952Y-20702380D01*
X79392857Y-20035714D02*
X79392857Y-20702380D01*
X79154761Y-19654761D02*
X78916666Y-20369047D01*
X79535714Y-20369047D01*
X79964285Y-20702380D02*
X80154761Y-20702380D01*
X80250000Y-20654761D01*
X80297619Y-20607142D01*
X80392857Y-20464285D01*
X80440476Y-20273809D01*
X80440476Y-19892857D01*
X80392857Y-19797619D01*
X80345238Y-19750000D01*
X80250000Y-19702380D01*
X80059523Y-19702380D01*
X79964285Y-19750000D01*
X79916666Y-19797619D01*
X79869047Y-19892857D01*
X79869047Y-20130952D01*
X79916666Y-20226190D01*
X79964285Y-20273809D01*
X80059523Y-20321428D01*
X80250000Y-20321428D01*
X80345238Y-20273809D01*
X80392857Y-20226190D01*
X80440476Y-20130952D01*
X81011904Y-20130952D02*
X80916666Y-20083333D01*
X80869047Y-20035714D01*
X80821428Y-19940476D01*
X80821428Y-19892857D01*
X80869047Y-19797619D01*
X80916666Y-19750000D01*
X81011904Y-19702380D01*
X81202380Y-19702380D01*
X81297619Y-19750000D01*
X81345238Y-19797619D01*
X81392857Y-19892857D01*
X81392857Y-19940476D01*
X81345238Y-20035714D01*
X81297619Y-20083333D01*
X81202380Y-20130952D01*
X81011904Y-20130952D01*
X80916666Y-20178571D01*
X80869047Y-20226190D01*
X80821428Y-20321428D01*
X80821428Y-20511904D01*
X80869047Y-20607142D01*
X80916666Y-20654761D01*
X81011904Y-20702380D01*
X81202380Y-20702380D01*
X81297619Y-20654761D01*
X81345238Y-20607142D01*
X81392857Y-20511904D01*
X81392857Y-20321428D01*
X81345238Y-20226190D01*
X81297619Y-20178571D01*
X81202380Y-20130952D01*
X81964285Y-20130952D02*
X81869047Y-20083333D01*
X81821428Y-20035714D01*
X81773809Y-19940476D01*
X81773809Y-19892857D01*
X81821428Y-19797619D01*
X81869047Y-19750000D01*
X81964285Y-19702380D01*
X82154761Y-19702380D01*
X82250000Y-19750000D01*
X82297619Y-19797619D01*
X82345238Y-19892857D01*
X82345238Y-19940476D01*
X82297619Y-20035714D01*
X82250000Y-20083333D01*
X82154761Y-20130952D01*
X81964285Y-20130952D01*
X81869047Y-20178571D01*
X81821428Y-20226190D01*
X81773809Y-20321428D01*
X81773809Y-20511904D01*
X81821428Y-20607142D01*
X81869047Y-20654761D01*
X81964285Y-20702380D01*
X82154761Y-20702380D01*
X82250000Y-20654761D01*
X82297619Y-20607142D01*
X82345238Y-20511904D01*
X82345238Y-20321428D01*
X82297619Y-20226190D01*
X82250000Y-20178571D01*
X82154761Y-20130952D01*
X83535714Y-20702380D02*
X83535714Y-19702380D01*
X83773809Y-19702380D01*
X83916666Y-19750000D01*
X84011904Y-19845238D01*
X84059523Y-19940476D01*
X84107142Y-20130952D01*
X84107142Y-20273809D01*
X84059523Y-20464285D01*
X84011904Y-20559523D01*
X83916666Y-20654761D01*
X83773809Y-20702380D01*
X83535714Y-20702380D01*
X84535714Y-20702380D02*
X84535714Y-20035714D01*
X84535714Y-20226190D02*
X84583333Y-20130952D01*
X84630952Y-20083333D01*
X84726190Y-20035714D01*
X84821428Y-20035714D01*
X85154761Y-20702380D02*
X85154761Y-20035714D01*
X85154761Y-19702380D02*
X85107142Y-19750000D01*
X85154761Y-19797619D01*
X85202380Y-19750000D01*
X85154761Y-19702380D01*
X85154761Y-19797619D01*
X85535714Y-20035714D02*
X85773809Y-20702380D01*
X86011904Y-20035714D01*
X86773809Y-20654761D02*
X86678571Y-20702380D01*
X86488095Y-20702380D01*
X86392857Y-20654761D01*
X86345238Y-20559523D01*
X86345238Y-20178571D01*
X86392857Y-20083333D01*
X86488095Y-20035714D01*
X86678571Y-20035714D01*
X86773809Y-20083333D01*
X86821428Y-20178571D01*
X86821428Y-20273809D01*
X86345238Y-20369047D01*
X87250000Y-20702380D02*
X87250000Y-20035714D01*
X87250000Y-20226190D02*
X87297619Y-20130952D01*
X87345238Y-20083333D01*
X87440476Y-20035714D01*
X87535714Y-20035714D01*
X107095238Y8872619D02*
X107333333Y7872619D01*
X107523809Y8586904D01*
X107714285Y7872619D01*
X107952380Y8872619D01*
X108761904Y7872619D02*
X108761904Y8396428D01*
X108714285Y8491666D01*
X108619047Y8539285D01*
X108428571Y8539285D01*
X108333333Y8491666D01*
X108761904Y7920238D02*
X108666666Y7872619D01*
X108428571Y7872619D01*
X108333333Y7920238D01*
X108285714Y8015476D01*
X108285714Y8110714D01*
X108333333Y8205952D01*
X108428571Y8253571D01*
X108666666Y8253571D01*
X108761904Y8301190D01*
X109095238Y8539285D02*
X109476190Y8539285D01*
X109238095Y8872619D02*
X109238095Y8015476D01*
X109285714Y7920238D01*
X109380952Y7872619D01*
X109476190Y7872619D01*
X110190476Y7920238D02*
X110095238Y7872619D01*
X109904761Y7872619D01*
X109809523Y7920238D01*
X109761904Y8015476D01*
X109761904Y8396428D01*
X109809523Y8491666D01*
X109904761Y8539285D01*
X110095238Y8539285D01*
X110190476Y8491666D01*
X110238095Y8396428D01*
X110238095Y8301190D01*
X109761904Y8205952D01*
X110666666Y7872619D02*
X110666666Y8539285D01*
X110666666Y8348809D02*
X110714285Y8444047D01*
X110761904Y8491666D01*
X110857142Y8539285D01*
X110952380Y8539285D01*
X106809523Y6222619D02*
X106809523Y7222619D01*
X106809523Y6746428D02*
X107380952Y6746428D01*
X107380952Y6222619D02*
X107380952Y7222619D01*
X108238095Y6270238D02*
X108142857Y6222619D01*
X107952380Y6222619D01*
X107857142Y6270238D01*
X107809523Y6365476D01*
X107809523Y6746428D01*
X107857142Y6841666D01*
X107952380Y6889285D01*
X108142857Y6889285D01*
X108238095Y6841666D01*
X108285714Y6746428D01*
X108285714Y6651190D01*
X107809523Y6555952D01*
X109142857Y6222619D02*
X109142857Y6746428D01*
X109095238Y6841666D01*
X109000000Y6889285D01*
X108809523Y6889285D01*
X108714285Y6841666D01*
X109142857Y6270238D02*
X109047619Y6222619D01*
X108809523Y6222619D01*
X108714285Y6270238D01*
X108666666Y6365476D01*
X108666666Y6460714D01*
X108714285Y6555952D01*
X108809523Y6603571D01*
X109047619Y6603571D01*
X109142857Y6651190D01*
X109476190Y6889285D02*
X109857142Y6889285D01*
X109619047Y7222619D02*
X109619047Y6365476D01*
X109666666Y6270238D01*
X109761904Y6222619D01*
X109857142Y6222619D01*
X110571428Y6270238D02*
X110476190Y6222619D01*
X110285714Y6222619D01*
X110190476Y6270238D01*
X110142857Y6365476D01*
X110142857Y6746428D01*
X110190476Y6841666D01*
X110285714Y6889285D01*
X110476190Y6889285D01*
X110571428Y6841666D01*
X110619047Y6746428D01*
X110619047Y6651190D01*
X110142857Y6555952D01*
X111047619Y6222619D02*
X111047619Y6889285D01*
X111047619Y6698809D02*
X111095238Y6794047D01*
X111142857Y6841666D01*
X111238095Y6889285D01*
X111333333Y6889285D01*
X107416666Y-21552380D02*
X107988095Y-21552380D01*
X107702380Y-22552380D02*
X107702380Y-21552380D01*
X108702380Y-22504761D02*
X108607142Y-22552380D01*
X108416666Y-22552380D01*
X108321428Y-22504761D01*
X108273809Y-22409523D01*
X108273809Y-22028571D01*
X108321428Y-21933333D01*
X108416666Y-21885714D01*
X108607142Y-21885714D01*
X108702380Y-21933333D01*
X108750000Y-22028571D01*
X108750000Y-22123809D01*
X108273809Y-22219047D01*
X109178571Y-22552380D02*
X109178571Y-21885714D01*
X109178571Y-21980952D02*
X109226190Y-21933333D01*
X109321428Y-21885714D01*
X109464285Y-21885714D01*
X109559523Y-21933333D01*
X109607142Y-22028571D01*
X109607142Y-22552380D01*
X109607142Y-22028571D02*
X109654761Y-21933333D01*
X109750000Y-21885714D01*
X109892857Y-21885714D01*
X109988095Y-21933333D01*
X110035714Y-22028571D01*
X110035714Y-22552380D01*
X110511904Y-21885714D02*
X110511904Y-22885714D01*
X110511904Y-21933333D02*
X110607142Y-21885714D01*
X110797619Y-21885714D01*
X110892857Y-21933333D01*
X110940476Y-21980952D01*
X110988095Y-22076190D01*
X110988095Y-22361904D01*
X110940476Y-22457142D01*
X110892857Y-22504761D01*
X110797619Y-22552380D01*
X110607142Y-22552380D01*
X110511904Y-22504761D01*
X108154761Y-23916666D02*
X108630952Y-23916666D01*
X108059523Y-24202380D02*
X108392857Y-23202380D01*
X108726190Y-24202380D01*
X109488095Y-23535714D02*
X109488095Y-24202380D01*
X109059523Y-23535714D02*
X109059523Y-24059523D01*
X109107142Y-24154761D01*
X109202380Y-24202380D01*
X109345238Y-24202380D01*
X109440476Y-24154761D01*
X109488095Y-24107142D01*
X109869047Y-24202380D02*
X110392857Y-23535714D01*
X109869047Y-23535714D02*
X110392857Y-24202380D01*
X108630952Y-26233333D02*
X108583333Y-26185714D01*
X108488095Y-26042857D01*
X108440476Y-25947619D01*
X108392857Y-25804761D01*
X108345238Y-25566666D01*
X108345238Y-25376190D01*
X108392857Y-25138095D01*
X108440476Y-24995238D01*
X108488095Y-24900000D01*
X108583333Y-24757142D01*
X108630952Y-24709523D01*
X109535714Y-25852380D02*
X108964285Y-25852380D01*
X109250000Y-25852380D02*
X109250000Y-24852380D01*
X109154761Y-24995238D01*
X109059523Y-25090476D01*
X108964285Y-25138095D01*
X109869047Y-26233333D02*
X109916666Y-26185714D01*
X110011904Y-26042857D01*
X110059523Y-25947619D01*
X110107142Y-25804761D01*
X110154761Y-25566666D01*
X110154761Y-25376190D01*
X110107142Y-25138095D01*
X110059523Y-24995238D01*
X110011904Y-24900000D01*
X109916666Y-24757142D01*
X109869047Y-24709523D01*
X107166666Y-9802380D02*
X107738095Y-9802380D01*
X107452380Y-10802380D02*
X107452380Y-9802380D01*
X108452380Y-10754761D02*
X108357142Y-10802380D01*
X108166666Y-10802380D01*
X108071428Y-10754761D01*
X108023809Y-10659523D01*
X108023809Y-10278571D01*
X108071428Y-10183333D01*
X108166666Y-10135714D01*
X108357142Y-10135714D01*
X108452380Y-10183333D01*
X108500000Y-10278571D01*
X108500000Y-10373809D01*
X108023809Y-10469047D01*
X108928571Y-10802380D02*
X108928571Y-10135714D01*
X108928571Y-10230952D02*
X108976190Y-10183333D01*
X109071428Y-10135714D01*
X109214285Y-10135714D01*
X109309523Y-10183333D01*
X109357142Y-10278571D01*
X109357142Y-10802380D01*
X109357142Y-10278571D02*
X109404761Y-10183333D01*
X109500000Y-10135714D01*
X109642857Y-10135714D01*
X109738095Y-10183333D01*
X109785714Y-10278571D01*
X109785714Y-10802380D01*
X110261904Y-10135714D02*
X110261904Y-11135714D01*
X110261904Y-10183333D02*
X110357142Y-10135714D01*
X110547619Y-10135714D01*
X110642857Y-10183333D01*
X110690476Y-10230952D01*
X110738095Y-10326190D01*
X110738095Y-10611904D01*
X110690476Y-10707142D01*
X110642857Y-10754761D01*
X110547619Y-10802380D01*
X110357142Y-10802380D01*
X110261904Y-10754761D01*
X107761904Y-12452380D02*
X107761904Y-11452380D01*
X108095238Y-12166666D01*
X108428571Y-11452380D01*
X108428571Y-12452380D01*
X108904761Y-12452380D02*
X108904761Y-11785714D01*
X108904761Y-11452380D02*
X108857142Y-11500000D01*
X108904761Y-11547619D01*
X108952380Y-11500000D01*
X108904761Y-11452380D01*
X108904761Y-11547619D01*
X109523809Y-12452380D02*
X109428571Y-12404761D01*
X109380952Y-12309523D01*
X109380952Y-11452380D01*
X109904761Y-12452380D02*
X109904761Y-11452380D01*
X110000000Y-12071428D02*
X110285714Y-12452380D01*
X110285714Y-11785714D02*
X109904761Y-12166666D01*
X108380952Y-14483333D02*
X108333333Y-14435714D01*
X108238095Y-14292857D01*
X108190476Y-14197619D01*
X108142857Y-14054761D01*
X108095238Y-13816666D01*
X108095238Y-13626190D01*
X108142857Y-13388095D01*
X108190476Y-13245238D01*
X108238095Y-13150000D01*
X108333333Y-13007142D01*
X108380952Y-12959523D01*
X108952380Y-13102380D02*
X109047619Y-13102380D01*
X109142857Y-13150000D01*
X109190476Y-13197619D01*
X109238095Y-13292857D01*
X109285714Y-13483333D01*
X109285714Y-13721428D01*
X109238095Y-13911904D01*
X109190476Y-14007142D01*
X109142857Y-14054761D01*
X109047619Y-14102380D01*
X108952380Y-14102380D01*
X108857142Y-14054761D01*
X108809523Y-14007142D01*
X108761904Y-13911904D01*
X108714285Y-13721428D01*
X108714285Y-13483333D01*
X108761904Y-13292857D01*
X108809523Y-13197619D01*
X108857142Y-13150000D01*
X108952380Y-13102380D01*
X109619047Y-14483333D02*
X109666666Y-14435714D01*
X109761904Y-14292857D01*
X109809523Y-14197619D01*
X109857142Y-14054761D01*
X109904761Y-13816666D01*
X109904761Y-13626190D01*
X109857142Y-13388095D01*
X109809523Y-13245238D01*
X109761904Y-13150000D01*
X109666666Y-13007142D01*
X109619047Y-12959523D01*
X107166666Y1697619D02*
X107738095Y1697619D01*
X107452380Y697619D02*
X107452380Y1697619D01*
X108452380Y745238D02*
X108357142Y697619D01*
X108166666Y697619D01*
X108071428Y745238D01*
X108023809Y840476D01*
X108023809Y1221428D01*
X108071428Y1316666D01*
X108166666Y1364285D01*
X108357142Y1364285D01*
X108452380Y1316666D01*
X108500000Y1221428D01*
X108500000Y1126190D01*
X108023809Y1030952D01*
X108928571Y697619D02*
X108928571Y1364285D01*
X108928571Y1269047D02*
X108976190Y1316666D01*
X109071428Y1364285D01*
X109214285Y1364285D01*
X109309523Y1316666D01*
X109357142Y1221428D01*
X109357142Y697619D01*
X109357142Y1221428D02*
X109404761Y1316666D01*
X109500000Y1364285D01*
X109642857Y1364285D01*
X109738095Y1316666D01*
X109785714Y1221428D01*
X109785714Y697619D01*
X110261904Y1364285D02*
X110261904Y364285D01*
X110261904Y1316666D02*
X110357142Y1364285D01*
X110547619Y1364285D01*
X110642857Y1316666D01*
X110690476Y1269047D01*
X110738095Y1173809D01*
X110738095Y888095D01*
X110690476Y792857D01*
X110642857Y745238D01*
X110547619Y697619D01*
X110357142Y697619D01*
X110261904Y745238D01*
X107095238Y47619D02*
X107333333Y-952380D01*
X107523809Y-238095D01*
X107714285Y-952380D01*
X107952380Y47619D01*
X108761904Y-952380D02*
X108761904Y-428571D01*
X108714285Y-333333D01*
X108619047Y-285714D01*
X108428571Y-285714D01*
X108333333Y-333333D01*
X108761904Y-904761D02*
X108666666Y-952380D01*
X108428571Y-952380D01*
X108333333Y-904761D01*
X108285714Y-809523D01*
X108285714Y-714285D01*
X108333333Y-619047D01*
X108428571Y-571428D01*
X108666666Y-571428D01*
X108761904Y-523809D01*
X109095238Y-285714D02*
X109476190Y-285714D01*
X109238095Y47619D02*
X109238095Y-809523D01*
X109285714Y-904761D01*
X109380952Y-952380D01*
X109476190Y-952380D01*
X110190476Y-904761D02*
X110095238Y-952380D01*
X109904761Y-952380D01*
X109809523Y-904761D01*
X109761904Y-809523D01*
X109761904Y-428571D01*
X109809523Y-333333D01*
X109904761Y-285714D01*
X110095238Y-285714D01*
X110190476Y-333333D01*
X110238095Y-428571D01*
X110238095Y-523809D01*
X109761904Y-619047D01*
X110666666Y-952380D02*
X110666666Y-285714D01*
X110666666Y-476190D02*
X110714285Y-380952D01*
X110761904Y-333333D01*
X110857142Y-285714D01*
X110952380Y-285714D01*
X107476190Y-2983333D02*
X107428571Y-2935714D01*
X107333333Y-2792857D01*
X107285714Y-2697619D01*
X107238095Y-2554761D01*
X107190476Y-2316666D01*
X107190476Y-2126190D01*
X107238095Y-1888095D01*
X107285714Y-1745238D01*
X107333333Y-1650000D01*
X107428571Y-1507142D01*
X107476190Y-1459523D01*
X108190476Y-2078571D02*
X108333333Y-2126190D01*
X108380952Y-2173809D01*
X108428571Y-2269047D01*
X108428571Y-2411904D01*
X108380952Y-2507142D01*
X108333333Y-2554761D01*
X108238095Y-2602380D01*
X107857142Y-2602380D01*
X107857142Y-1602380D01*
X108190476Y-1602380D01*
X108285714Y-1650000D01*
X108333333Y-1697619D01*
X108380952Y-1792857D01*
X108380952Y-1888095D01*
X108333333Y-1983333D01*
X108285714Y-2030952D01*
X108190476Y-2078571D01*
X107857142Y-2078571D01*
X109238095Y-2554761D02*
X109142857Y-2602380D01*
X108952380Y-2602380D01*
X108857142Y-2554761D01*
X108809523Y-2459523D01*
X108809523Y-2078571D01*
X108857142Y-1983333D01*
X108952380Y-1935714D01*
X109142857Y-1935714D01*
X109238095Y-1983333D01*
X109285714Y-2078571D01*
X109285714Y-2173809D01*
X108809523Y-2269047D01*
X110142857Y-2602380D02*
X110142857Y-1602380D01*
X110142857Y-2554761D02*
X110047619Y-2602380D01*
X109857142Y-2602380D01*
X109761904Y-2554761D01*
X109714285Y-2507142D01*
X109666666Y-2411904D01*
X109666666Y-2126190D01*
X109714285Y-2030952D01*
X109761904Y-1983333D01*
X109857142Y-1935714D01*
X110047619Y-1935714D01*
X110142857Y-1983333D01*
X110523809Y-2983333D02*
X110571428Y-2935714D01*
X110666666Y-2792857D01*
X110714285Y-2697619D01*
X110761904Y-2554761D01*
X110809523Y-2316666D01*
X110809523Y-2126190D01*
X110761904Y-1888095D01*
X110714285Y-1745238D01*
X110666666Y-1650000D01*
X110571428Y-1507142D01*
X110523809Y-1459523D01*
X116071428Y-29035714D02*
X116071428Y-29702380D01*
X115833333Y-28654761D02*
X115595238Y-29369047D01*
X116214285Y-29369047D01*
X116595238Y-29607142D02*
X116642857Y-29654761D01*
X116595238Y-29702380D01*
X116547619Y-29654761D01*
X116595238Y-29607142D01*
X116595238Y-29702380D01*
X116976190Y-28702380D02*
X117642857Y-28702380D01*
X117214285Y-29702380D01*
X118023809Y-29702380D02*
X118023809Y-28702380D01*
X118119047Y-29321428D02*
X118404761Y-29702380D01*
X118404761Y-29035714D02*
X118023809Y-29416666D01*
X116071428Y-17535714D02*
X116071428Y-18202380D01*
X115833333Y-17154761D02*
X115595238Y-17869047D01*
X116214285Y-17869047D01*
X116595238Y-18107142D02*
X116642857Y-18154761D01*
X116595238Y-18202380D01*
X116547619Y-18154761D01*
X116595238Y-18107142D01*
X116595238Y-18202380D01*
X116976190Y-17202380D02*
X117642857Y-17202380D01*
X117214285Y-18202380D01*
X118023809Y-18202380D02*
X118023809Y-17202380D01*
X118119047Y-17821428D02*
X118404761Y-18202380D01*
X118404761Y-17535714D02*
X118023809Y-17916666D01*
X116071428Y-6035714D02*
X116071428Y-6702380D01*
X115833333Y-5654761D02*
X115595238Y-6369047D01*
X116214285Y-6369047D01*
X116595238Y-6607142D02*
X116642857Y-6654761D01*
X116595238Y-6702380D01*
X116547619Y-6654761D01*
X116595238Y-6607142D01*
X116595238Y-6702380D01*
X116976190Y-5702380D02*
X117642857Y-5702380D01*
X117214285Y-6702380D01*
X118023809Y-6702380D02*
X118023809Y-5702380D01*
X118119047Y-6321428D02*
X118404761Y-6702380D01*
X118404761Y-6035714D02*
X118023809Y-6416666D01*
X59083333Y-9702380D02*
X58607142Y-9702380D01*
X58607142Y-8702380D01*
X59416666Y-9702380D02*
X59416666Y-8702380D01*
X59750000Y-9416666D01*
X60083333Y-8702380D01*
X60083333Y-9702380D01*
X60511904Y-8797619D02*
X60559523Y-8750000D01*
X60654761Y-8702380D01*
X60892857Y-8702380D01*
X60988095Y-8750000D01*
X61035714Y-8797619D01*
X61083333Y-8892857D01*
X61083333Y-8988095D01*
X61035714Y-9130952D01*
X60464285Y-9702380D01*
X61083333Y-9702380D01*
X61988095Y-8702380D02*
X61511904Y-8702380D01*
X61464285Y-9178571D01*
X61511904Y-9130952D01*
X61607142Y-9083333D01*
X61845238Y-9083333D01*
X61940476Y-9130952D01*
X61988095Y-9178571D01*
X62035714Y-9273809D01*
X62035714Y-9511904D01*
X61988095Y-9607142D01*
X61940476Y-9654761D01*
X61845238Y-9702380D01*
X61607142Y-9702380D01*
X61511904Y-9654761D01*
X61464285Y-9607142D01*
X62511904Y-9702380D02*
X62702380Y-9702380D01*
X62797619Y-9654761D01*
X62845238Y-9607142D01*
X62940476Y-9464285D01*
X62988095Y-9273809D01*
X62988095Y-8892857D01*
X62940476Y-8797619D01*
X62892857Y-8750000D01*
X62797619Y-8702380D01*
X62607142Y-8702380D01*
X62511904Y-8750000D01*
X62464285Y-8797619D01*
X62416666Y-8892857D01*
X62416666Y-9130952D01*
X62464285Y-9226190D01*
X62511904Y-9273809D01*
X62607142Y-9321428D01*
X62797619Y-9321428D01*
X62892857Y-9273809D01*
X62940476Y-9226190D01*
X62988095Y-9130952D01*
X63845238Y-8702380D02*
X63654761Y-8702380D01*
X63559523Y-8750000D01*
X63511904Y-8797619D01*
X63416666Y-8940476D01*
X63369047Y-9130952D01*
X63369047Y-9511904D01*
X63416666Y-9607142D01*
X63464285Y-9654761D01*
X63559523Y-9702380D01*
X63750000Y-9702380D01*
X63845238Y-9654761D01*
X63892857Y-9607142D01*
X63940476Y-9511904D01*
X63940476Y-9273809D01*
X63892857Y-9178571D01*
X63845238Y-9130952D01*
X63750000Y-9083333D01*
X63559523Y-9083333D01*
X63464285Y-9130952D01*
X63416666Y-9178571D01*
X63369047Y-9273809D01*
X57054761Y-10747619D02*
X57102380Y-10700000D01*
X57197619Y-10652380D01*
X57435714Y-10652380D01*
X57530952Y-10700000D01*
X57578571Y-10747619D01*
X57626190Y-10842857D01*
X57626190Y-10938095D01*
X57578571Y-11080952D01*
X57007142Y-11652380D01*
X57626190Y-11652380D01*
X58483333Y-10985714D02*
X58483333Y-11652380D01*
X58245238Y-10604761D02*
X58007142Y-11319047D01*
X58626190Y-11319047D01*
X58864285Y-10652380D02*
X59197619Y-11652380D01*
X59530952Y-10652380D01*
X60626190Y-11271428D02*
X61388095Y-11271428D01*
X61864285Y-10985714D02*
X62626190Y-11271428D01*
X61864285Y-11557142D01*
X64340476Y-10652380D02*
X63864285Y-10652380D01*
X63816666Y-11128571D01*
X63864285Y-11080952D01*
X63959523Y-11033333D01*
X64197619Y-11033333D01*
X64292857Y-11080952D01*
X64340476Y-11128571D01*
X64388095Y-11223809D01*
X64388095Y-11461904D01*
X64340476Y-11557142D01*
X64292857Y-11604761D01*
X64197619Y-11652380D01*
X63959523Y-11652380D01*
X63864285Y-11604761D01*
X63816666Y-11557142D01*
X64673809Y-10652380D02*
X65007142Y-11652380D01*
X65340476Y-10652380D01*
X50797619Y7347619D02*
X50988095Y7347619D01*
X51083333Y7300000D01*
X51178571Y7204761D01*
X51226190Y7014285D01*
X51226190Y6680952D01*
X51178571Y6490476D01*
X51083333Y6395238D01*
X50988095Y6347619D01*
X50797619Y6347619D01*
X50702380Y6395238D01*
X50607142Y6490476D01*
X50559523Y6680952D01*
X50559523Y7014285D01*
X50607142Y7204761D01*
X50702380Y7300000D01*
X50797619Y7347619D01*
X52083333Y7014285D02*
X52083333Y6347619D01*
X51654761Y7014285D02*
X51654761Y6490476D01*
X51702380Y6395238D01*
X51797619Y6347619D01*
X51940476Y6347619D01*
X52035714Y6395238D01*
X52083333Y6442857D01*
X52416666Y7014285D02*
X52797619Y7014285D01*
X52559523Y7347619D02*
X52559523Y6490476D01*
X52607142Y6395238D01*
X52702380Y6347619D01*
X52797619Y6347619D01*
X53130952Y6728571D02*
X53892857Y6728571D01*
X53511904Y6347619D02*
X53511904Y7109523D01*
X68178571Y-28652380D02*
X68178571Y-27652380D01*
X68654761Y-27985714D02*
X68654761Y-28652380D01*
X68654761Y-28080952D02*
X68702380Y-28033333D01*
X68797619Y-27985714D01*
X68940476Y-27985714D01*
X69035714Y-28033333D01*
X69083333Y-28128571D01*
X69083333Y-28652380D01*
X69559523Y-28271428D02*
X70321428Y-28271428D01*
X50678571Y-28652380D02*
X50678571Y-27652380D01*
X51154761Y-27985714D02*
X51154761Y-28652380D01*
X51154761Y-28080952D02*
X51202380Y-28033333D01*
X51297619Y-27985714D01*
X51440476Y-27985714D01*
X51535714Y-28033333D01*
X51583333Y-28128571D01*
X51583333Y-28652380D01*
X52059523Y-28271428D02*
X52821428Y-28271428D01*
X52440476Y-28652380D02*
X52440476Y-27890476D01*
X46488095Y-33250000D02*
X46392857Y-33202380D01*
X46250000Y-33202380D01*
X46107142Y-33250000D01*
X46011904Y-33345238D01*
X45964285Y-33440476D01*
X45916666Y-33630952D01*
X45916666Y-33773809D01*
X45964285Y-33964285D01*
X46011904Y-34059523D01*
X46107142Y-34154761D01*
X46250000Y-34202380D01*
X46345238Y-34202380D01*
X46488095Y-34154761D01*
X46535714Y-34107142D01*
X46535714Y-33773809D01*
X46345238Y-33773809D01*
X46964285Y-34202380D02*
X46964285Y-33202380D01*
X47535714Y-34202380D01*
X47535714Y-33202380D01*
X48011904Y-34202380D02*
X48011904Y-33202380D01*
X48250000Y-33202380D01*
X48392857Y-33250000D01*
X48488095Y-33345238D01*
X48535714Y-33440476D01*
X48583333Y-33630952D01*
X48583333Y-33773809D01*
X48535714Y-33964285D01*
X48488095Y-34059523D01*
X48392857Y-34154761D01*
X48250000Y-34202380D01*
X48011904Y-34202380D01*
X46059523Y-20547619D02*
X46107142Y-20500000D01*
X46202380Y-20452380D01*
X46440476Y-20452380D01*
X46535714Y-20500000D01*
X46583333Y-20547619D01*
X46630952Y-20642857D01*
X46630952Y-20738095D01*
X46583333Y-20880952D01*
X46011904Y-21452380D01*
X46630952Y-21452380D01*
X47488095Y-20785714D02*
X47488095Y-21452380D01*
X47250000Y-20404761D02*
X47011904Y-21119047D01*
X47630952Y-21119047D01*
X47869047Y-20452380D02*
X48202380Y-21452380D01*
X48535714Y-20452380D01*
X57770380Y-32464285D02*
X57770380Y-33035714D01*
X57770380Y-32750000D02*
X56770380Y-32750000D01*
X56913238Y-32845238D01*
X57008476Y-32940476D01*
X57056095Y-33035714D01*
D13*
X72450000Y2250000D02*
X87750000Y2250000D01*
X87750000Y-10600000D02*
X72450000Y-10600000D01*
X72450000Y-10600000D02*
X72450000Y2250000D01*
X87750000Y-10600000D02*
X87750000Y2250000D01*
D14*
X87240000Y7420000D02*
X87240000Y10080000D01*
X77020000Y7420000D02*
X87240000Y7420000D01*
X77020000Y10080000D02*
X87240000Y10080000D01*
X77020000Y7420000D02*
X77020000Y10080000D01*
X75750000Y7420000D02*
X74420000Y7420000D01*
X74420000Y7420000D02*
X74420000Y8750000D01*
X103290000Y-32210000D02*
X94170000Y-32210000D01*
X94170000Y-32210000D02*
X94170000Y1070000D01*
X94170000Y1070000D02*
X103290000Y1070000D01*
X103290000Y1070000D02*
X103290000Y-32210000D01*
X103290000Y-17620000D02*
X101980000Y-17620000D01*
X101980000Y-17620000D02*
X101980000Y-30910000D01*
X101980000Y-30910000D02*
X95480000Y-30910000D01*
X95480000Y-30910000D02*
X95480000Y-230000D01*
X95480000Y-230000D02*
X101980000Y-230000D01*
X101980000Y-230000D02*
X101980000Y-13520000D01*
X101980000Y-13520000D02*
X101980000Y-13520000D01*
X101980000Y-13520000D02*
X103290000Y-13520000D01*
X103680000Y-27000000D02*
X104680000Y-27500000D01*
X104680000Y-27500000D02*
X104680000Y-26500000D01*
X104680000Y-26500000D02*
X103680000Y-27000000D01*
X120350000Y3750000D02*
X120350000Y6250000D01*
X117850000Y3750000D02*
X120350000Y3750000D01*
X113200000Y9250000D02*
X116250000Y9250000D01*
X113200000Y6300000D02*
X113200000Y9250000D01*
X112450000Y6300000D02*
X113200000Y6300000D01*
X119300000Y9250000D02*
X116250000Y9250000D01*
X119300000Y6300000D02*
X119300000Y9250000D01*
X120050000Y6300000D02*
X119300000Y6300000D01*
X112450000Y4050000D02*
X114250000Y4050000D01*
X112450000Y4800000D02*
X112450000Y4050000D01*
X114250000Y4800000D02*
X112450000Y4800000D01*
X114250000Y4050000D02*
X114250000Y4800000D01*
X118250000Y4050000D02*
X120050000Y4050000D01*
X118250000Y4800000D02*
X118250000Y4050000D01*
X120050000Y4800000D02*
X118250000Y4800000D01*
X120050000Y4050000D02*
X120050000Y4800000D01*
X115750000Y4050000D02*
X116750000Y4050000D01*
X115750000Y4800000D02*
X115750000Y4050000D01*
X116750000Y4800000D02*
X115750000Y4800000D01*
X116750000Y4050000D02*
X116750000Y4800000D01*
X112450000Y4050000D02*
X120050000Y4050000D01*
X112450000Y10000000D02*
X112450000Y4050000D01*
X120050000Y10000000D02*
X112450000Y10000000D01*
X120050000Y4050000D02*
X120050000Y10000000D01*
X119020000Y-19060000D02*
X119020000Y-18730000D01*
X112600000Y-19060000D02*
X119020000Y-19060000D01*
X112600000Y-18730000D02*
X112600000Y-19060000D01*
X119020000Y-16440000D02*
X119020000Y-16770000D01*
X112600000Y-16440000D02*
X119020000Y-16440000D01*
X112600000Y-16770000D02*
X112600000Y-16440000D01*
X119020000Y-7560000D02*
X119020000Y-7230000D01*
X112600000Y-7560000D02*
X119020000Y-7560000D01*
X112600000Y-7230000D02*
X112600000Y-7560000D01*
X119020000Y-4940000D02*
X119020000Y-5270000D01*
X112600000Y-4940000D02*
X119020000Y-4940000D01*
X112600000Y-5270000D02*
X112600000Y-4940000D01*
X119020000Y-30560000D02*
X119020000Y-30230000D01*
X112600000Y-30560000D02*
X119020000Y-30560000D01*
X112600000Y-30230000D02*
X112600000Y-30560000D01*
X119020000Y-27940000D02*
X119020000Y-28270000D01*
X112600000Y-27940000D02*
X119020000Y-27940000D01*
X112600000Y-28270000D02*
X112600000Y-27940000D01*
D13*
X49750000Y-32200000D02*
X70950000Y-32200000D01*
X70950000Y-32200000D02*
X70950000Y10900000D01*
X70950000Y10900000D02*
X49750000Y10900000D01*
X49750000Y10900000D02*
X49750000Y-32200000D01*
X49750000Y-29200000D02*
X52750000Y-29200000D01*
X52750000Y-29200000D02*
X52750000Y-32200000D01*
X67950000Y-32200000D02*
X67950000Y-29200000D01*
X67950000Y-29200000D02*
X70950000Y-29200000D01*
X52750000Y10900000D02*
X52750000Y7900000D01*
X52750000Y7900000D02*
X49750000Y7900000D01*
X70950000Y7900000D02*
X67950000Y7900000D01*
X67950000Y7900000D02*
X67950000Y10900000D01*
D14*
X113920000Y-10210000D02*
X113920000Y-9200000D01*
X119000000Y-10210000D02*
X113920000Y-10210000D01*
X119000000Y-9200000D02*
X119000000Y-10210000D01*
X112550000Y-9100000D02*
X120350000Y-9100000D01*
X112550000Y-15150000D02*
X112550000Y-9100000D01*
X120350000Y-15150000D02*
X112550000Y-15150000D01*
X120350000Y-9100000D02*
X120350000Y-15150000D01*
X113920000Y1290000D02*
X113920000Y2300000D01*
X119000000Y1290000D02*
X113920000Y1290000D01*
X119000000Y2300000D02*
X119000000Y1290000D01*
X112550000Y2400000D02*
X120350000Y2400000D01*
X112550000Y-3650000D02*
X112550000Y2400000D01*
X120350000Y-3650000D02*
X112550000Y-3650000D01*
X120350000Y2400000D02*
X120350000Y-3650000D01*
X113920000Y-21710000D02*
X113920000Y-20700000D01*
X119000000Y-21710000D02*
X113920000Y-21710000D01*
X119000000Y-20700000D02*
X119000000Y-21710000D01*
X112550000Y-20600000D02*
X120350000Y-20600000D01*
X112550000Y-26650000D02*
X112550000Y-20600000D01*
X120350000Y-26650000D02*
X112550000Y-26650000D01*
X120350000Y-20600000D02*
X120350000Y-26650000D01*
X41490000Y-22160000D02*
X41490000Y-32320000D01*
X49110000Y-22160000D02*
X41490000Y-22160000D01*
X49110000Y-32320000D02*
X49110000Y-22160000D01*
X41490000Y-32320000D02*
X49110000Y-32320000D01*
X42760000Y-32320000D02*
X42760000Y-22160000D01*
X85580000Y-28830000D02*
X84250000Y-28830000D01*
X85580000Y-27500000D02*
X85580000Y-28830000D01*
X85580000Y-26230000D02*
X82920000Y-26230000D01*
X82920000Y-26230000D02*
X82920000Y-21090000D01*
X85580000Y-26230000D02*
X85580000Y-21090000D01*
X85580000Y-21090000D02*
X82920000Y-21090000D01*
X81580000Y-28830000D02*
X80250000Y-28830000D01*
X81580000Y-27500000D02*
X81580000Y-28830000D01*
X81580000Y-26230000D02*
X78920000Y-26230000D01*
X78920000Y-26230000D02*
X78920000Y-21090000D01*
X81580000Y-26230000D02*
X81580000Y-21090000D01*
X81580000Y-21090000D02*
X78920000Y-21090000D01*
X77580000Y-28830000D02*
X76250000Y-28830000D01*
X77580000Y-27500000D02*
X77580000Y-28830000D01*
X77580000Y-26230000D02*
X74920000Y-26230000D01*
X74920000Y-26230000D02*
X74920000Y-21090000D01*
X77580000Y-26230000D02*
X77580000Y-21090000D01*
X77580000Y-21090000D02*
X74920000Y-21090000D01*
X92400000Y-32100000D02*
X92400000Y-19270000D01*
X71820000Y-32100000D02*
X92400000Y-32100000D01*
X71820000Y-16600000D02*
X71820000Y-32100000D01*
X89730000Y-16600000D02*
X71820000Y-16600000D01*
X89730000Y-19270000D02*
X89730000Y-16600000D01*
X92400000Y-19270000D02*
X89730000Y-19270000D01*
X92400000Y-16600000D02*
X91000000Y-16600000D01*
X92400000Y-18000000D02*
X92400000Y-16600000D01*
X89730000Y-19270000D02*
X71820000Y-19270000D01*
X92400000Y-29430000D02*
X71820000Y-29430000D01*
D10*
X121808000Y-31596000D02*
X123358000Y-31596000D01*
X124628000Y-28776000D02*
X122088000Y-28776000D01*
X124628000Y-31316000D02*
X124628000Y-28776000D01*
X121808000Y-30046000D02*
X121808000Y-31596000D01*
X127168000Y-31316000D02*
X124628000Y-31316000D01*
X127168000Y14404000D02*
X122088000Y14404000D01*
X122088000Y14404000D02*
X122088000Y-28776000D01*
X127168000Y-31316000D02*
X127168000Y14404000D01*
X55768000Y-33576000D02*
X55768000Y-36676000D01*
X57318000Y-33576000D02*
X55768000Y-33576000D01*
X58588000Y-36396000D02*
X58588000Y-33856000D01*
X55768000Y-36676000D02*
X57318000Y-36676000D01*
X76368000Y-33856000D02*
X58588000Y-33856000D01*
X76368000Y-36396000D02*
X76368000Y-33856000D01*
X58588000Y-36396000D02*
X76368000Y-36396000D01*
X78628000Y-33576000D02*
X78628000Y-36676000D01*
X80178000Y-33576000D02*
X78628000Y-33576000D01*
X81448000Y-36396000D02*
X81448000Y-33856000D01*
X78628000Y-36676000D02*
X80178000Y-36676000D01*
X99228000Y-33856000D02*
X81448000Y-33856000D01*
X99228000Y-36396000D02*
X99228000Y-33856000D01*
X81448000Y-36396000D02*
X99228000Y-36396000D01*
X101488000Y-33576000D02*
X101488000Y-36676000D01*
X103038000Y-33576000D02*
X101488000Y-33576000D01*
X104308000Y-36396000D02*
X104308000Y-33856000D01*
X101488000Y-36676000D02*
X103038000Y-36676000D01*
X122088000Y-33856000D02*
X104308000Y-33856000D01*
X122088000Y-36396000D02*
X122088000Y-33856000D01*
X104308000Y-36396000D02*
X122088000Y-36396000D01*
X46624000Y14684000D02*
X46624000Y11584000D01*
X48174000Y14684000D02*
X46624000Y14684000D01*
X49444000Y11864000D02*
X49444000Y14404000D01*
X46624000Y11584000D02*
X48174000Y11584000D01*
X72304000Y14404000D02*
X49444000Y14404000D01*
X72304000Y11864000D02*
X72304000Y14404000D01*
X49444000Y11864000D02*
X72304000Y11864000D01*
X73548000Y14684000D02*
X73548000Y11584000D01*
X75098000Y14684000D02*
X73548000Y14684000D01*
X76368000Y11864000D02*
X76368000Y14404000D01*
X73548000Y11584000D02*
X75098000Y11584000D01*
X94148000Y14404000D02*
X76368000Y14404000D01*
X94148000Y11864000D02*
X94148000Y14404000D01*
X76368000Y11864000D02*
X94148000Y11864000D01*
X96408000Y14684000D02*
X96408000Y11584000D01*
X97958000Y14684000D02*
X96408000Y14684000D01*
X99228000Y11864000D02*
X99228000Y14404000D01*
X96408000Y11584000D02*
X97958000Y11584000D01*
X117008000Y14404000D02*
X99228000Y14404000D01*
X117008000Y11864000D02*
X117008000Y14404000D01*
X99228000Y11864000D02*
X117008000Y11864000D01*
X45634000Y-35126000D02*
G75*
G03*
X45634000Y-35126000I-2286000J0D01*
G01*
X128184000Y-35126000D02*
G75*
G03*
X128184000Y-35126000I-2286000J0D01*
G01*
X46904000Y13134000D02*
G75*
G03*
X46904000Y13134000I-2286000J0D01*
G01*
X121834000Y13134000D02*
G75*
G03*
X121834000Y13134000I-2286000J0D01*
G01*
X79238095Y-4702380D02*
X79238095Y-5511904D01*
X79285714Y-5607142D01*
X79333333Y-5654761D01*
X79428571Y-5702380D01*
X79619047Y-5702380D01*
X79714285Y-5654761D01*
X79761904Y-5607142D01*
X79809523Y-5511904D01*
X79809523Y-4702380D01*
X80809523Y-5702380D02*
X80238095Y-5702380D01*
X80523809Y-5702380D02*
X80523809Y-4702380D01*
X80428571Y-4845238D01*
X80333333Y-4940476D01*
X80238095Y-4988095D01*
X80928571Y-7861904D02*
X80928571Y-7061904D01*
X80928571Y-7442857D02*
X81385714Y-7442857D01*
X81385714Y-7861904D02*
X81385714Y-7061904D01*
X81652380Y-7061904D02*
X81919047Y-7861904D01*
X82185714Y-7061904D01*
X77890476Y-7100000D02*
X77814285Y-7061904D01*
X77700000Y-7061904D01*
X77585714Y-7100000D01*
X77509523Y-7176190D01*
X77471428Y-7252380D01*
X77433333Y-7404761D01*
X77433333Y-7519047D01*
X77471428Y-7671428D01*
X77509523Y-7747619D01*
X77585714Y-7823809D01*
X77700000Y-7861904D01*
X77776190Y-7861904D01*
X77890476Y-7823809D01*
X77928571Y-7785714D01*
X77928571Y-7519047D01*
X77776190Y-7519047D01*
X78271428Y-7861904D02*
X78271428Y-7061904D01*
X78728571Y-7861904D01*
X78728571Y-7061904D01*
X79109523Y-7861904D02*
X79109523Y-7061904D01*
X79300000Y-7061904D01*
X79414285Y-7100000D01*
X79490476Y-7176190D01*
X79528571Y-7252380D01*
X79566666Y-7404761D01*
X79566666Y-7519047D01*
X79528571Y-7671428D01*
X79490476Y-7747619D01*
X79414285Y-7823809D01*
X79300000Y-7861904D01*
X79109523Y-7861904D01*
X77890476Y-100000D02*
X77814285Y-61904D01*
X77700000Y-61904D01*
X77585714Y-100000D01*
X77509523Y-176190D01*
X77471428Y-252380D01*
X77433333Y-404761D01*
X77433333Y-519047D01*
X77471428Y-671428D01*
X77509523Y-747619D01*
X77585714Y-823809D01*
X77700000Y-861904D01*
X77776190Y-861904D01*
X77890476Y-823809D01*
X77928571Y-785714D01*
X77928571Y-519047D01*
X77776190Y-519047D01*
X78271428Y-861904D02*
X78271428Y-61904D01*
X78728571Y-861904D01*
X78728571Y-61904D01*
X79109523Y-861904D02*
X79109523Y-61904D01*
X79300000Y-61904D01*
X79414285Y-100000D01*
X79490476Y-176190D01*
X79528571Y-252380D01*
X79566666Y-404761D01*
X79566666Y-519047D01*
X79528571Y-671428D01*
X79490476Y-747619D01*
X79414285Y-823809D01*
X79300000Y-861904D01*
X79109523Y-861904D01*
X81404761Y-861904D02*
X81023809Y-861904D01*
X81023809Y-61904D01*
X81557142Y-61904D02*
X81823809Y-861904D01*
X82090476Y-61904D01*
X72872380Y7940476D02*
X73586666Y7940476D01*
X73729523Y7892857D01*
X73824761Y7797619D01*
X73872380Y7654761D01*
X73872380Y7559523D01*
X73872380Y8940476D02*
X73872380Y8369047D01*
X73872380Y8654761D02*
X72872380Y8654761D01*
X73015238Y8559523D01*
X73110476Y8464285D01*
X73158095Y8369047D01*
X72872380Y9559523D02*
X72872380Y9654761D01*
X72920000Y9750000D01*
X72967619Y9797619D01*
X73062857Y9845238D01*
X73253333Y9892857D01*
X73491428Y9892857D01*
X73681904Y9845238D01*
X73777142Y9797619D01*
X73824761Y9750000D01*
X73872380Y9654761D01*
X73872380Y9559523D01*
X73824761Y9464285D01*
X73777142Y9416666D01*
X73681904Y9369047D01*
X73491428Y9321428D01*
X73253333Y9321428D01*
X73062857Y9369047D01*
X72967619Y9416666D01*
X72920000Y9464285D01*
X72872380Y9559523D01*
X98300000Y-29171428D02*
X98300000Y-29600000D01*
X98271428Y-29685714D01*
X98214285Y-29742857D01*
X98128571Y-29771428D01*
X98071428Y-29771428D01*
X98871428Y-29171428D02*
X98585714Y-29171428D01*
X98557142Y-29457142D01*
X98585714Y-29428571D01*
X98642857Y-29400000D01*
X98785714Y-29400000D01*
X98842857Y-29428571D01*
X98871428Y-29457142D01*
X98900000Y-29514285D01*
X98900000Y-29657142D01*
X98871428Y-29714285D01*
X98842857Y-29742857D01*
X98785714Y-29771428D01*
X98642857Y-29771428D01*
X98585714Y-29742857D01*
X98557142Y-29714285D01*
X116050000Y3828571D02*
X116050000Y3400000D01*
X116021428Y3314285D01*
X115964285Y3257142D01*
X115878571Y3228571D01*
X115821428Y3228571D01*
X116364285Y3228571D02*
X116478571Y3228571D01*
X116535714Y3257142D01*
X116564285Y3285714D01*
X116621428Y3371428D01*
X116650000Y3485714D01*
X116650000Y3714285D01*
X116621428Y3771428D01*
X116592857Y3800000D01*
X116535714Y3828571D01*
X116421428Y3828571D01*
X116364285Y3800000D01*
X116335714Y3771428D01*
X116307142Y3714285D01*
X116307142Y3571428D01*
X116335714Y3514285D01*
X116364285Y3485714D01*
X116421428Y3457142D01*
X116535714Y3457142D01*
X116592857Y3485714D01*
X116621428Y3514285D01*
X116650000Y3571428D01*
X113900000Y-18021428D02*
X113700000Y-17735714D01*
X113557142Y-18021428D02*
X113557142Y-17421428D01*
X113785714Y-17421428D01*
X113842857Y-17450000D01*
X113871428Y-17478571D01*
X113900000Y-17535714D01*
X113900000Y-17621428D01*
X113871428Y-17678571D01*
X113842857Y-17707142D01*
X113785714Y-17735714D01*
X113557142Y-17735714D01*
X114100000Y-17421428D02*
X114471428Y-17421428D01*
X114271428Y-17650000D01*
X114357142Y-17650000D01*
X114414285Y-17678571D01*
X114442857Y-17707142D01*
X114471428Y-17764285D01*
X114471428Y-17907142D01*
X114442857Y-17964285D01*
X114414285Y-17992857D01*
X114357142Y-18021428D01*
X114185714Y-18021428D01*
X114128571Y-17992857D01*
X114100000Y-17964285D01*
X113900000Y-6521428D02*
X113700000Y-6235714D01*
X113557142Y-6521428D02*
X113557142Y-5921428D01*
X113785714Y-5921428D01*
X113842857Y-5950000D01*
X113871428Y-5978571D01*
X113900000Y-6035714D01*
X113900000Y-6121428D01*
X113871428Y-6178571D01*
X113842857Y-6207142D01*
X113785714Y-6235714D01*
X113557142Y-6235714D01*
X114128571Y-5978571D02*
X114157142Y-5950000D01*
X114214285Y-5921428D01*
X114357142Y-5921428D01*
X114414285Y-5950000D01*
X114442857Y-5978571D01*
X114471428Y-6035714D01*
X114471428Y-6092857D01*
X114442857Y-6178571D01*
X114100000Y-6521428D01*
X114471428Y-6521428D01*
X113900000Y-29521428D02*
X113700000Y-29235714D01*
X113557142Y-29521428D02*
X113557142Y-28921428D01*
X113785714Y-28921428D01*
X113842857Y-28950000D01*
X113871428Y-28978571D01*
X113900000Y-29035714D01*
X113900000Y-29121428D01*
X113871428Y-29178571D01*
X113842857Y-29207142D01*
X113785714Y-29235714D01*
X113557142Y-29235714D01*
X114471428Y-29521428D02*
X114128571Y-29521428D01*
X114300000Y-29521428D02*
X114300000Y-28921428D01*
X114242857Y-29007142D01*
X114185714Y-29064285D01*
X114128571Y-29092857D01*
X59940476Y-13452380D02*
X59940476Y-12452380D01*
X60273809Y-13166666D01*
X60607142Y-12452380D01*
X60607142Y-13452380D01*
X61607142Y-13452380D02*
X61035714Y-13452380D01*
X61321428Y-13452380D02*
X61321428Y-12452380D01*
X61226190Y-12595238D01*
X61130952Y-12690476D01*
X61035714Y-12738095D01*
X116050000Y-14171428D02*
X116050000Y-14600000D01*
X116021428Y-14685714D01*
X115964285Y-14742857D01*
X115878571Y-14771428D01*
X115821428Y-14771428D01*
X116421428Y-14428571D02*
X116364285Y-14400000D01*
X116335714Y-14371428D01*
X116307142Y-14314285D01*
X116307142Y-14285714D01*
X116335714Y-14228571D01*
X116364285Y-14200000D01*
X116421428Y-14171428D01*
X116535714Y-14171428D01*
X116592857Y-14200000D01*
X116621428Y-14228571D01*
X116650000Y-14285714D01*
X116650000Y-14314285D01*
X116621428Y-14371428D01*
X116592857Y-14400000D01*
X116535714Y-14428571D01*
X116421428Y-14428571D01*
X116364285Y-14457142D01*
X116335714Y-14485714D01*
X116307142Y-14542857D01*
X116307142Y-14657142D01*
X116335714Y-14714285D01*
X116364285Y-14742857D01*
X116421428Y-14771428D01*
X116535714Y-14771428D01*
X116592857Y-14742857D01*
X116621428Y-14714285D01*
X116650000Y-14657142D01*
X116650000Y-14542857D01*
X116621428Y-14485714D01*
X116592857Y-14457142D01*
X116535714Y-14428571D01*
X116050000Y-2671428D02*
X116050000Y-3100000D01*
X116021428Y-3185714D01*
X115964285Y-3242857D01*
X115878571Y-3271428D01*
X115821428Y-3271428D01*
X116278571Y-2671428D02*
X116678571Y-2671428D01*
X116421428Y-3271428D01*
X116050000Y-25671428D02*
X116050000Y-26100000D01*
X116021428Y-26185714D01*
X115964285Y-26242857D01*
X115878571Y-26271428D01*
X115821428Y-26271428D01*
X116592857Y-25671428D02*
X116478571Y-25671428D01*
X116421428Y-25700000D01*
X116392857Y-25728571D01*
X116335714Y-25814285D01*
X116307142Y-25928571D01*
X116307142Y-26157142D01*
X116335714Y-26214285D01*
X116364285Y-26242857D01*
X116421428Y-26271428D01*
X116535714Y-26271428D01*
X116592857Y-26242857D01*
X116621428Y-26214285D01*
X116650000Y-26157142D01*
X116650000Y-26014285D01*
X116621428Y-25957142D01*
X116592857Y-25928571D01*
X116535714Y-25900000D01*
X116421428Y-25900000D01*
X116364285Y-25928571D01*
X116335714Y-25957142D01*
X116307142Y-26014285D01*
X47366666Y-26952380D02*
X47366666Y-27666666D01*
X47319047Y-27809523D01*
X47223809Y-27904761D01*
X47080952Y-27952380D01*
X46985714Y-27952380D01*
X48271428Y-27285714D02*
X48271428Y-27952380D01*
X48033333Y-26904761D02*
X47795238Y-27619047D01*
X48414285Y-27619047D01*
X82050000Y-24671428D02*
X82050000Y-25100000D01*
X82021428Y-25185714D01*
X81964285Y-25242857D01*
X81878571Y-25271428D01*
X81821428Y-25271428D01*
X82278571Y-24671428D02*
X82650000Y-24671428D01*
X82450000Y-24900000D01*
X82535714Y-24900000D01*
X82592857Y-24928571D01*
X82621428Y-24957142D01*
X82650000Y-25014285D01*
X82650000Y-25157142D01*
X82621428Y-25214285D01*
X82592857Y-25242857D01*
X82535714Y-25271428D01*
X82364285Y-25271428D01*
X82307142Y-25242857D01*
X82278571Y-25214285D01*
X78050000Y-24671428D02*
X78050000Y-25100000D01*
X78021428Y-25185714D01*
X77964285Y-25242857D01*
X77878571Y-25271428D01*
X77821428Y-25271428D01*
X78307142Y-24728571D02*
X78335714Y-24700000D01*
X78392857Y-24671428D01*
X78535714Y-24671428D01*
X78592857Y-24700000D01*
X78621428Y-24728571D01*
X78650000Y-24785714D01*
X78650000Y-24842857D01*
X78621428Y-24928571D01*
X78278571Y-25271428D01*
X78650000Y-25271428D01*
X73800000Y-24671428D02*
X73800000Y-25100000D01*
X73771428Y-25185714D01*
X73714285Y-25242857D01*
X73628571Y-25271428D01*
X73571428Y-25271428D01*
X74400000Y-25271428D02*
X74057142Y-25271428D01*
X74228571Y-25271428D02*
X74228571Y-24671428D01*
X74171428Y-24757142D01*
X74114285Y-24814285D01*
X74057142Y-24842857D01*
X88035714Y-24916666D02*
X88511904Y-24916666D01*
X87940476Y-25202380D02*
X88273809Y-24202380D01*
X88607142Y-25202380D01*
X89464285Y-25202380D02*
X88892857Y-25202380D01*
X89178571Y-25202380D02*
X89178571Y-24202380D01*
X89083333Y-24345238D01*
X88988095Y-24440476D01*
X88892857Y-24488095D01*
M02*
