M48
; DRILL file {KiCad 5.1.6-c6e7f7d~87~ubuntu18.04.1} date Tue May 18 20:00:09 2021
; FORMAT={2:4/ absolute / inch / suppress leading zeros}
; #@! TF.CreationDate,2021-05-18T20:00:09+01:00
; #@! TF.GenerationSoftware,Kicad,Pcbnew,5.1.6-c6e7f7d~87~ubuntu18.04.1
FMAT,2
INCH,TZ
T1C0.0157
T2C0.0300
T3C0.0315
T4C0.0394
T5C0.0400
T6C0.0402
T7C0.0413
T8C0.0598
T9C0.1200
%
G90
G05
T1
X27756Y2461
X35039Y4331
X37628Y3449
X37957Y3345
X41831Y3150
T2
X29051Y-3677
X29055Y394
X30051Y-3677
X30055Y394
X31051Y-3677
X31055Y394
X32051Y-3677
X32055Y394
X33051Y-3677
X33055Y394
X34055Y394
X34055Y-3681
T3
X44094Y-6988
X47094Y-6988
X28827Y-7087
X28827Y-12087
X29827Y-7087
X29827Y-12087
X30827Y-7087
X30827Y-12087
X31827Y-7087
X31827Y-12087
X32827Y-7087
X32827Y-12087
X33827Y-7087
X33827Y-12087
X34827Y-7087
X34827Y-12087
X35827Y-7087
X35827Y-12087
X44094Y-11516
X47094Y-11516
X44094Y-2461
X47094Y-2461
T4
X33169Y-8827
X33169Y-9827
X33169Y-10827
X20177Y3701
X20177Y-12087
X27343Y3701
X27343Y-12087
X38370Y-1630
X38370Y-2630
X38370Y-3630
X38370Y-4630
X38370Y-5630
X38370Y-6630
X38370Y-7630
X38370Y-8630
X38370Y-9630
X38370Y-10630
X39370Y-1630
X39370Y-2630
X39370Y-3630
X39370Y-4630
X39370Y-5630
X39370Y-6630
X39370Y-7630
X39370Y-8630
X39370Y-9630
X39370Y-10630
X30020Y-8827
X30020Y-9827
X30020Y-10827
X29823Y3445
X30823Y3445
X31823Y3445
X32823Y3445
X33823Y3445
X31594Y-8827
X31594Y-9827
X31594Y-10827
T5
X31566Y-13829
X32566Y-13829
X33566Y-13829
X34566Y-13829
X35566Y-13829
X36566Y-13829
X37566Y-13829
X38566Y-13829
X22566Y-13829
X23566Y-13829
X24566Y-13829
X25566Y-13829
X26566Y-13829
X27566Y-13829
X28566Y-13829
X29566Y-13829
X40566Y-13829
X41566Y-13829
X42566Y-13829
X43566Y-13829
X44566Y-13829
X45566Y-13829
X46566Y-13829
X47566Y-13829
X29566Y5171
X30566Y5171
X31566Y5171
X32566Y5171
X33566Y5171
X34566Y5171
X35566Y5171
X36566Y5171
X48566Y5171
X48566Y4171
X48566Y3171
X48566Y2171
X48566Y1171
X48566Y171
X48566Y-829
X48566Y-1829
X48566Y-2829
X48566Y-3829
X48566Y-4829
X48566Y-5829
X48566Y-6829
X48566Y-7829
X48566Y-8829
X48566Y-9829
X48566Y-10829
X48566Y-11829
X49566Y5171
X49566Y4171
X49566Y3171
X49566Y2171
X49566Y1171
X49566Y171
X49566Y-829
X49566Y-1829
X49566Y-2829
X49566Y-3829
X49566Y-4829
X49566Y-5829
X49566Y-6829
X49566Y-7829
X49566Y-8829
X49566Y-9829
X49566Y-10829
X49566Y-11829
X38566Y5171
X39566Y5171
X40566Y5171
X41566Y5171
X42566Y5171
X43566Y5171
X44566Y5171
X45566Y5171
X18966Y5171
X19966Y5171
X20966Y5171
X21966Y5171
X22966Y5171
X23966Y5171
X24966Y5171
X25966Y5171
X26966Y5171
X27966Y5171
T6
X44850Y-4921
X45850Y-4921
X46850Y-4921
X44850Y-9449
X45850Y-9449
X46850Y-9449
X44850Y-394
X45850Y-394
X46850Y-394
T7
X45276Y2559
X46260Y2559
T8
X17835Y-9724
X17835Y-11724
T9
X17566Y5171
X49566Y-13829
X47066Y5171
X17066Y-13829
T0
M30
